<svg width="19" height="19" viewBox="0 0 19 19" fill="none" xmlns="http://www.w3.org/2000/svg">
<path d="M0.534621 18.6496L1.74219 14.2123C0.946497 12.8483 0.528455 11.297 0.531048 9.71787C0.531048 4.78487 4.52979 0.786133 9.46279 0.786133C14.3958 0.786133 18.3945 4.78487 18.3945 9.71787C18.3945 14.6509 14.3958 18.6496 9.46279 18.6496C7.88435 18.6522 6.33369 18.2344 4.97012 17.4394L0.534621 18.6496ZM6.23932 5.5271C6.12398 5.53426 6.01127 5.56464 5.90796 5.61642C5.81107 5.67128 5.72262 5.73988 5.64536 5.82006C5.53818 5.92099 5.47745 6.00852 5.41224 6.09337C5.08214 6.52298 4.90457 7.05033 4.9076 7.59212C4.90939 8.02977 5.02371 8.45582 5.20235 8.85417C5.56766 9.65982 6.16876 10.5128 6.96279 11.3033C7.15393 11.4935 7.34061 11.6846 7.54157 11.8624C8.52709 12.7301 9.70149 13.3558 10.9714 13.6898L11.4796 13.7675C11.6448 13.7765 11.81 13.764 11.9762 13.7559C12.2363 13.7425 12.4903 13.672 12.7202 13.5496C12.8685 13.471 12.9381 13.4317 13.0623 13.3531C13.0623 13.3531 13.1007 13.3281 13.1739 13.2727C13.2945 13.1834 13.3686 13.12 13.4687 13.0155C13.5428 12.9387 13.6071 12.8484 13.6562 12.7457C13.7259 12.6001 13.7956 12.3224 13.8242 12.091C13.8456 11.9142 13.8393 11.8177 13.8367 11.7579C13.8331 11.6623 13.7536 11.5632 13.667 11.5212L13.1471 11.2881C13.1471 11.2881 12.3701 10.9496 11.8958 10.7334C11.8458 10.7116 11.7922 10.6992 11.7377 10.6968C11.6766 10.6905 11.6148 10.6974 11.5566 10.717C11.4984 10.7365 11.445 10.7683 11.4001 10.8102V10.8084C11.3956 10.8084 11.3358 10.8593 10.69 11.6418C10.6529 11.6916 10.6019 11.7292 10.5434 11.7499C10.4848 11.7706 10.4214 11.7734 10.3613 11.7579C10.3031 11.7423 10.2461 11.7226 10.1907 11.6989C10.08 11.6525 10.0416 11.6346 9.96564 11.6016L9.96118 11.5998C9.4502 11.3767 8.9771 11.0754 8.5589 10.7066C8.44636 10.6084 8.34185 10.5012 8.23467 10.3976C7.88328 10.0611 7.57704 9.68037 7.32364 9.26503L7.27094 9.18018C7.23309 9.12317 7.20249 9.06166 7.17984 8.99708C7.14589 8.86578 7.23432 8.76039 7.23432 8.76039C7.23432 8.76039 7.45136 8.52281 7.55229 8.39419C7.63633 8.28729 7.71473 8.17609 7.78719 8.06103C7.89259 7.89133 7.92564 7.71716 7.87026 7.58229C7.62017 6.97136 7.36115 6.36311 7.09498 5.75933C7.04229 5.63964 6.88598 5.55389 6.74397 5.53692C6.69573 5.53157 6.6475 5.52621 6.59927 5.52263C6.47932 5.51667 6.35913 5.51787 6.23932 5.52621V5.5271Z" fill="white"/>
</svg>
