<svg width="126" height="120" viewBox="0 0 126 120" fill="none" xmlns="http://www.w3.org/2000/svg">
<path d="M19.25 44.25C19.25 32.6468 23.8594 21.5188 32.0641 13.3141C40.2688 5.10936 51.3968 0.5 63 0.5C74.6032 0.5 85.7312 5.10936 93.9359 13.3141C102.141 21.5188 106.75 32.6468 106.75 44.25V50.7187C117.35 52.2375 125.5 61.3562 125.5 72.375V73.9375C125.5 85.0312 115.931 94.7562 104.675 94.2375C100.05 107.487 88.2875 116.419 75.5938 118.681C72.6563 119.756 69.1812 119.25 66.125 119.25C63.6386 119.25 61.254 118.262 59.4959 116.504C57.7377 114.746 56.75 112.361 56.75 109.875C56.75 107.389 57.7377 105.004 59.4959 103.246C61.254 101.488 63.6386 100.5 66.125 100.5C71.0812 100.5 76.5687 99.7812 79.9187 104.306C88.0187 100.45 94.25 92.3063 94.25 81.75V44.25C94.25 35.962 90.9576 28.0134 85.0971 22.1529C79.2366 16.2924 71.288 13 63 13C54.712 13 46.7634 16.2924 40.9029 22.1529C35.0424 28.0134 31.75 35.962 31.75 44.25V83.3125C31.75 86.2133 30.5977 88.9953 28.5465 91.0465C26.4953 93.0977 23.7133 94.25 20.8125 94.25C15.4253 94.25 10.2587 92.1099 6.44939 88.3006C2.64006 84.4913 0.500001 79.3247 0.500001 73.9375V72.375C0.49865 67.1139 2.3935 62.0285 5.83722 58.051C9.28094 54.0735 14.0428 51.4703 19.25 50.7187V44.25Z" fill="#205696"/>
</svg>
