<svg width="102" height="128" viewBox="0 0 102 128" fill="none" xmlns="http://www.w3.org/2000/svg">
<g filter="url(#filter0_d_2_390)">
<path d="M28.7696 28.2465C25.3201 25.241 20.2685 25.7798 17.5512 29.4607C17.1443 30.0118 16.6543 30.6562 16.0192 31.4506C11.9899 36.4909 11.9899 43.789 16.0415 48.8114C19.0325 52.5191 22.1684 56.2602 25.6741 59.7661C29.1797 63.2716 32.9209 66.4076 36.6285 69.3985C41.6509 73.4501 48.9491 73.4501 53.9894 69.4208C54.8823 68.7067 55.5833 68.1789 56.1747 67.7468C59.7423 65.1406 60.3472 60.2594 57.4579 56.917C56.1426 55.3954 54.7484 53.92 53.3736 52.4725C51.4746 50.4732 48.2149 50.2508 46.1346 52.0606C45.7695 52.3782 45.3052 52.7979 44.6632 53.3998C38.8978 49.9739 35.4036 46.4371 32.0401 40.7768C32.6529 40.1231 33.0775 39.6532 33.3979 39.2842C35.2041 37.205 34.9832 33.9551 32.971 32.0745C31.5942 30.7877 30.1982 29.4913 28.7696 28.2465Z" fill="#F3F7FB" stroke="#286FB4" stroke-width="5" stroke-linejoin="round"/>
<path d="M58.1409 38.3462C57.5914 35.5997 56.1266 33.0183 53.795 31.0999C51.3692 29.1038 48.42 28.1668 45.5079 28.2342" stroke="#286FB4" stroke-width="5" stroke-linecap="round" stroke-linejoin="round"/>
<path d="M73.3793 35.8282C72.1394 29.6299 68.8339 23.8043 63.5721 19.4747C58.0974 14.9701 51.4416 12.8554 44.8696 13.0077" stroke="#286FB4" stroke-width="5" stroke-linecap="round" stroke-linejoin="round"/>
</g>
<path d="M15.96 121.18C14.5333 121.18 13.3133 120.887 12.3 120.3C11.2867 119.713 10.5067 118.88 9.96 117.8C9.42667 116.707 9.16 115.42 9.16 113.94C9.16 112.833 9.31333 111.84 9.62 110.96C9.92667 110.067 10.3667 109.307 10.94 108.68C11.5267 108.04 12.24 107.553 13.08 107.22C13.9333 106.887 14.8933 106.72 15.96 106.72C16.7467 106.72 17.5 106.827 18.22 107.04C18.9533 107.253 19.5867 107.56 20.12 107.96C20.3467 108.107 20.4933 108.287 20.56 108.5C20.64 108.7 20.6533 108.893 20.6 109.08C20.56 109.267 20.4733 109.427 20.34 109.56C20.2067 109.68 20.0333 109.747 19.82 109.76C19.62 109.773 19.4 109.7 19.16 109.54C18.72 109.207 18.2333 108.96 17.7 108.8C17.1667 108.64 16.6067 108.56 16.02 108.56C15.0067 108.56 14.1533 108.773 13.46 109.2C12.7667 109.613 12.24 110.22 11.88 111.02C11.52 111.82 11.34 112.793 11.34 113.94C11.34 115.087 11.52 116.067 11.88 116.88C12.24 117.68 12.7667 118.293 13.46 118.72C14.1533 119.133 15.0067 119.34 16.02 119.34C16.6067 119.34 17.1667 119.26 17.7 119.1C18.2467 118.927 18.76 118.673 19.24 118.34C19.48 118.193 19.6933 118.127 19.88 118.14C20.08 118.153 20.2467 118.22 20.38 118.34C20.5133 118.46 20.6 118.613 20.64 118.8C20.6933 118.973 20.6867 119.16 20.62 119.36C20.5667 119.547 20.44 119.707 20.24 119.84C19.6933 120.28 19.0467 120.613 18.3 120.84C17.5533 121.067 16.7733 121.18 15.96 121.18ZM26.4725 121.18C25.4858 121.18 24.6325 120.973 23.9125 120.56C23.2058 120.147 22.6525 119.56 22.2525 118.8C21.8525 118.04 21.6525 117.147 21.6525 116.12C21.6525 115.333 21.7658 114.633 21.9925 114.02C22.2192 113.407 22.5392 112.88 22.9525 112.44C23.3792 111.987 23.8858 111.647 24.4725 111.42C25.0725 111.18 25.7392 111.06 26.4725 111.06C27.4458 111.06 28.2858 111.267 28.9925 111.68C29.7125 112.093 30.2725 112.68 30.6725 113.44C31.0725 114.187 31.2725 115.08 31.2725 116.12C31.2725 116.893 31.1592 117.593 30.9325 118.22C30.7058 118.847 30.3792 119.38 29.9525 119.82C29.5392 120.26 29.0325 120.6 28.4325 120.84C27.8458 121.067 27.1925 121.18 26.4725 121.18ZM26.4725 119.62C27.0192 119.62 27.4992 119.487 27.9125 119.22C28.3258 118.953 28.6458 118.56 28.8725 118.04C29.1125 117.52 29.2325 116.88 29.2325 116.12C29.2325 114.973 28.9792 114.107 28.4725 113.52C27.9658 112.933 27.2992 112.64 26.4725 112.64C25.9125 112.64 25.4258 112.773 25.0125 113.04C24.5992 113.293 24.2725 113.68 24.0325 114.2C23.8058 114.72 23.6925 115.36 23.6925 116.12C23.6925 117.253 23.9458 118.12 24.4525 118.72C24.9592 119.32 25.6325 119.62 26.4725 119.62ZM34.5411 121.14C34.2211 121.14 33.9744 121.053 33.8011 120.88C33.6278 120.693 33.5411 120.44 33.5411 120.12V112.12C33.5411 111.787 33.6278 111.533 33.8011 111.36C33.9744 111.187 34.2144 111.1 34.5211 111.1C34.8411 111.1 35.0811 111.187 35.2411 111.36C35.4144 111.533 35.5011 111.787 35.5011 112.12V113.68L35.2811 113.32C35.5744 112.573 36.0344 112.013 36.6611 111.64C37.2878 111.253 38.0078 111.06 38.8211 111.06C39.5944 111.06 40.2344 111.207 40.7411 111.5C41.2611 111.78 41.6478 112.213 41.9011 112.8C42.1544 113.373 42.2811 114.1 42.2811 114.98V120.12C42.2811 120.44 42.1944 120.693 42.0211 120.88C41.8478 121.053 41.6011 121.14 41.2811 121.14C40.9478 121.14 40.6944 121.053 40.5211 120.88C40.3478 120.693 40.2611 120.44 40.2611 120.12V115.1C40.2611 114.26 40.0944 113.647 39.7611 113.26C39.4411 112.873 38.9344 112.68 38.2411 112.68C37.4278 112.68 36.7744 112.933 36.2811 113.44C35.8011 113.947 35.5611 114.627 35.5611 115.48V120.12C35.5611 120.8 35.2211 121.14 34.5411 121.14ZM49.2245 121.18C48.4245 121.18 47.7512 121.04 47.2045 120.76C46.6579 120.48 46.2512 120.067 45.9845 119.52C45.7179 118.973 45.5845 118.307 45.5845 117.52V112.8H44.3845C44.1179 112.8 43.9112 112.733 43.7645 112.6C43.6179 112.453 43.5445 112.26 43.5445 112.02C43.5445 111.767 43.6179 111.573 43.7645 111.44C43.9112 111.307 44.1179 111.24 44.3845 111.24H45.5845V109.18C45.5845 108.847 45.6712 108.593 45.8445 108.42C46.0312 108.247 46.2845 108.16 46.6045 108.16C46.9245 108.16 47.1712 108.247 47.3445 108.42C47.5179 108.593 47.6045 108.847 47.6045 109.18V111.24H49.9445C50.2112 111.24 50.4179 111.307 50.5645 111.44C50.7112 111.573 50.7845 111.767 50.7845 112.02C50.7845 112.26 50.7112 112.453 50.5645 112.6C50.4179 112.733 50.2112 112.8 49.9445 112.8H47.6045V117.36C47.6045 118.067 47.7512 118.6 48.0445 118.96C48.3512 119.32 48.8445 119.5 49.5245 119.5C49.7645 119.5 49.9712 119.48 50.1445 119.44C50.3312 119.387 50.4845 119.353 50.6045 119.34C50.7512 119.34 50.8712 119.393 50.9645 119.5C51.0579 119.593 51.1045 119.78 51.1045 120.06C51.1045 120.26 51.0645 120.447 50.9845 120.62C50.9179 120.793 50.7912 120.907 50.6045 120.96C50.4445 121.013 50.2245 121.06 49.9445 121.1C49.6779 121.153 49.4379 121.18 49.2245 121.18ZM55.4892 121.18C54.8092 121.18 54.1959 121.047 53.6492 120.78C53.1159 120.513 52.6959 120.153 52.3892 119.7C52.0826 119.247 51.9292 118.733 51.9292 118.16C51.9292 117.44 52.1092 116.873 52.4692 116.46C52.8426 116.033 53.4492 115.733 54.2892 115.56C55.1426 115.373 56.2892 115.28 57.7292 115.28H58.6692V116.52H57.7492C56.7892 116.52 56.0292 116.567 55.4692 116.66C54.9092 116.753 54.5092 116.913 54.2692 117.14C54.0426 117.353 53.9292 117.653 53.9292 118.04C53.9292 118.547 54.1026 118.96 54.4492 119.28C54.7959 119.587 55.2759 119.74 55.8892 119.74C56.3826 119.74 56.8159 119.627 57.1892 119.4C57.5626 119.16 57.8559 118.84 58.0692 118.44C58.2959 118.04 58.4092 117.58 58.4092 117.06V114.76C58.4092 114 58.2492 113.453 57.9292 113.12C57.6092 112.787 57.0826 112.62 56.3492 112.62C55.9226 112.62 55.4759 112.673 55.0092 112.78C54.5559 112.887 54.0826 113.067 53.5892 113.32C53.3626 113.427 53.1692 113.46 53.0092 113.42C52.8492 113.38 52.7226 113.293 52.6292 113.16C52.5359 113.013 52.4826 112.86 52.4692 112.7C52.4692 112.527 52.5092 112.36 52.5892 112.2C52.6826 112.04 52.8359 111.92 53.0492 111.84C53.6359 111.56 54.2159 111.36 54.7892 111.24C55.3626 111.12 55.9026 111.06 56.4092 111.06C57.3026 111.06 58.0359 111.2 58.6092 111.48C59.1959 111.76 59.6292 112.187 59.9092 112.76C60.1892 113.333 60.3292 114.073 60.3292 114.98V120.12C60.3292 120.44 60.2492 120.693 60.0892 120.88C59.9292 121.053 59.6959 121.14 59.3892 121.14C59.0959 121.14 58.8626 121.053 58.6892 120.88C58.5159 120.693 58.4292 120.44 58.4292 120.12V118.82H58.6092C58.5026 119.313 58.3026 119.74 58.0092 120.1C57.7292 120.447 57.3759 120.713 56.9492 120.9C56.5226 121.087 56.0359 121.18 55.4892 121.18ZM67.4114 121.18C66.4114 121.18 65.5447 120.973 64.8114 120.56C64.0914 120.133 63.5314 119.54 63.1314 118.78C62.7314 118.007 62.5314 117.1 62.5314 116.06C62.5314 115.287 62.6447 114.593 62.8714 113.98C63.0981 113.353 63.4181 112.827 63.8314 112.4C64.2581 111.973 64.7714 111.647 65.3714 111.42C65.9847 111.18 66.6647 111.06 67.4114 111.06C67.8781 111.06 68.3647 111.133 68.8714 111.28C69.3914 111.413 69.8714 111.64 70.3114 111.96C70.4847 112.067 70.5914 112.2 70.6314 112.36C70.6847 112.507 70.6914 112.66 70.6514 112.82C70.6247 112.98 70.5514 113.12 70.4314 113.24C70.3247 113.347 70.1914 113.413 70.0314 113.44C69.8714 113.453 69.6981 113.407 69.5114 113.3C69.1914 113.073 68.8647 112.913 68.5314 112.82C68.1981 112.713 67.8781 112.66 67.5714 112.66C67.0914 112.66 66.6647 112.74 66.2914 112.9C65.9314 113.047 65.6247 113.267 65.3714 113.56C65.1181 113.84 64.9247 114.193 64.7914 114.62C64.6714 115.047 64.6114 115.533 64.6114 116.08C64.6114 117.173 64.8647 118.033 65.3714 118.66C65.8914 119.273 66.6247 119.58 67.5714 119.58C67.8781 119.58 68.1981 119.533 68.5314 119.44C68.8647 119.347 69.1914 119.187 69.5114 118.96C69.6981 118.853 69.8714 118.813 70.0314 118.84C70.1914 118.867 70.3181 118.94 70.4114 119.06C70.5181 119.167 70.5847 119.3 70.6114 119.46C70.6514 119.607 70.6447 119.76 70.5914 119.92C70.5381 120.08 70.4247 120.213 70.2514 120.32C69.8247 120.627 69.3581 120.847 68.8514 120.98C68.3581 121.113 67.8781 121.18 67.4114 121.18ZM76.6269 121.18C75.8269 121.18 75.1535 121.04 74.6069 120.76C74.0602 120.48 73.6535 120.067 73.3869 119.52C73.1202 118.973 72.9869 118.307 72.9869 117.52V112.8H71.7869C71.5202 112.8 71.3135 112.733 71.1669 112.6C71.0202 112.453 70.9469 112.26 70.9469 112.02C70.9469 111.767 71.0202 111.573 71.1669 111.44C71.3135 111.307 71.5202 111.24 71.7869 111.24H72.9869V109.18C72.9869 108.847 73.0735 108.593 73.2469 108.42C73.4335 108.247 73.6869 108.16 74.0069 108.16C74.3269 108.16 74.5735 108.247 74.7469 108.42C74.9202 108.593 75.0069 108.847 75.0069 109.18V111.24H77.3469C77.6135 111.24 77.8202 111.307 77.9669 111.44C78.1135 111.573 78.1869 111.767 78.1869 112.02C78.1869 112.26 78.1135 112.453 77.9669 112.6C77.8202 112.733 77.6135 112.8 77.3469 112.8H75.0069V117.36C75.0069 118.067 75.1535 118.6 75.4469 118.96C75.7535 119.32 76.2469 119.5 76.9269 119.5C77.1669 119.5 77.3735 119.48 77.5469 119.44C77.7335 119.387 77.8869 119.353 78.0069 119.34C78.1535 119.34 78.2735 119.393 78.3669 119.5C78.4602 119.593 78.5069 119.78 78.5069 120.06C78.5069 120.26 78.4669 120.447 78.3869 120.62C78.3202 120.793 78.1935 120.907 78.0069 120.96C77.8469 121.013 77.6269 121.06 77.3469 121.1C77.0802 121.153 76.8402 121.18 76.6269 121.18Z" fill="#0A0A0B"/>
<defs>
<filter id="filter0_d_2_390" x="0.5" y="0.5" width="101.38" height="100.44" filterUnits="userSpaceOnUse" color-interpolation-filters="sRGB">
<feFlood flood-opacity="0" result="BackgroundImageFix"/>
<feColorMatrix in="SourceAlpha" type="matrix" values="0 0 0 0 0 0 0 0 0 0 0 0 0 0 0 0 0 0 127 0" result="hardAlpha"/>
<feOffset dx="8" dy="8"/>
<feGaussianBlur stdDeviation="9"/>
<feComposite in2="hardAlpha" operator="out"/>
<feColorMatrix type="matrix" values="0 0 0 0 0.156863 0 0 0 0 0.435294 0 0 0 0 0.705882 0 0 0 0.2 0"/>
<feBlend mode="normal" in2="BackgroundImageFix" result="effect1_dropShadow_2_390"/>
<feBlend mode="normal" in="SourceGraphic" in2="effect1_dropShadow_2_390" result="shape"/>
</filter>
</defs>
</svg>
