<svg width="50" height="68" viewBox="-8 0 40 38" fill="none" xmlns="http://www.w3.org/2000/svg">
<path d="M2.18103 24.288C1.60503 24.288 1.12503 24.128 0.741031 23.808C0.389031 23.456 0.197031 23.024 0.165031 22.512C0.165031 22 0.389031 21.44 0.837031 20.832L8.94903 10.704V13.104L1.36503 3.648C0.853031 3.072 0.613031 2.528 0.645031 2.016C0.677031 1.472 0.885031 1.04 1.26903 0.719999C1.65303 0.399999 2.11703 0.239998 2.66103 0.239998C3.26903 0.239998 3.76503 0.351998 4.14903 0.575998C4.56503 0.767999 4.94903 1.104 5.30103 1.584L11.685 9.696H9.95703L16.389 1.584C16.741 1.104 17.109 0.767999 17.493 0.575998C17.909 0.351998 18.405 0.239998 18.981 0.239998C19.557 0.239998 20.021 0.415998 20.373 0.767999C20.757 1.088 20.949 1.52 20.949 2.064C20.981 2.576 20.757 3.12 20.277 3.696L12.693 13.008V10.848L20.805 20.832C21.285 21.408 21.509 21.968 21.477 22.512C21.477 23.024 21.285 23.456 20.901 23.808C20.517 24.128 20.037 24.288 19.461 24.288C18.885 24.288 18.389 24.176 17.973 23.952C17.589 23.728 17.205 23.392 16.821 22.944L9.95703 14.304H11.589L4.77303 22.944C4.42103 23.36 4.03703 23.696 3.62103 23.952C3.23703 24.176 2.75703 24.288 2.18103 24.288Z" fill="#286FB4"/>
</svg>
