<svg width="160" height="160" viewBox="0 0 160 160" fill="none" xmlns="http://www.w3.org/2000/svg">
<circle cx="80" cy="80" r="80" fill="#D9D9D9"/>
<path d="M40.9999 45.3334C38.7014 45.3334 36.497 46.2465 34.8717 47.8718C33.2463 49.4971 32.3333 51.7015 32.3333 54V101.667H40.9999C40.9999 105.115 42.3696 108.421 44.8075 110.859C47.2455 113.297 50.5521 114.667 53.9999 114.667C57.4477 114.667 60.7543 113.297 63.1923 110.859C65.6303 108.421 66.9999 105.115 66.9999 101.667H92.9999C92.9999 105.115 94.3696 108.421 96.8075 110.859C99.2455 113.297 102.552 114.667 106 114.667C109.448 114.667 112.754 113.297 115.192 110.859C117.63 108.421 119 105.115 119 101.667H127.667V80L114.667 62.6667H101.667V45.3334M71.3333 54L88.6666 71.3334L71.3333 88.6667V75.6667H45.3333V67H71.3333M101.667 69.1667H112.5L121.037 80H101.667M53.9999 95.1667C55.7238 95.1667 57.3771 95.8515 58.5961 97.0705C59.8151 98.2895 60.4999 99.9428 60.4999 101.667C60.4999 103.391 59.8151 105.044 58.5961 106.263C57.3771 107.482 55.7238 108.167 53.9999 108.167C52.276 108.167 50.6227 107.482 49.4037 106.263C48.1847 105.044 47.4999 103.391 47.4999 101.667C47.4999 99.9428 48.1847 98.2895 49.4037 97.0705C50.6227 95.8515 52.276 95.1667 53.9999 95.1667M106 95.1667C107.724 95.1667 109.377 95.8515 110.596 97.0705C111.815 98.2895 112.5 99.9428 112.5 101.667C112.5 103.391 111.815 105.044 110.596 106.263C109.377 107.482 107.724 108.167 106 108.167C104.276 108.167 102.623 107.482 101.404 106.263C100.185 105.044 99.4999 103.391 99.4999 101.667C99.4999 99.9428 100.185 98.2895 101.404 97.0705C102.623 95.8515 104.276 95.1667 106 95.1667Z" fill="#205696"/>
</svg>
