<svg width="103" height="103" viewBox="0 0 103 103" fill="none" xmlns="http://www.w3.org/2000/svg">
<g filter="url(#filter0_d_3_529)">
<path d="M14.1599 63.7095C14.685 68.4105 18.4426 72.1664 23.1412 72.7099C28.4504 73.324 33.9366 73.9297 39.5498 73.9297C45.163 73.9297 50.6491 73.324 55.9584 72.7099C60.6569 72.1664 64.4147 68.4105 64.9397 63.7095C65.5297 58.4258 66.0997 52.966 66.0997 47.38C66.0997 41.7941 65.5297 36.3344 64.9397 31.0503C64.4147 26.3496 60.6569 22.5938 55.9584 22.0503C50.6491 21.4361 45.163 20.8303 39.5498 20.8303C33.9366 20.8303 28.4504 21.4361 23.1412 22.0503C18.4426 22.5938 14.685 26.3496 14.1599 31.0503C13.5696 36.3344 13 41.7941 13 47.38C13 52.966 13.5696 58.4258 14.1599 63.7095Z" fill="#F3F7FB" stroke="#286FB4" stroke-width="5" stroke-linejoin="round"/>
<path d="M35.6445 20.9216C31.3877 21.1133 27.2124 21.5793 23.1412 22.0503C18.4426 22.5938 14.685 26.3496 14.1599 31.0503C13.5696 36.3343 13 41.7941 13 47.38C13 52.966 13.5696 58.4254 14.1599 63.7096C14.685 68.4106 18.4426 72.1664 23.1412 72.71C28.4504 73.3241 33.9366 73.9298 39.5498 73.9298C45.163 73.9298 50.6491 73.3241 55.9584 72.71C60.6569 72.1664 64.4147 68.4106 64.9397 63.7101C65.3642 59.9087 65.778 56.0169 65.9768 52.0525" fill="#F3F7FB"/>
<path d="M35.6445 20.9216C31.3877 21.1133 27.2124 21.5793 23.1412 22.0503C18.4426 22.5938 14.685 26.3496 14.1599 31.0503C13.5696 36.3343 13 41.7941 13 47.38C13 52.966 13.5696 58.4254 14.1599 63.7096C14.685 68.4106 18.4426 72.1664 23.1412 72.71C28.4504 73.3241 33.9366 73.9298 39.5498 73.9298C45.163 73.9298 50.6491 73.3241 55.9584 72.71C60.6569 72.1664 64.4147 68.4106 64.9397 63.7101C65.3642 59.9087 65.778 56.0169 65.9768 52.0525" stroke="#286FB4" stroke-width="5" stroke-linecap="round" stroke-linejoin="round"/>
<path d="M58.7507 15.4987L40.7063 35.9731L38.2343 47.5998C37.8365 49.4706 39.7866 51.2407 41.6128 50.6666L53.1831 47.0292L71.8208 27.4178C74.9166 24.1606 74.3765 18.7126 70.6294 15.3984C66.97 12.1618 61.6521 12.2067 58.7507 15.4987Z" fill="#F3F7FB" stroke="#286FB4" stroke-width="5" stroke-linecap="round" stroke-linejoin="round"/>
</g>
<defs>
<filter id="filter0_d_3_529" x="0.5" y="0.500275" width="101.837" height="101.93" filterUnits="userSpaceOnUse" color-interpolation-filters="sRGB">
<feFlood flood-opacity="0" result="BackgroundImageFix"/>
<feColorMatrix in="SourceAlpha" type="matrix" values="0 0 0 0 0 0 0 0 0 0 0 0 0 0 0 0 0 0 127 0" result="hardAlpha"/>
<feOffset dx="8" dy="8"/>
<feGaussianBlur stdDeviation="9"/>
<feComposite in2="hardAlpha" operator="out"/>
<feColorMatrix type="matrix" values="0 0 0 0 0.156863 0 0 0 0 0.435294 0 0 0 0 0.705882 0 0 0 0.2 0"/>
<feBlend mode="normal" in2="BackgroundImageFix" result="effect1_dropShadow_3_529"/>
<feBlend mode="normal" in="SourceGraphic" in2="effect1_dropShadow_3_529" result="shape"/>
</filter>
</defs>
</svg>
