<svg width="160" height="160" viewBox="0 0 160 160" fill="none" xmlns="http://www.w3.org/2000/svg">
<circle cx="80" cy="80" r="80" fill="#D9D9D9"/>
<path d="M69.4796 48.4932H90.4659V53.7398H100.959V48.4932C100.959 42.7219 96.2372 38 90.4659 38H69.4796C63.7083 38 58.9864 42.7219 58.9864 48.4932V53.7398H69.4796V48.4932ZM38 111.452C38 114.338 40.361 116.699 43.2466 116.699H116.699C119.585 116.699 121.946 114.338 121.946 111.452V79.9728H38V111.452ZM74.7262 85.2194H85.2194V90.466C85.2194 93.3673 82.8741 95.7125 79.9728 95.7125C77.0714 95.7125 74.7262 93.3673 74.7262 90.466V85.2194ZM116.699 58.9864H43.2466C40.361 58.9864 38 61.3473 38 64.233V74.7262H121.946V64.233C121.946 61.3473 119.585 58.9864 116.699 58.9864Z" fill="#205696"/>
</svg>
