<svg width="22" height="22" viewBox="0 0 22 22" fill="none" xmlns="http://www.w3.org/2000/svg">
<path fill-rule="evenodd" clip-rule="evenodd" d="M0.308533 10.7779C0.308533 16.1071 4.17895 20.538 9.24027 21.4362V13.6953H6.56075V10.7181H9.24027V8.33628C9.24027 5.65676 10.967 4.16814 13.4084 4.16814C14.1825 4.16814 15.0162 4.28723 15.7902 4.40631V7.14538H14.4207C13.1107 7.14538 12.813 7.80037 12.813 8.63401V10.7181H15.6711L15.1948 13.6953H12.813V21.4362C17.8743 20.538 21.7447 16.1071 21.7447 10.7779C21.7447 4.85009 16.9216 0 11.0266 0C5.13167 0 0.308533 4.85009 0.308533 10.7779H0.308533Z" fill="white"/>
</svg>
