<svg width="132" height="132" viewBox="0 0 132 132" fill="none" xmlns="http://www.w3.org/2000/svg">
<path d="M100.5 81.75H25.5L0.5 106.75V6.75C0.5 5.0924 1.15848 3.50268 2.33058 2.33058C3.50268 1.15848 5.0924 0.5 6.75 0.5H100.5C102.158 0.5 103.747 1.15848 104.919 2.33058C106.092 3.50268 106.75 5.0924 106.75 6.75V75.5C106.75 77.1576 106.092 78.7473 104.919 79.9194C103.747 81.0915 102.158 81.75 100.5 81.75ZM131.75 44.25V131.75L106.75 106.75H38C36.3424 106.75 34.7527 106.092 33.5806 104.919C32.4085 103.747 31.75 102.158 31.75 100.5V94.25H119.25V38H125.5C127.158 38 128.747 38.6585 129.919 39.8306C131.092 41.0027 131.75 42.5924 131.75 44.25ZM39.1875 13C33.75 13 29.375 14.25 26 16.6875C22.75 19.25 21.125 22.8125 21.1875 27.75L21.25 27.9375H33.3125C33.375 26.0625 33.9375 24.625 35.0625 23.625C36.2198 22.6653 37.6844 22.1549 39.1875 22.1875C41.125 22.1875 42.75 22.8125 43.875 23.9375C45 25.125 45.5 26.75 45.5 28.625C45.5 30.625 45.0625 32.3125 44.0625 33.75C43.1875 35.1875 41.875 36.4375 40.25 37.4375C37.0625 39.5625 34.875 41.4375 33.6875 43.125C32.4375 44.75 31.75 47.375 31.75 50.5H44.25C44.25 48.5625 44.5 47 45.0625 45.875C45.625 44.75 46.6875 43.625 48.25 42.625C51.0625 41.125 53.375 39.3125 55.1875 36.8125C57 34.3125 57.9375 31.75 57.9375 28.625C57.9375 23.875 56.25 20.0625 52.875 17.25C49.5625 14.4375 45 13 39.1875 13ZM31.75 56.75V69.25H44.25V56.75H31.75ZM69.25 69.25H81.75V56.75H69.25V69.25ZM69.25 13V50.5H81.75V13H69.25Z" fill="#205696"/>
</svg>
