<svg width="23" height="22" viewBox="0 0 23 22" fill="none" xmlns="http://www.w3.org/2000/svg">
<path d="M22.2395 6.33753C22.2264 5.43642 22.0597 4.54245 21.7407 3.69967C21.1824 2.26051 20.0456 1.12252 18.6065 0.565426C17.7744 0.252359 16.8947 0.0845163 16.0043 0.0654704C14.8592 0.0142845 14.4961 0 11.5893 0C8.68238 0 8.30979 7.98205e-08 7.17299 0.0654704C6.28378 0.0845163 5.4041 0.252359 4.57203 0.565426C3.13287 1.12252 1.99488 2.26051 1.43779 3.69967C1.12472 4.53174 0.955686 5.41142 0.939021 6.30063C0.887835 7.44695 0.87236 7.81002 0.87236 10.7169C0.87236 13.6238 0.87236 13.9952 0.939021 15.1332C0.956876 16.0236 1.12472 16.9021 1.43779 17.7365C1.99607 19.1745 3.13287 20.3125 4.57322 20.8696C5.40172 21.1933 6.2814 21.3767 7.17418 21.4052C8.3205 21.4564 8.68357 21.4719 11.5904 21.4719C14.4973 21.4719 14.8699 21.4719 16.0067 21.4052C16.8959 21.3874 17.7756 21.2195 18.6089 20.9065C20.048 20.3482 21.1848 19.2102 21.7431 17.7722C22.0562 16.939 22.224 16.0605 22.2419 15.1689C22.2931 14.0237 22.3085 13.6607 22.3085 10.7526C22.3062 7.84573 22.3062 7.47671 22.2395 6.33753ZM11.5821 16.214C8.54191 16.214 6.07904 13.7512 6.07904 10.7109C6.07904 7.67074 8.54191 5.20787 11.5821 5.20787C14.6199 5.20787 17.0852 7.67074 17.0852 10.7109C17.0852 13.7512 14.6199 16.214 11.5821 16.214ZM17.3042 6.28753C16.5936 6.28753 16.021 5.71377 16.021 5.00431C16.021 4.29485 16.5936 3.7211 17.3042 3.7211C18.0125 3.7211 18.5863 4.29485 18.5863 5.00431C18.5863 5.71377 18.0125 6.28753 17.3042 6.28753Z" fill="white"/>
</svg>
