<svg width="101" height="129" viewBox="0 0 101 129" fill="none" xmlns="http://www.w3.org/2000/svg">
<path d="M17.64 122.14C17.3333 122.14 17.0933 122.053 16.92 121.88C16.76 121.707 16.68 121.467 16.68 121.16V108.74C16.68 108.42 16.7667 108.18 16.94 108.02C17.1133 107.847 17.3467 107.76 17.64 107.76C17.92 107.76 18.1333 107.813 18.28 107.92C18.44 108.013 18.5867 108.187 18.72 108.44L23.96 118.22H23.34L28.56 108.44C28.6933 108.187 28.8333 108.013 28.98 107.92C29.1267 107.813 29.34 107.76 29.62 107.76C29.9133 107.76 30.14 107.847 30.3 108.02C30.46 108.18 30.54 108.42 30.54 108.74V121.16C30.54 121.467 30.46 121.707 30.3 121.88C30.1533 122.053 29.9267 122.14 29.62 122.14C29.3133 122.14 29.08 122.053 28.92 121.88C28.76 121.707 28.68 121.467 28.68 121.16V110.84H29.12L24.48 119.42C24.3733 119.62 24.26 119.767 24.14 119.86C24.02 119.953 23.8533 120 23.64 120C23.4267 120 23.2533 119.953 23.12 119.86C22.9867 119.753 22.8667 119.607 22.76 119.42L18.08 110.82H18.56V121.16C18.56 121.467 18.48 121.707 18.32 121.88C18.1733 122.053 17.9467 122.14 17.64 122.14ZM38.2266 122.18C37.1599 122.18 36.2399 121.98 35.4666 121.58C34.7066 121.167 34.1132 120.587 33.6866 119.84C33.2732 119.08 33.0666 118.18 33.0666 117.14C33.0666 116.127 33.2732 115.24 33.6866 114.48C34.0999 113.72 34.6666 113.127 35.3866 112.7C36.1066 112.273 36.9266 112.06 37.8466 112.06C38.5266 112.06 39.1332 112.173 39.6666 112.4C40.1999 112.613 40.6532 112.933 41.0266 113.36C41.4132 113.773 41.6999 114.28 41.8866 114.88C42.0866 115.48 42.1866 116.153 42.1866 116.9C42.1866 117.127 42.1199 117.3 41.9866 117.42C41.8532 117.527 41.6532 117.58 41.3866 117.58H34.6666V116.34H40.8266L40.4866 116.62C40.4866 115.953 40.3866 115.387 40.1866 114.92C39.9999 114.453 39.7132 114.1 39.3266 113.86C38.9532 113.607 38.4866 113.48 37.9266 113.48C37.2999 113.48 36.7666 113.627 36.3266 113.92C35.8999 114.213 35.5732 114.62 35.3466 115.14C35.1199 115.66 35.0066 116.267 35.0066 116.96V117.08C35.0066 118.253 35.2799 119.14 35.8266 119.74C36.3866 120.327 37.1932 120.62 38.2466 120.62C38.6466 120.62 39.0666 120.567 39.5066 120.46C39.9599 120.353 40.3866 120.173 40.7866 119.92C41.0132 119.787 41.2132 119.727 41.3866 119.74C41.5732 119.753 41.7199 119.813 41.8266 119.92C41.9466 120.027 42.0199 120.16 42.0466 120.32C42.0732 120.48 42.0466 120.647 41.9666 120.82C41.8866 120.98 41.7466 121.127 41.5466 121.26C41.0932 121.567 40.5666 121.8 39.9666 121.96C39.3666 122.107 38.7866 122.18 38.2266 122.18ZM48.1087 122.18C47.2554 122.18 46.5021 121.98 45.8488 121.58C45.2088 121.167 44.7088 120.58 44.3488 119.82C43.9888 119.047 43.8088 118.147 43.8088 117.12C43.8088 116.067 43.9888 115.167 44.3488 114.42C44.7088 113.673 45.2088 113.093 45.8488 112.68C46.5021 112.267 47.2554 112.06 48.1087 112.06C48.9621 112.06 49.6954 112.273 50.3088 112.7C50.9354 113.113 51.3554 113.673 51.5688 114.38H51.3488V108.78C51.3488 108.447 51.4354 108.193 51.6088 108.02C51.7821 107.847 52.0288 107.76 52.3488 107.76C52.6688 107.76 52.9154 107.847 53.0888 108.02C53.2754 108.193 53.3688 108.447 53.3688 108.78V121.12C53.3688 121.44 53.2821 121.693 53.1088 121.88C52.9354 122.053 52.6888 122.14 52.3688 122.14C52.0488 122.14 51.8021 122.053 51.6288 121.88C51.4554 121.693 51.3688 121.44 51.3688 121.12V119.36L51.5888 119.8C51.3754 120.52 50.9554 121.1 50.3288 121.54C49.7154 121.967 48.9754 122.18 48.1087 122.18ZM48.6288 120.62C49.1754 120.62 49.6554 120.487 50.0688 120.22C50.4821 119.953 50.8021 119.56 51.0288 119.04C51.2688 118.52 51.3888 117.88 51.3888 117.12C51.3888 115.973 51.1354 115.107 50.6288 114.52C50.1221 113.933 49.4554 113.64 48.6288 113.64C48.0688 113.64 47.5821 113.773 47.1688 114.04C46.7554 114.293 46.4288 114.68 46.1888 115.2C45.9621 115.72 45.8488 116.36 45.8488 117.12C45.8488 118.253 46.1021 119.12 46.6088 119.72C47.1154 120.32 47.7888 120.62 48.6288 120.62ZM57.2052 122.12C56.8852 122.12 56.6385 122.027 56.4652 121.84C56.2918 121.64 56.2052 121.367 56.2052 121.02V113.22C56.2052 112.873 56.2918 112.607 56.4652 112.42C56.6385 112.233 56.8852 112.14 57.2052 112.14C57.5252 112.14 57.7718 112.233 57.9452 112.42C58.1318 112.607 58.2252 112.873 58.2252 113.22V121.02C58.2252 121.367 58.1385 121.64 57.9652 121.84C57.7918 122.027 57.5385 122.12 57.2052 122.12ZM57.2052 110.06C56.8052 110.06 56.4918 109.96 56.2652 109.76C56.0518 109.56 55.9452 109.28 55.9452 108.92C55.9452 108.547 56.0518 108.267 56.2652 108.08C56.4918 107.88 56.8052 107.78 57.2052 107.78C57.6052 107.78 57.9118 107.88 58.1252 108.08C58.3518 108.267 58.4652 108.547 58.4652 108.92C58.4652 109.28 58.3518 109.56 58.1252 109.76C57.9118 109.96 57.6052 110.06 57.2052 110.06ZM64.1884 122.18C63.5084 122.18 62.8951 122.047 62.3484 121.78C61.8151 121.513 61.3951 121.153 61.0884 120.7C60.7818 120.247 60.6284 119.733 60.6284 119.16C60.6284 118.44 60.8084 117.873 61.1684 117.46C61.5418 117.033 62.1484 116.733 62.9884 116.56C63.8418 116.373 64.9884 116.28 66.4284 116.28H67.3684V117.52H66.4484C65.4884 117.52 64.7284 117.567 64.1684 117.66C63.6084 117.753 63.2084 117.913 62.9684 118.14C62.7418 118.353 62.6284 118.653 62.6284 119.04C62.6284 119.547 62.8018 119.96 63.1484 120.28C63.4951 120.587 63.9751 120.74 64.5884 120.74C65.0818 120.74 65.5151 120.627 65.8884 120.4C66.2618 120.16 66.5551 119.84 66.7684 119.44C66.9951 119.04 67.1084 118.58 67.1084 118.06V115.76C67.1084 115 66.9484 114.453 66.6284 114.12C66.3084 113.787 65.7818 113.62 65.0484 113.62C64.6218 113.62 64.1751 113.673 63.7084 113.78C63.2551 113.887 62.7818 114.067 62.2884 114.32C62.0618 114.427 61.8684 114.46 61.7084 114.42C61.5484 114.38 61.4218 114.293 61.3284 114.16C61.2351 114.013 61.1818 113.86 61.1684 113.7C61.1684 113.527 61.2084 113.36 61.2884 113.2C61.3818 113.04 61.5351 112.92 61.7484 112.84C62.3351 112.56 62.9151 112.36 63.4884 112.24C64.0618 112.12 64.6018 112.06 65.1084 112.06C66.0018 112.06 66.7351 112.2 67.3084 112.48C67.8951 112.76 68.3284 113.187 68.6084 113.76C68.8884 114.333 69.0284 115.073 69.0284 115.98V121.12C69.0284 121.44 68.9484 121.693 68.7884 121.88C68.6284 122.053 68.3951 122.14 68.0884 122.14C67.7951 122.14 67.5618 122.053 67.3884 121.88C67.2151 121.693 67.1284 121.44 67.1284 121.12V119.82H67.3084C67.2018 120.313 67.0018 120.74 66.7084 121.1C66.4284 121.447 66.0751 121.713 65.6484 121.9C65.2218 122.087 64.7351 122.18 64.1884 122.18Z" fill="#0A0A0B"/>
<g filter="url(#filter0_d_2_391)">
<path d="M14.8609 65.9576C15.1069 68.2497 16.9255 70.0669 19.2171 70.3175C26.7061 71.1361 34.5503 72.2612 42.6305 72.2612C50.7106 72.2612 58.555 71.1361 66.0438 70.3175C68.3355 70.0669 70.1541 68.2497 70.4 65.9576C71.2009 58.496 72.2611 50.6807 72.2611 42.6305C72.2611 34.5803 71.2009 26.7649 70.4 19.3033C70.1541 17.0112 68.3355 15.1941 66.0438 14.9436C58.555 14.1249 50.7106 13 42.6305 13C34.5503 13 26.7061 14.1248 19.2171 14.9436C16.9255 15.1941 15.1069 17.0112 14.8609 19.3033C14.06 26.7649 13 34.5803 13 42.6305C13 50.6807 14.06 58.496 14.8609 65.9576Z" fill="#F3F7FB" stroke="#286FB4" stroke-width="5" stroke-linejoin="round"/>
<path d="M71.505 29.4414C71.2921 27.3017 71.0544 25.185 70.8195 23.0937C70.6768 21.8206 70.5346 20.557 70.4 19.3033C70.1541 17.0112 68.3355 15.1941 66.0439 14.9436C64.6439 14.7906 63.2314 14.6268 61.8076 14.4617C55.614 13.7436 49.2003 13 42.6305 13C36.0609 13 29.6471 13.7436 23.4534 14.4617C22.0295 14.6268 20.6171 14.7906 19.2172 14.9436C16.9255 15.1941 15.1069 17.0112 14.8609 19.3033C14.7264 20.557 14.5845 21.8206 14.4415 23.0937C14.2067 25.185 13.9691 27.3017 13.7563 29.4414H71.505Z" fill="#F3F7FB" stroke="#286FB4" stroke-width="5" stroke-linejoin="round"/>
<path d="M34.1599 50.8291C34.1599 52.4868 34.4185 54.7509 34.711 56.7819C35.0975 59.4645 37.7404 61.191 40.2997 60.2984C44.7093 58.7595 48.8059 56.517 51.8192 53.3083C53.1343 51.9079 53.1344 49.7504 51.8194 48.3499C48.8062 45.141 44.7095 42.8984 40.2998 41.36C37.7407 40.4671 35.0978 42.1935 34.7112 44.8762C34.4186 46.9073 34.1599 49.1713 34.1599 50.8291Z" fill="#F3F7FB" stroke="#286FB4" stroke-width="5" stroke-linecap="round" stroke-linejoin="round"/>
<path d="M34.9296 13.3009L30.5118 29.4414L34.9296 13.3009Z" fill="#F3F7FB"/>
<path d="M34.9296 13.3009L30.5118 29.4414" stroke="#286FB4" stroke-width="5" stroke-linecap="round" stroke-linejoin="round"/>
<path d="M54.5482 13.6537L50.243 29.4414L54.5482 13.6537Z" fill="#F3F7FB"/>
<path d="M54.5482 13.6537L50.243 29.4414" stroke="#286FB4" stroke-width="5" stroke-linecap="round" stroke-linejoin="round"/>
</g>
<defs>
<filter id="filter0_d_2_391" x="0.5" y="0.5" width="100.261" height="100.261" filterUnits="userSpaceOnUse" color-interpolation-filters="sRGB">
<feFlood flood-opacity="0" result="BackgroundImageFix"/>
<feColorMatrix in="SourceAlpha" type="matrix" values="0 0 0 0 0 0 0 0 0 0 0 0 0 0 0 0 0 0 127 0" result="hardAlpha"/>
<feOffset dx="8" dy="8"/>
<feGaussianBlur stdDeviation="9"/>
<feComposite in2="hardAlpha" operator="out"/>
<feColorMatrix type="matrix" values="0 0 0 0 0.156863 0 0 0 0 0.435294 0 0 0 0 0.705882 0 0 0 0.2 0"/>
<feBlend mode="normal" in2="BackgroundImageFix" result="effect1_dropShadow_2_391"/>
<feBlend mode="normal" in="SourceGraphic" in2="effect1_dropShadow_2_391" result="shape"/>
</filter>
</defs>
</svg>
