<svg width="103" height="125" viewBox="0 0 103 125" fill="none" xmlns="http://www.w3.org/2000/svg">
<g filter="url(#filter0_d_2_389)">
<path d="M21.1863 13C17.1855 17.0008 14.3802 21.9734 13 27.3631L21.1863 13ZM65.4345 13C69.4352 17.0008 72.2406 21.9734 73.6209 27.3631L65.4345 13Z" fill="#F3F7FB"/>
<path d="M21.1863 13C17.1855 17.0008 14.3802 21.9734 13 27.3631M65.4345 13C69.4352 17.0008 72.2406 21.9734 73.6209 27.3631" stroke="#286FB4" stroke-width="5" stroke-linecap="round" stroke-linejoin="round"/>
<path d="M30.5366 22.2423C33.953 18.8259 38.5867 16.9065 43.4183 16.9065C48.2499 16.9065 52.8835 18.8259 56.2999 22.2423C59.7163 25.6587 61.6356 30.2924 61.6356 35.124C61.6356 39.2892 62.3718 42.5637 63.4603 45.1234C64.5525 47.6915 67.5582 48.5676 69.8011 50.228C73.1488 52.7065 72.5015 58.0096 69.7169 60.0684C69.7169 60.0684 65.2212 63.9609 43.4183 63.9609C21.6155 63.9609 17.1195 60.0684 17.1195 60.0684C14.3349 58.0096 13.6877 52.7065 17.0355 50.228C19.2783 48.5676 22.2842 47.6915 23.3762 45.1234C24.4646 42.5637 25.2009 39.2892 25.2009 35.124C25.2009 30.2924 27.1202 25.6587 30.5366 22.2423Z" fill="#F3F7FB" stroke="#286FB4" stroke-width="5" stroke-linecap="round" stroke-linejoin="round"/>
<path d="M36.9646 74.1979C38.2866 76.6625 40.8877 78.3392 43.8803 78.3392C46.873 78.3392 49.4741 76.6625 50.7961 74.1979" fill="#F3F7FB"/>
<path d="M36.9646 74.1979C38.2866 76.6625 40.8877 78.3392 43.8803 78.3392C46.873 78.3392 49.4741 76.6625 50.7961 74.1979" stroke="#286FB4" stroke-width="5" stroke-linecap="round" stroke-linejoin="round"/>
</g>
<path d="M11.68 118.14C11.3467 118.14 11.0867 118.047 10.9 117.86C10.7267 117.673 10.64 117.413 10.64 117.08V104.96C10.64 104.613 10.7333 104.353 10.92 104.18C11.1067 103.993 11.3667 103.9 11.7 103.9H16.48C18 103.9 19.1733 104.28 20 105.04C20.8267 105.787 21.24 106.84 21.24 108.2C21.24 109.573 20.8267 110.64 20 111.4C19.1733 112.147 18 112.52 16.48 112.52H12.72V117.08C12.72 117.413 12.6333 117.673 12.46 117.86C12.2867 118.047 12.0267 118.14 11.68 118.14ZM12.72 110.86H16.18C17.18 110.86 17.9333 110.64 18.44 110.2C18.96 109.747 19.22 109.08 19.22 108.2C19.22 107.333 18.96 106.68 18.44 106.24C17.9333 105.787 17.18 105.56 16.18 105.56H12.72V110.86ZM27.0233 118.18C26.0366 118.18 25.1833 117.973 24.4633 117.56C23.7566 117.147 23.2033 116.56 22.8033 115.8C22.4033 115.04 22.2033 114.147 22.2033 113.12C22.2033 112.333 22.3166 111.633 22.5433 111.02C22.7699 110.407 23.0899 109.88 23.5033 109.44C23.9299 108.987 24.4366 108.647 25.0233 108.42C25.6233 108.18 26.2899 108.06 27.0233 108.06C27.9966 108.06 28.8366 108.267 29.5433 108.68C30.2633 109.093 30.8233 109.68 31.2233 110.44C31.6233 111.187 31.8233 112.08 31.8233 113.12C31.8233 113.893 31.7099 114.593 31.4833 115.22C31.2566 115.847 30.9299 116.38 30.5033 116.82C30.0899 117.26 29.5833 117.6 28.9833 117.84C28.3966 118.067 27.7433 118.18 27.0233 118.18ZM27.0233 116.62C27.5699 116.62 28.0499 116.487 28.4633 116.22C28.8766 115.953 29.1966 115.56 29.4233 115.04C29.6633 114.52 29.7833 113.88 29.7833 113.12C29.7833 111.973 29.5299 111.107 29.0233 110.52C28.5166 109.933 27.8499 109.64 27.0233 109.64C26.4633 109.64 25.9766 109.773 25.5633 110.04C25.1499 110.293 24.8233 110.68 24.5833 111.2C24.3566 111.72 24.2433 112.36 24.2433 113.12C24.2433 114.253 24.4966 115.12 25.0033 115.72C25.5099 116.32 26.1833 116.62 27.0233 116.62ZM35.0919 121.74C34.7719 121.74 34.5252 121.653 34.3519 121.48C34.1785 121.307 34.0919 121.053 34.0919 120.72V109.12C34.0919 108.787 34.1785 108.533 34.3519 108.36C34.5252 108.187 34.7652 108.1 35.0719 108.1C35.3919 108.1 35.6385 108.187 35.8119 108.36C35.9852 108.533 36.0719 108.787 36.0719 109.12V110.86L35.8519 110.44C36.0652 109.72 36.4852 109.147 37.1119 108.72C37.7385 108.28 38.4785 108.06 39.3319 108.06C40.1985 108.06 40.9519 108.267 41.5919 108.68C42.2452 109.093 42.7452 109.673 43.0919 110.42C43.4519 111.167 43.6319 112.067 43.6319 113.12C43.6319 114.147 43.4519 115.047 43.0919 115.82C42.7452 116.58 42.2519 117.167 41.6119 117.58C40.9719 117.98 40.2119 118.18 39.3319 118.18C38.4919 118.18 37.7585 117.967 37.1319 117.54C36.5052 117.113 36.0852 116.547 35.8719 115.84H36.1119V120.72C36.1119 121.053 36.0185 121.307 35.8319 121.48C35.6585 121.653 35.4119 121.74 35.0919 121.74ZM38.8319 116.62C39.3919 116.62 39.8785 116.487 40.2919 116.22C40.7052 115.953 41.0252 115.56 41.2519 115.04C41.4785 114.52 41.5919 113.88 41.5919 113.12C41.5919 111.973 41.3385 111.107 40.8319 110.52C40.3385 109.933 39.6719 109.64 38.8319 109.64C38.2852 109.64 37.7985 109.773 37.3719 110.04C36.9585 110.293 36.6385 110.68 36.4119 111.2C36.1852 111.72 36.0719 112.36 36.0719 113.12C36.0719 114.253 36.3252 115.12 36.8319 115.72C37.3385 116.32 38.0052 116.62 38.8319 116.62ZM46.8813 113.48C46.6413 113.48 46.4413 113.4 46.2813 113.24C46.1213 113.08 46.0413 112.887 46.0413 112.66C46.0413 112.42 46.1213 112.227 46.2813 112.08C46.4413 111.92 46.6413 111.84 46.8813 111.84H51.2813C51.5079 111.84 51.7013 111.92 51.8613 112.08C52.0213 112.227 52.1013 112.42 52.1013 112.66C52.1013 112.887 52.0213 113.08 51.8613 113.24C51.7013 113.4 51.5079 113.48 51.2813 113.48H46.8813ZM58.2555 118.18C57.4688 118.18 56.8088 118.033 56.2755 117.74C55.7555 117.447 55.3621 117.013 55.0955 116.44C54.8421 115.853 54.7155 115.12 54.7155 114.24V109.12C54.7155 108.773 54.8021 108.52 54.9755 108.36C55.1488 108.187 55.3955 108.1 55.7155 108.1C56.0355 108.1 56.2821 108.187 56.4555 108.36C56.6421 108.52 56.7355 108.773 56.7355 109.12V114.26C56.7355 115.047 56.8955 115.627 57.2155 116C57.5355 116.373 58.0421 116.56 58.7355 116.56C59.4955 116.56 60.1088 116.307 60.5755 115.8C61.0555 115.28 61.2955 114.6 61.2955 113.76V109.12C61.2955 108.773 61.3821 108.52 61.5555 108.36C61.7288 108.187 61.9821 108.1 62.3155 108.1C62.6355 108.1 62.8821 108.187 63.0555 108.36C63.2288 108.52 63.3155 108.773 63.3155 109.12V117.12C63.3155 117.8 62.9888 118.14 62.3355 118.14C62.0288 118.14 61.7888 118.053 61.6155 117.88C61.4421 117.693 61.3555 117.44 61.3555 117.12V115.42L61.6155 115.86C61.3488 116.607 60.9221 117.18 60.3355 117.58C59.7488 117.98 59.0555 118.18 58.2555 118.18ZM67.1622 121.74C66.8422 121.74 66.5955 121.653 66.4222 121.48C66.2489 121.307 66.1622 121.053 66.1622 120.72V109.12C66.1622 108.787 66.2489 108.533 66.4222 108.36C66.5955 108.187 66.8355 108.1 67.1422 108.1C67.4622 108.1 67.7089 108.187 67.8822 108.36C68.0555 108.533 68.1422 108.787 68.1422 109.12V110.86L67.9222 110.44C68.1355 109.72 68.5555 109.147 69.1822 108.72C69.8089 108.28 70.5489 108.06 71.4022 108.06C72.2689 108.06 73.0222 108.267 73.6622 108.68C74.3155 109.093 74.8155 109.673 75.1622 110.42C75.5222 111.167 75.7022 112.067 75.7022 113.12C75.7022 114.147 75.5222 115.047 75.1622 115.82C74.8155 116.58 74.3222 117.167 73.6822 117.58C73.0422 117.98 72.2822 118.18 71.4022 118.18C70.5622 118.18 69.8289 117.967 69.2022 117.54C68.5755 117.113 68.1555 116.547 67.9422 115.84H68.1822V120.72C68.1822 121.053 68.0889 121.307 67.9022 121.48C67.7289 121.653 67.4822 121.74 67.1622 121.74ZM70.9022 116.62C71.4622 116.62 71.9489 116.487 72.3622 116.22C72.7755 115.953 73.0955 115.56 73.3222 115.04C73.5489 114.52 73.6622 113.88 73.6622 113.12C73.6622 111.973 73.4089 111.107 72.9022 110.52C72.4089 109.933 71.7422 109.64 70.9022 109.64C70.3555 109.64 69.8689 109.773 69.4422 110.04C69.0289 110.293 68.7089 110.68 68.4822 111.2C68.2555 111.72 68.1422 112.36 68.1422 113.12C68.1422 114.253 68.3955 115.12 68.9022 115.72C69.4089 116.32 70.0755 116.62 70.9022 116.62Z" fill="#0A0A0B"/>
<defs>
<filter id="filter0_d_2_389" x="0.499405" y="0.5" width="101.622" height="106.339" filterUnits="userSpaceOnUse" color-interpolation-filters="sRGB">
<feFlood flood-opacity="0" result="BackgroundImageFix"/>
<feColorMatrix in="SourceAlpha" type="matrix" values="0 0 0 0 0 0 0 0 0 0 0 0 0 0 0 0 0 0 127 0" result="hardAlpha"/>
<feOffset dx="8" dy="8"/>
<feGaussianBlur stdDeviation="9"/>
<feComposite in2="hardAlpha" operator="out"/>
<feColorMatrix type="matrix" values="0 0 0 0 0.156863 0 0 0 0 0.435294 0 0 0 0 0.705882 0 0 0 0.2 0"/>
<feBlend mode="normal" in2="BackgroundImageFix" result="effect1_dropShadow_2_389"/>
<feBlend mode="normal" in="SourceGraphic" in2="effect1_dropShadow_2_389" result="shape"/>
</filter>
</defs>
</svg>
