<svg width="102" height="131" viewBox="0 0 102 131" fill="none" xmlns="http://www.w3.org/2000/svg">
<path d="M19.68 124.14C19.3467 124.14 19.0867 124.047 18.9 123.86C18.7267 123.673 18.64 123.413 18.64 123.08V110.96C18.64 110.613 18.7333 110.353 18.92 110.18C19.1067 109.993 19.3667 109.9 19.7 109.9H24.48C26 109.9 27.1733 110.28 28 111.04C28.8267 111.787 29.24 112.84 29.24 114.2C29.24 115.573 28.8267 116.64 28 117.4C27.1733 118.147 26 118.52 24.48 118.52H20.72V123.08C20.72 123.413 20.6333 123.673 20.46 123.86C20.2867 124.047 20.0267 124.14 19.68 124.14ZM20.72 116.86H24.18C25.18 116.86 25.9333 116.64 26.44 116.2C26.96 115.747 27.22 115.08 27.22 114.2C27.22 113.333 26.96 112.68 26.44 112.24C25.9333 111.787 25.18 111.56 24.18 111.56H20.72V116.86ZM35.0233 124.18C34.0366 124.18 33.1833 123.973 32.4633 123.56C31.7566 123.147 31.2033 122.56 30.8033 121.8C30.4033 121.04 30.2033 120.147 30.2033 119.12C30.2033 118.333 30.3166 117.633 30.5433 117.02C30.7699 116.407 31.0899 115.88 31.5033 115.44C31.9299 114.987 32.4366 114.647 33.0233 114.42C33.6233 114.18 34.2899 114.06 35.0233 114.06C35.9966 114.06 36.8366 114.267 37.5433 114.68C38.2633 115.093 38.8233 115.68 39.2233 116.44C39.6233 117.187 39.8233 118.08 39.8233 119.12C39.8233 119.893 39.7099 120.593 39.4833 121.22C39.2566 121.847 38.9299 122.38 38.5033 122.82C38.0899 123.26 37.5833 123.6 36.9833 123.84C36.3966 124.067 35.7433 124.18 35.0233 124.18ZM35.0233 122.62C35.5699 122.62 36.0499 122.487 36.4633 122.22C36.8766 121.953 37.1966 121.56 37.4233 121.04C37.6633 120.52 37.7833 119.88 37.7833 119.12C37.7833 117.973 37.5299 117.107 37.0233 116.52C36.5166 115.933 35.8499 115.64 35.0233 115.64C34.4633 115.64 33.9766 115.773 33.5633 116.04C33.1499 116.293 32.8233 116.68 32.5833 117.2C32.3566 117.72 32.2433 118.36 32.2433 119.12C32.2433 120.253 32.4966 121.12 33.0033 121.72C33.5099 122.32 34.1833 122.62 35.0233 122.62ZM45.5119 124.18C44.9252 124.18 44.3185 124.113 43.6919 123.98C43.0785 123.847 42.5119 123.62 41.9919 123.3C41.8185 123.18 41.6985 123.047 41.6319 122.9C41.5652 122.753 41.5385 122.607 41.5519 122.46C41.5785 122.3 41.6385 122.167 41.7319 122.06C41.8385 121.94 41.9652 121.867 42.1119 121.84C42.2719 121.813 42.4385 121.847 42.6119 121.94C43.1319 122.233 43.6319 122.44 44.1119 122.56C44.5919 122.667 45.0652 122.72 45.5319 122.72C46.2385 122.72 46.7719 122.593 47.1319 122.34C47.4919 122.087 47.6719 121.747 47.6719 121.32C47.6719 120.973 47.5519 120.707 47.3119 120.52C47.0719 120.32 46.7119 120.167 46.2319 120.06L44.3319 119.68C43.5052 119.507 42.8785 119.2 42.4519 118.76C42.0252 118.32 41.8119 117.76 41.8119 117.08C41.8119 116.467 41.9785 115.933 42.3119 115.48C42.6452 115.027 43.1119 114.68 43.7119 114.44C44.3119 114.187 45.0052 114.06 45.7919 114.06C46.3785 114.06 46.9319 114.133 47.4519 114.28C47.9719 114.427 48.4519 114.647 48.8919 114.94C49.0652 115.033 49.1785 115.16 49.2319 115.32C49.2852 115.467 49.2919 115.613 49.2519 115.76C49.2252 115.907 49.1585 116.04 49.0519 116.16C48.9452 116.267 48.8119 116.333 48.6519 116.36C48.5052 116.373 48.3385 116.333 48.1519 116.24C47.7519 115.987 47.3519 115.807 46.9519 115.7C46.5652 115.593 46.1785 115.54 45.7919 115.54C45.0852 115.54 44.5519 115.673 44.1919 115.94C43.8452 116.193 43.6719 116.54 43.6719 116.98C43.6719 117.313 43.7785 117.587 43.9919 117.8C44.2052 118.013 44.5385 118.167 44.9919 118.26L46.8919 118.64C47.7585 118.813 48.4119 119.107 48.8519 119.52C49.3052 119.933 49.5319 120.493 49.5319 121.2C49.5319 122.12 49.1652 122.847 48.4319 123.38C47.6985 123.913 46.7252 124.18 45.5119 124.18ZM55.8417 124.18C55.0417 124.18 54.3684 124.04 53.8217 123.76C53.2751 123.48 52.8684 123.067 52.6017 122.52C52.3351 121.973 52.2017 121.307 52.2017 120.52V115.8H51.0017C50.7351 115.8 50.5284 115.733 50.3817 115.6C50.2351 115.453 50.1617 115.26 50.1617 115.02C50.1617 114.767 50.2351 114.573 50.3817 114.44C50.5284 114.307 50.7351 114.24 51.0017 114.24H52.2017V112.18C52.2017 111.847 52.2884 111.593 52.4617 111.42C52.6484 111.247 52.9017 111.16 53.2217 111.16C53.5417 111.16 53.7884 111.247 53.9617 111.42C54.1351 111.593 54.2217 111.847 54.2217 112.18V114.24H56.5617C56.8284 114.24 57.0351 114.307 57.1817 114.44C57.3284 114.573 57.4017 114.767 57.4017 115.02C57.4017 115.26 57.3284 115.453 57.1817 115.6C57.0351 115.733 56.8284 115.8 56.5617 115.8H54.2217V120.36C54.2217 121.067 54.3684 121.6 54.6617 121.96C54.9684 122.32 55.4617 122.5 56.1417 122.5C56.3817 122.5 56.5884 122.48 56.7617 122.44C56.9484 122.387 57.1017 122.353 57.2217 122.34C57.3684 122.34 57.4884 122.393 57.5817 122.5C57.6751 122.593 57.7217 122.78 57.7217 123.06C57.7217 123.26 57.6817 123.447 57.6017 123.62C57.5351 123.793 57.4084 123.907 57.2217 123.96C57.0617 124.013 56.8417 124.06 56.5617 124.1C56.2951 124.153 56.0551 124.18 55.8417 124.18ZM62.4064 124.18C61.8197 124.18 61.2131 124.113 60.5864 123.98C59.9731 123.847 59.4064 123.62 58.8864 123.3C58.7131 123.18 58.5931 123.047 58.5264 122.9C58.4597 122.753 58.4331 122.607 58.4464 122.46C58.4731 122.3 58.5331 122.167 58.6264 122.06C58.7331 121.94 58.8597 121.867 59.0064 121.84C59.1664 121.813 59.3331 121.847 59.5064 121.94C60.0264 122.233 60.5264 122.44 61.0064 122.56C61.4864 122.667 61.9597 122.72 62.4264 122.72C63.1331 122.72 63.6664 122.593 64.0264 122.34C64.3864 122.087 64.5664 121.747 64.5664 121.32C64.5664 120.973 64.4464 120.707 64.2064 120.52C63.9664 120.32 63.6064 120.167 63.1264 120.06L61.2264 119.68C60.3997 119.507 59.7731 119.2 59.3464 118.76C58.9197 118.32 58.7064 117.76 58.7064 117.08C58.7064 116.467 58.8731 115.933 59.2064 115.48C59.5397 115.027 60.0064 114.68 60.6064 114.44C61.2064 114.187 61.8997 114.06 62.6864 114.06C63.2731 114.06 63.8264 114.133 64.3464 114.28C64.8664 114.427 65.3464 114.647 65.7864 114.94C65.9597 115.033 66.0731 115.16 66.1264 115.32C66.1797 115.467 66.1864 115.613 66.1464 115.76C66.1197 115.907 66.0531 116.04 65.9464 116.16C65.8397 116.267 65.7064 116.333 65.5464 116.36C65.3997 116.373 65.2331 116.333 65.0464 116.24C64.6464 115.987 64.2464 115.807 63.8464 115.7C63.4597 115.593 63.0731 115.54 62.6864 115.54C61.9797 115.54 61.4464 115.673 61.0864 115.94C60.7397 116.193 60.5664 116.54 60.5664 116.98C60.5664 117.313 60.6731 117.587 60.8864 117.8C61.0997 118.013 61.4331 118.167 61.8864 118.26L63.7864 118.64C64.6531 118.813 65.3064 119.107 65.7464 119.52C66.1997 119.933 66.4264 120.493 66.4264 121.2C66.4264 122.12 66.0597 122.847 65.3264 123.38C64.5931 123.913 63.6197 124.18 62.4064 124.18Z" fill="#0A0A0B"/>
<g filter="url(#filter0_d_2_111)">
<path d="M54.7441 16.8517L29.2046 48.0559L38.3234 57.1747L69.5274 31.6351C74.3366 27.699 74.6966 20.4714 70.3023 16.077C65.908 11.6827 58.6804 12.0426 54.7441 16.8517Z" fill="#D4E2F0" stroke="#286FB4" stroke-width="5" stroke-linecap="round" stroke-linejoin="round"/>
<path d="M37.2619 68.6778C38.6028 67.4419 39.673 65.9415 40.4051 64.2709C41.1371 62.6007 41.5151 60.7966 41.5151 58.973C41.5151 57.1494 41.1371 55.3455 40.4051 53.6752C39.673 52.0048 38.6028 50.5043 37.2619 49.2684C36.0259 47.9274 34.5254 46.8572 32.855 46.1251C31.1847 45.3931 29.3808 45.0152 27.5571 45.0152C25.7334 45.0152 23.9295 45.3931 22.2592 46.1251C20.5889 46.8572 19.0884 47.9274 17.8524 49.2684C13 54.1207 13 73.5302 13 73.5302C13 73.5302 32.4095 73.5302 37.2619 68.6778Z" fill="#F3F7FB" stroke="#286FB4" stroke-width="5" stroke-linecap="round" stroke-linejoin="round"/>
<path d="M13 73.5302L24.4333 62.097" stroke="#286FB4" stroke-width="5" stroke-linecap="round" stroke-linejoin="round"/>
</g>
<defs>
<filter id="filter0_d_2_111" x="0.5" y="0.499969" width="101.379" height="101.53" filterUnits="userSpaceOnUse" color-interpolation-filters="sRGB">
<feFlood flood-opacity="0" result="BackgroundImageFix"/>
<feColorMatrix in="SourceAlpha" type="matrix" values="0 0 0 0 0 0 0 0 0 0 0 0 0 0 0 0 0 0 127 0" result="hardAlpha"/>
<feOffset dx="8" dy="8"/>
<feGaussianBlur stdDeviation="9"/>
<feComposite in2="hardAlpha" operator="out"/>
<feColorMatrix type="matrix" values="0 0 0 0 0.156863 0 0 0 0 0.435294 0 0 0 0 0.705882 0 0 0 0.2 0"/>
<feBlend mode="normal" in2="BackgroundImageFix" result="effect1_dropShadow_2_111"/>
<feBlend mode="normal" in="SourceGraphic" in2="effect1_dropShadow_2_111" result="shape"/>
</filter>
</defs>
</svg>
