<svg width="102" height="132" viewBox="0 0 102 132" fill="none" xmlns="http://www.w3.org/2000/svg">
<path d="M5.68 125.14C5.34667 125.14 5.08667 125.047 4.9 124.86C4.72667 124.673 4.64 124.413 4.64 124.08V111.96C4.64 111.613 4.73333 111.353 4.92 111.18C5.10667 110.993 5.36667 110.9 5.7 110.9H10.48C12 110.9 13.1733 111.28 14 112.04C14.8267 112.787 15.24 113.84 15.24 115.2C15.24 116.573 14.8267 117.64 14 118.4C13.1733 119.147 12 119.52 10.48 119.52H6.72V124.08C6.72 124.413 6.63333 124.673 6.46 124.86C6.28667 125.047 6.02667 125.14 5.68 125.14ZM6.72 117.86H10.18C11.18 117.86 11.9333 117.64 12.44 117.2C12.96 116.747 13.22 116.08 13.22 115.2C13.22 114.333 12.96 113.68 12.44 113.24C11.9333 112.787 11.18 112.56 10.18 112.56H6.72V117.86ZM18.0767 125.14C17.7434 125.14 17.4901 125.053 17.3167 124.88C17.1434 124.693 17.0567 124.44 17.0567 124.12V116.12C17.0567 115.787 17.1434 115.533 17.3167 115.36C17.4901 115.187 17.7301 115.1 18.0367 115.1C18.3567 115.1 18.5967 115.187 18.7567 115.36C18.9301 115.533 19.0167 115.787 19.0167 116.12V117.58H18.8167C19.0301 116.78 19.4234 116.173 19.9967 115.76C20.5701 115.347 21.3034 115.107 22.1967 115.04C22.4367 115.027 22.6234 115.087 22.7567 115.22C22.9034 115.353 22.9834 115.56 22.9967 115.84C23.0234 116.12 22.9634 116.347 22.8167 116.52C22.6701 116.68 22.4434 116.773 22.1367 116.8L21.7567 116.84C20.8901 116.92 20.2301 117.193 19.7767 117.66C19.3234 118.127 19.0967 118.767 19.0967 119.58V124.12C19.0967 124.44 19.0101 124.693 18.8367 124.88C18.6767 125.053 18.4234 125.14 18.0767 125.14ZM28.6209 125.18C27.6343 125.18 26.7809 124.973 26.0609 124.56C25.3543 124.147 24.8009 123.56 24.4009 122.8C24.0009 122.04 23.8009 121.147 23.8009 120.12C23.8009 119.333 23.9143 118.633 24.1409 118.02C24.3676 117.407 24.6876 116.88 25.1009 116.44C25.5276 115.987 26.0343 115.647 26.6209 115.42C27.2209 115.18 27.8876 115.06 28.6209 115.06C29.5943 115.06 30.4343 115.267 31.1409 115.68C31.8609 116.093 32.4209 116.68 32.8209 117.44C33.2209 118.187 33.4209 119.08 33.4209 120.12C33.4209 120.893 33.3076 121.593 33.0809 122.22C32.8543 122.847 32.5276 123.38 32.1009 123.82C31.6876 124.26 31.1809 124.6 30.5809 124.84C29.9943 125.067 29.3409 125.18 28.6209 125.18ZM28.6209 123.62C29.1676 123.62 29.6476 123.487 30.0609 123.22C30.4743 122.953 30.7943 122.56 31.0209 122.04C31.2609 121.52 31.3809 120.88 31.3809 120.12C31.3809 118.973 31.1276 118.107 30.6209 117.52C30.1143 116.933 29.4476 116.64 28.6209 116.64C28.0609 116.64 27.5743 116.773 27.1609 117.04C26.7476 117.293 26.4209 117.68 26.1809 118.2C25.9543 118.72 25.8409 119.36 25.8409 120.12C25.8409 121.253 26.0943 122.12 26.6009 122.72C27.1076 123.32 27.7809 123.62 28.6209 123.62ZM39.4095 125.18C38.5562 125.18 37.8029 124.98 37.1495 124.58C36.5095 124.167 36.0095 123.58 35.6495 122.82C35.2895 122.047 35.1095 121.147 35.1095 120.12C35.1095 119.067 35.2895 118.167 35.6495 117.42C36.0095 116.673 36.5095 116.093 37.1495 115.68C37.8029 115.267 38.5562 115.06 39.4095 115.06C40.2629 115.06 40.9962 115.273 41.6095 115.7C42.2362 116.113 42.6562 116.673 42.8695 117.38H42.6495V111.78C42.6495 111.447 42.7362 111.193 42.9095 111.02C43.0829 110.847 43.3295 110.76 43.6495 110.76C43.9695 110.76 44.2162 110.847 44.3895 111.02C44.5762 111.193 44.6695 111.447 44.6695 111.78V124.12C44.6695 124.44 44.5829 124.693 44.4095 124.88C44.2362 125.053 43.9895 125.14 43.6695 125.14C43.3495 125.14 43.1029 125.053 42.9295 124.88C42.7562 124.693 42.6695 124.44 42.6695 124.12V122.36L42.8895 122.8C42.6762 123.52 42.2562 124.1 41.6295 124.54C41.0162 124.967 40.2762 125.18 39.4095 125.18ZM39.9295 123.62C40.4762 123.62 40.9562 123.487 41.3695 123.22C41.7829 122.953 42.1029 122.56 42.3295 122.04C42.5695 121.52 42.6895 120.88 42.6895 120.12C42.6895 118.973 42.4362 118.107 41.9295 117.52C41.4229 116.933 40.7562 116.64 39.9295 116.64C39.3695 116.64 38.8829 116.773 38.4695 117.04C38.0562 117.293 37.7295 117.68 37.4895 118.2C37.2629 118.72 37.1495 119.36 37.1495 120.12C37.1495 121.253 37.4029 122.12 37.9095 122.72C38.4162 123.32 39.0895 123.62 39.9295 123.62ZM50.9859 125.18C50.1993 125.18 49.5393 125.033 49.0059 124.74C48.4859 124.447 48.0926 124.013 47.8259 123.44C47.5726 122.853 47.4459 122.12 47.4459 121.24V116.12C47.4459 115.773 47.5326 115.52 47.7059 115.36C47.8793 115.187 48.1259 115.1 48.4459 115.1C48.7659 115.1 49.0126 115.187 49.1859 115.36C49.3726 115.52 49.4659 115.773 49.4659 116.12V121.26C49.4659 122.047 49.6259 122.627 49.9459 123C50.2659 123.373 50.7726 123.56 51.4659 123.56C52.2259 123.56 52.8393 123.307 53.3059 122.8C53.7859 122.28 54.0259 121.6 54.0259 120.76V116.12C54.0259 115.773 54.1126 115.52 54.2859 115.36C54.4593 115.187 54.7126 115.1 55.0459 115.1C55.3659 115.1 55.6126 115.187 55.7859 115.36C55.9593 115.52 56.0459 115.773 56.0459 116.12V124.12C56.0459 124.8 55.7193 125.14 55.0659 125.14C54.7593 125.14 54.5193 125.053 54.3459 124.88C54.1726 124.693 54.0859 124.44 54.0859 124.12V122.42L54.3459 122.86C54.0793 123.607 53.6526 124.18 53.0659 124.58C52.4793 124.98 51.7859 125.18 50.9859 125.18ZM63.1927 125.18C62.1927 125.18 61.326 124.973 60.5927 124.56C59.8727 124.133 59.3127 123.54 58.9127 122.78C58.5127 122.007 58.3127 121.1 58.3127 120.06C58.3127 119.287 58.426 118.593 58.6527 117.98C58.8793 117.353 59.1993 116.827 59.6127 116.4C60.0393 115.973 60.5527 115.647 61.1527 115.42C61.766 115.18 62.446 115.06 63.1927 115.06C63.6593 115.06 64.146 115.133 64.6527 115.28C65.1727 115.413 65.6527 115.64 66.0927 115.96C66.266 116.067 66.3727 116.2 66.4127 116.36C66.466 116.507 66.4727 116.66 66.4327 116.82C66.406 116.98 66.3327 117.12 66.2127 117.24C66.106 117.347 65.9727 117.413 65.8127 117.44C65.6527 117.453 65.4793 117.407 65.2927 117.3C64.9727 117.073 64.646 116.913 64.3127 116.82C63.9793 116.713 63.6593 116.66 63.3527 116.66C62.8727 116.66 62.446 116.74 62.0727 116.9C61.7127 117.047 61.406 117.267 61.1527 117.56C60.8993 117.84 60.706 118.193 60.5727 118.62C60.4527 119.047 60.3927 119.533 60.3927 120.08C60.3927 121.173 60.646 122.033 61.1527 122.66C61.6727 123.273 62.406 123.58 63.3527 123.58C63.6593 123.58 63.9793 123.533 64.3127 123.44C64.646 123.347 64.9727 123.187 65.2927 122.96C65.4793 122.853 65.6527 122.813 65.8127 122.84C65.9727 122.867 66.0993 122.94 66.1927 123.06C66.2993 123.167 66.366 123.3 66.3927 123.46C66.4327 123.607 66.426 123.76 66.3727 123.92C66.3193 124.08 66.206 124.213 66.0327 124.32C65.606 124.627 65.1393 124.847 64.6327 124.98C64.1393 125.113 63.6593 125.18 63.1927 125.18ZM72.4081 125.18C71.6081 125.18 70.9348 125.04 70.3881 124.76C69.8415 124.48 69.4348 124.067 69.1681 123.52C68.9015 122.973 68.7681 122.307 68.7681 121.52V116.8H67.5681C67.3015 116.8 67.0948 116.733 66.9481 116.6C66.8015 116.453 66.7281 116.26 66.7281 116.02C66.7281 115.767 66.8015 115.573 66.9481 115.44C67.0948 115.307 67.3015 115.24 67.5681 115.24H68.7681V113.18C68.7681 112.847 68.8548 112.593 69.0281 112.42C69.2148 112.247 69.4681 112.16 69.7881 112.16C70.1081 112.16 70.3548 112.247 70.5281 112.42C70.7015 112.593 70.7881 112.847 70.7881 113.18V115.24H73.1281C73.3948 115.24 73.6015 115.307 73.7481 115.44C73.8948 115.573 73.9681 115.767 73.9681 116.02C73.9681 116.26 73.8948 116.453 73.7481 116.6C73.6015 116.733 73.3948 116.8 73.1281 116.8H70.7881V121.36C70.7881 122.067 70.9348 122.6 71.2281 122.96C71.5348 123.32 72.0281 123.5 72.7081 123.5C72.9481 123.5 73.1548 123.48 73.3281 123.44C73.5148 123.387 73.6681 123.353 73.7881 123.34C73.9348 123.34 74.0548 123.393 74.1481 123.5C74.2415 123.593 74.2881 123.78 74.2881 124.06C74.2881 124.26 74.2481 124.447 74.1681 124.62C74.1015 124.793 73.9748 124.907 73.7881 124.96C73.6281 125.013 73.4081 125.06 73.1281 125.1C72.8615 125.153 72.6215 125.18 72.4081 125.18ZM78.9728 125.18C78.3861 125.18 77.7795 125.113 77.1528 124.98C76.5395 124.847 75.9728 124.62 75.4528 124.3C75.2795 124.18 75.1595 124.047 75.0928 123.9C75.0261 123.753 74.9995 123.607 75.0128 123.46C75.0395 123.3 75.0995 123.167 75.1928 123.06C75.2995 122.94 75.4261 122.867 75.5728 122.84C75.7328 122.813 75.8995 122.847 76.0728 122.94C76.5928 123.233 77.0928 123.44 77.5728 123.56C78.0528 123.667 78.5261 123.72 78.9928 123.72C79.6995 123.72 80.2328 123.593 80.5928 123.34C80.9528 123.087 81.1328 122.747 81.1328 122.32C81.1328 121.973 81.0128 121.707 80.7728 121.52C80.5328 121.32 80.1728 121.167 79.6928 121.06L77.7928 120.68C76.9661 120.507 76.3395 120.2 75.9128 119.76C75.4861 119.32 75.2728 118.76 75.2728 118.08C75.2728 117.467 75.4395 116.933 75.7728 116.48C76.1061 116.027 76.5728 115.68 77.1728 115.44C77.7728 115.187 78.4661 115.06 79.2528 115.06C79.8395 115.06 80.3928 115.133 80.9128 115.28C81.4328 115.427 81.9128 115.647 82.3528 115.94C82.5261 116.033 82.6395 116.16 82.6928 116.32C82.7461 116.467 82.7528 116.613 82.7128 116.76C82.6861 116.907 82.6195 117.04 82.5128 117.16C82.4061 117.267 82.2728 117.333 82.1128 117.36C81.9661 117.373 81.7995 117.333 81.6128 117.24C81.2128 116.987 80.8128 116.807 80.4128 116.7C80.0261 116.593 79.6395 116.54 79.2528 116.54C78.5461 116.54 78.0128 116.673 77.6528 116.94C77.3061 117.193 77.1328 117.54 77.1328 117.98C77.1328 118.313 77.2395 118.587 77.4528 118.8C77.6661 119.013 77.9995 119.167 78.4528 119.26L80.3528 119.64C81.2195 119.813 81.8728 120.107 82.3128 120.52C82.7661 120.933 82.9928 121.493 82.9928 122.2C82.9928 123.12 82.6261 123.847 81.8928 124.38C81.1595 124.913 80.1861 125.18 78.9728 125.18Z" fill="#0A0A0B"/>
<g filter="url(#filter0_d_2_110)">
<path d="M73.3788 48.1938C73.3788 56.2634 72.3298 65.7873 71.5187 73.8291C71.254 76.4517 69.1707 78.535 66.5426 78.7375C50.5866 79.9666 35.7924 79.9666 19.8364 78.7375C17.2082 78.535 15.1252 76.4517 14.8605 73.8291C14.0491 65.7873 13 56.2634 13 48.1938H73.3788Z" fill="#F3F7FB" stroke="#286FB4" stroke-width="5" stroke-linejoin="round"/>
<path d="M73.3788 48.1938C73.3788 41.7614 63.8338 28.0844 63.8338 28.0844H22.5454C22.5454 28.0844 13 41.7614 13 48.1938H73.3788Z" fill="#F3F7FB" stroke="#286FB4" stroke-width="5" stroke-linejoin="round"/>
<path d="M43.219 13C37.5295 13 31.9952 13.2454 26.6896 13.4506C24.2665 13.5443 22.1675 15.2215 22.0292 17.6424C21.7433 22.6458 22.6009 28.0844 22.6009 28.0844H63.8371C63.8371 28.0844 64.6946 22.6458 64.4086 17.6424C64.2705 15.2215 62.1713 13.5443 59.7485 13.4506C54.4429 13.2454 48.9086 13 43.219 13Z" fill="#F3F7FB" stroke="#286FB4" stroke-width="5" stroke-linejoin="round"/>
<path d="M63.8339 28.0844C63.8339 28.0844 73.3793 41.7614 73.3793 48.1938H50.1096C51.1154 40.9632 59.5575 28.0844 59.5575 28.0844H63.8339Z" fill="#D4E2F0" stroke="#286FB4" stroke-width="5" stroke-linejoin="round"/>
<path d="M71.737 71.6803C72.5061 64.1275 73.3788 55.5555 73.3788 48.1939L50.012 48.1938C50.012 55.873 50.9111 64.8147 51.7032 72.6933C51.7252 72.9127 51.8641 74.3596 52.072 76.527C52.1571 77.4134 52.2537 78.4209 52.3587 79.5142C57.0239 79.3668 61.7309 79.1081 66.5437 78.7375C69.1718 78.535 71.254 76.4506 71.5187 73.828C71.5897 73.1229 71.6628 72.4062 71.737 71.6803Z" fill="#D4E2F0" stroke="#286FB4" stroke-width="5" stroke-linejoin="round"/>
</g>
<defs>
<filter id="filter0_d_2_110" x="0.5" y="0.5" width="101.379" height="107.659" filterUnits="userSpaceOnUse" color-interpolation-filters="sRGB">
<feFlood flood-opacity="0" result="BackgroundImageFix"/>
<feColorMatrix in="SourceAlpha" type="matrix" values="0 0 0 0 0 0 0 0 0 0 0 0 0 0 0 0 0 0 127 0" result="hardAlpha"/>
<feOffset dx="8" dy="8"/>
<feGaussianBlur stdDeviation="9"/>
<feComposite in2="hardAlpha" operator="out"/>
<feColorMatrix type="matrix" values="0 0 0 0 0.156863 0 0 0 0 0.435294 0 0 0 0 0.705882 0 0 0 0.2 0"/>
<feBlend mode="normal" in2="BackgroundImageFix" result="effect1_dropShadow_2_110"/>
<feBlend mode="normal" in="SourceGraphic" in2="effect1_dropShadow_2_110" result="shape"/>
</filter>
</defs>
</svg>
