<svg width="160" height="160" viewBox="0 0 160 160" fill="none" xmlns="http://www.w3.org/2000/svg">
<circle cx="80" cy="80" r="80" fill="#D9D9D9"/>
<path d="M79.9728 79.9689C93.2204 79.9689 103.957 69.2321 103.957 55.9844C103.957 42.7368 93.2204 32 79.9728 32C66.7251 32 55.9883 42.7368 55.9883 55.9844C55.9883 69.2321 66.7251 79.9689 79.9728 79.9689ZM97.9236 86.0774L88.9669 121.942L82.9708 96.4582L88.9669 85.965H70.9786L76.9747 96.4582L70.9786 121.942L62.0219 86.0774C48.6618 86.7145 38 97.6386 38 111.149V118.944C38 123.909 42.0286 127.938 46.9942 127.938H112.951C117.917 127.938 121.946 123.909 121.946 118.944V111.149C121.946 97.6386 111.284 86.7145 97.9236 86.0774V86.0774Z" fill="#205696"/>
</svg>
