<svg width="108" height="130" viewBox="0 0 108 130" fill="none" xmlns="http://www.w3.org/2000/svg">
<path d="M2.68 123.14C2.34667 123.14 2.08667 123.047 1.9 122.86C1.72667 122.673 1.64 122.413 1.64 122.08V109.96C1.64 109.613 1.73333 109.353 1.92 109.18C2.10667 108.993 2.36667 108.9 2.7 108.9H7.48C9 108.9 10.1733 109.28 11 110.04C11.8267 110.787 12.24 111.84 12.24 113.2C12.24 114.573 11.8267 115.64 11 116.4C10.1733 117.147 9 117.52 7.48 117.52H3.72V122.08C3.72 122.413 3.63333 122.673 3.46 122.86C3.28667 123.047 3.02667 123.14 2.68 123.14ZM3.72 115.86H7.18C8.18 115.86 8.93333 115.64 9.44 115.2C9.96 114.747 10.22 114.08 10.22 113.2C10.22 112.333 9.96 111.68 9.44 111.24C8.93333 110.787 8.18 110.56 7.18 110.56H3.72V115.86ZM15.0767 123.14C14.7434 123.14 14.4901 123.053 14.3167 122.88C14.1434 122.693 14.0567 122.44 14.0567 122.12V114.12C14.0567 113.787 14.1434 113.533 14.3167 113.36C14.4901 113.187 14.7301 113.1 15.0367 113.1C15.3567 113.1 15.5967 113.187 15.7567 113.36C15.9301 113.533 16.0167 113.787 16.0167 114.12V115.58H15.8167C16.0301 114.78 16.4234 114.173 16.9967 113.76C17.5701 113.347 18.3034 113.107 19.1967 113.04C19.4367 113.027 19.6234 113.087 19.7567 113.22C19.9034 113.353 19.9834 113.56 19.9967 113.84C20.0234 114.12 19.9634 114.347 19.8167 114.52C19.6701 114.68 19.4434 114.773 19.1367 114.8L18.7567 114.84C17.8901 114.92 17.2301 115.193 16.7767 115.66C16.3234 116.127 16.0967 116.767 16.0967 117.58V122.12C16.0967 122.44 16.0101 122.693 15.8367 122.88C15.6767 123.053 15.4234 123.14 15.0767 123.14ZM25.6209 123.18C24.6343 123.18 23.7809 122.973 23.0609 122.56C22.3543 122.147 21.8009 121.56 21.4009 120.8C21.0009 120.04 20.8009 119.147 20.8009 118.12C20.8009 117.333 20.9143 116.633 21.1409 116.02C21.3676 115.407 21.6876 114.88 22.1009 114.44C22.5276 113.987 23.0343 113.647 23.6209 113.42C24.2209 113.18 24.8876 113.06 25.6209 113.06C26.5943 113.06 27.4343 113.267 28.1409 113.68C28.8609 114.093 29.4209 114.68 29.8209 115.44C30.2209 116.187 30.4209 117.08 30.4209 118.12C30.4209 118.893 30.3076 119.593 30.0809 120.22C29.8543 120.847 29.5276 121.38 29.1009 121.82C28.6876 122.26 28.1809 122.6 27.5809 122.84C26.9943 123.067 26.3409 123.18 25.6209 123.18ZM25.6209 121.62C26.1676 121.62 26.6476 121.487 27.0609 121.22C27.4743 120.953 27.7943 120.56 28.0209 120.04C28.2609 119.52 28.3809 118.88 28.3809 118.12C28.3809 116.973 28.1276 116.107 27.6209 115.52C27.1143 114.933 26.4476 114.64 25.6209 114.64C25.0609 114.64 24.5743 114.773 24.1609 115.04C23.7476 115.293 23.4209 115.68 23.1809 116.2C22.9543 116.72 22.8409 117.36 22.8409 118.12C22.8409 119.253 23.0943 120.12 23.6009 120.72C24.1076 121.32 24.7809 121.62 25.6209 121.62ZM33.7295 123.14C33.4095 123.14 33.1629 123.053 32.9895 122.88C32.8162 122.693 32.7295 122.44 32.7295 122.12V114.12C32.7295 113.787 32.8162 113.533 32.9895 113.36C33.1629 113.187 33.4029 113.1 33.7095 113.1C34.0295 113.1 34.2695 113.187 34.4295 113.36C34.6029 113.533 34.6895 113.787 34.6895 114.12V115.76L34.4695 115.32C34.7362 114.613 35.1495 114.06 35.7095 113.66C36.2695 113.26 36.9429 113.06 37.7295 113.06C38.5429 113.06 39.2029 113.253 39.7095 113.64C40.2162 114.027 40.5629 114.62 40.7495 115.42H40.4695C40.7229 114.687 41.1562 114.113 41.7695 113.7C42.3829 113.273 43.0962 113.06 43.9095 113.06C44.6562 113.06 45.2695 113.207 45.7495 113.5C46.2295 113.78 46.5895 114.213 46.8295 114.8C47.0695 115.373 47.1895 116.1 47.1895 116.98V122.12C47.1895 122.44 47.0962 122.693 46.9095 122.88C46.7362 123.053 46.4895 123.14 46.1695 123.14C45.8495 123.14 45.6029 123.053 45.4295 122.88C45.2562 122.693 45.1695 122.44 45.1695 122.12V117.08C45.1695 116.253 45.0229 115.647 44.7295 115.26C44.4495 114.873 43.9829 114.68 43.3295 114.68C42.5962 114.68 42.0162 114.933 41.5895 115.44C41.1629 115.947 40.9495 116.647 40.9495 117.54V122.12C40.9495 122.44 40.8629 122.693 40.6895 122.88C40.5162 123.053 40.2695 123.14 39.9495 123.14C39.6295 123.14 39.3762 123.053 39.1895 122.88C39.0162 122.693 38.9295 122.44 38.9295 122.12V117.08C38.9295 116.253 38.7895 115.647 38.5095 115.26C38.2295 114.873 37.7629 114.68 37.1095 114.68C36.3762 114.68 35.7962 114.933 35.3695 115.44C34.9562 115.947 34.7495 116.647 34.7495 117.54V122.12C34.7495 122.8 34.4095 123.14 33.7295 123.14ZM54.2538 123.18C53.2671 123.18 52.4138 122.973 51.6938 122.56C50.9871 122.147 50.4338 121.56 50.0338 120.8C49.6338 120.04 49.4338 119.147 49.4338 118.12C49.4338 117.333 49.5471 116.633 49.7738 116.02C50.0004 115.407 50.3204 114.88 50.7338 114.44C51.1604 113.987 51.6671 113.647 52.2538 113.42C52.8538 113.18 53.5204 113.06 54.2538 113.06C55.2271 113.06 56.0671 113.267 56.7738 113.68C57.4938 114.093 58.0538 114.68 58.4538 115.44C58.8538 116.187 59.0538 117.08 59.0538 118.12C59.0538 118.893 58.9404 119.593 58.7138 120.22C58.4871 120.847 58.1604 121.38 57.7338 121.82C57.3204 122.26 56.8138 122.6 56.2138 122.84C55.6271 123.067 54.9738 123.18 54.2538 123.18ZM54.2538 121.62C54.8004 121.62 55.2804 121.487 55.6938 121.22C56.1071 120.953 56.4271 120.56 56.6538 120.04C56.8938 119.52 57.0138 118.88 57.0138 118.12C57.0138 116.973 56.7604 116.107 56.2538 115.52C55.7471 114.933 55.0804 114.64 54.2538 114.64C53.6938 114.64 53.2071 114.773 52.7938 115.04C52.3804 115.293 52.0538 115.68 51.8138 116.2C51.5871 116.72 51.4738 117.36 51.4738 118.12C51.4738 119.253 51.7271 120.12 52.2338 120.72C52.7404 121.32 53.4138 121.62 54.2538 121.62ZM65.3847 123.18C64.5847 123.18 63.9114 123.04 63.3647 122.76C62.818 122.48 62.4114 122.067 62.1447 121.52C61.878 120.973 61.7447 120.307 61.7447 119.52V114.8H60.5447C60.278 114.8 60.0714 114.733 59.9247 114.6C59.778 114.453 59.7047 114.26 59.7047 114.02C59.7047 113.767 59.778 113.573 59.9247 113.44C60.0714 113.307 60.278 113.24 60.5447 113.24H61.7447V111.18C61.7447 110.847 61.8314 110.593 62.0047 110.42C62.1914 110.247 62.4447 110.16 62.7647 110.16C63.0847 110.16 63.3314 110.247 63.5047 110.42C63.678 110.593 63.7647 110.847 63.7647 111.18V113.24H66.1047C66.3714 113.24 66.578 113.307 66.7247 113.44C66.8714 113.573 66.9447 113.767 66.9447 114.02C66.9447 114.26 66.8714 114.453 66.7247 114.6C66.578 114.733 66.3714 114.8 66.1047 114.8H63.7647V119.36C63.7647 120.067 63.9114 120.6 64.2047 120.96C64.5114 121.32 65.0047 121.5 65.6847 121.5C65.9247 121.5 66.1314 121.48 66.3047 121.44C66.4914 121.387 66.6447 121.353 66.7647 121.34C66.9114 121.34 67.0314 121.393 67.1247 121.5C67.218 121.593 67.2647 121.78 67.2647 122.06C67.2647 122.26 67.2247 122.447 67.1447 122.62C67.078 122.793 66.9514 122.907 66.7647 122.96C66.6047 123.013 66.3847 123.06 66.1047 123.1C65.838 123.153 65.598 123.18 65.3847 123.18ZM69.7052 123.12C69.3852 123.12 69.1385 123.027 68.9652 122.84C68.7918 122.64 68.7052 122.367 68.7052 122.02V114.22C68.7052 113.873 68.7918 113.607 68.9652 113.42C69.1385 113.233 69.3852 113.14 69.7052 113.14C70.0252 113.14 70.2718 113.233 70.4452 113.42C70.6318 113.607 70.7252 113.873 70.7252 114.22V122.02C70.7252 122.367 70.6385 122.64 70.4652 122.84C70.2918 123.027 70.0385 123.12 69.7052 123.12ZM69.7052 111.06C69.3052 111.06 68.9918 110.96 68.7652 110.76C68.5518 110.56 68.4452 110.28 68.4452 109.92C68.4452 109.547 68.5518 109.267 68.7652 109.08C68.9918 108.88 69.3052 108.78 69.7052 108.78C70.1052 108.78 70.4118 108.88 70.6252 109.08C70.8518 109.267 70.9652 109.547 70.9652 109.92C70.9652 110.28 70.8518 110.56 70.6252 110.76C70.4118 110.96 70.1052 111.06 69.7052 111.06ZM77.8084 123.18C76.8218 123.18 75.9684 122.973 75.2484 122.56C74.5418 122.147 73.9884 121.56 73.5884 120.8C73.1884 120.04 72.9884 119.147 72.9884 118.12C72.9884 117.333 73.1018 116.633 73.3284 116.02C73.5551 115.407 73.8751 114.88 74.2884 114.44C74.7151 113.987 75.2218 113.647 75.8084 113.42C76.4084 113.18 77.0751 113.06 77.8084 113.06C78.7818 113.06 79.6218 113.267 80.3284 113.68C81.0484 114.093 81.6084 114.68 82.0084 115.44C82.4084 116.187 82.6084 117.08 82.6084 118.12C82.6084 118.893 82.4951 119.593 82.2684 120.22C82.0418 120.847 81.7151 121.38 81.2884 121.82C80.8751 122.26 80.3684 122.6 79.7684 122.84C79.1818 123.067 78.5284 123.18 77.8084 123.18ZM77.8084 121.62C78.3551 121.62 78.8351 121.487 79.2484 121.22C79.6618 120.953 79.9818 120.56 80.2084 120.04C80.4484 119.52 80.5684 118.88 80.5684 118.12C80.5684 116.973 80.3151 116.107 79.8084 115.52C79.3018 114.933 78.6351 114.64 77.8084 114.64C77.2484 114.64 76.7618 114.773 76.3484 115.04C75.9351 115.293 75.6084 115.68 75.3684 116.2C75.1418 116.72 75.0284 117.36 75.0284 118.12C75.0284 119.253 75.2818 120.12 75.7884 120.72C76.2951 121.32 76.9684 121.62 77.8084 121.62ZM85.877 123.14C85.557 123.14 85.3104 123.053 85.137 122.88C84.9637 122.693 84.877 122.44 84.877 122.12V114.12C84.877 113.787 84.9637 113.533 85.137 113.36C85.3104 113.187 85.5504 113.1 85.857 113.1C86.177 113.1 86.417 113.187 86.577 113.36C86.7504 113.533 86.837 113.787 86.837 114.12V115.68L86.617 115.32C86.9104 114.573 87.3704 114.013 87.997 113.64C88.6237 113.253 89.3437 113.06 90.157 113.06C90.9304 113.06 91.5704 113.207 92.077 113.5C92.597 113.78 92.9837 114.213 93.237 114.8C93.4904 115.373 93.617 116.1 93.617 116.98V122.12C93.617 122.44 93.5304 122.693 93.357 122.88C93.1837 123.053 92.937 123.14 92.617 123.14C92.2837 123.14 92.0304 123.053 91.857 122.88C91.6837 122.693 91.597 122.44 91.597 122.12V117.1C91.597 116.26 91.4304 115.647 91.097 115.26C90.777 114.873 90.2704 114.68 89.577 114.68C88.7637 114.68 88.1104 114.933 87.617 115.44C87.137 115.947 86.897 116.627 86.897 117.48V122.12C86.897 122.8 86.557 123.14 85.877 123.14Z" fill="#0A0A0B"/>
<g filter="url(#filter0_d_2_386)">
<path d="M47.8593 74.7186C67.6092 74.7186 78.7186 63.6092 78.7186 43.8593C78.7186 24.1093 67.6092 13 47.8593 13C28.1093 13 17 24.1093 17 43.8593C17 63.6092 28.1093 74.7186 47.8593 74.7186Z" fill="#F3F7FB" stroke="#286FB4" stroke-width="5" stroke-linecap="round" stroke-linejoin="round"/>
<path d="M35.5156 56.203L60.203 31.5156L35.5156 56.203Z" fill="#F3F7FB"/>
<path d="M35.5156 56.203L60.203 31.5156" stroke="#286FB4" stroke-width="5" stroke-linecap="round" stroke-linejoin="round"/>
<path d="M37.9843 36.4531C39.3478 36.4531 40.4531 35.3478 40.4531 33.9843C40.4531 32.6209 39.3478 31.5156 37.9843 31.5156C36.6209 31.5156 35.5156 32.6209 35.5156 33.9843C35.5156 35.3478 36.6209 36.4531 37.9843 36.4531Z" fill="#F3F7FB" stroke="#286FB4" stroke-width="5" stroke-linecap="round" stroke-linejoin="round"/>
<path d="M57.7342 56.2031C59.0977 56.2031 60.203 55.0977 60.203 53.7343C60.203 52.3709 59.0977 51.2656 57.7342 51.2656C56.3708 51.2656 55.2655 52.3709 55.2655 53.7343C55.2655 55.0977 56.3708 56.2031 57.7342 56.2031Z" fill="#F3F7FB" stroke="#286FB4" stroke-width="5" stroke-linecap="round" stroke-linejoin="round"/>
</g>
<defs>
<filter id="filter0_d_2_386" x="4.5" y="0.5" width="102.719" height="102.719" filterUnits="userSpaceOnUse" color-interpolation-filters="sRGB">
<feFlood flood-opacity="0" result="BackgroundImageFix"/>
<feColorMatrix in="SourceAlpha" type="matrix" values="0 0 0 0 0 0 0 0 0 0 0 0 0 0 0 0 0 0 127 0" result="hardAlpha"/>
<feOffset dx="8" dy="8"/>
<feGaussianBlur stdDeviation="9"/>
<feComposite in2="hardAlpha" operator="out"/>
<feColorMatrix type="matrix" values="0 0 0 0 0.156863 0 0 0 0 0.435294 0 0 0 0 0.705882 0 0 0 0.2 0"/>
<feBlend mode="normal" in2="BackgroundImageFix" result="effect1_dropShadow_2_386"/>
<feBlend mode="normal" in="SourceGraphic" in2="effect1_dropShadow_2_386" result="shape"/>
</filter>
</defs>
</svg>
