<svg width="160" height="160" viewBox="0 0 160 160" fill="none" xmlns="http://www.w3.org/2000/svg">
<circle cx="80" cy="80" r="80" fill="#D9D9D9"/>
<path d="M111.466 65.9182L121.946 77.1619L107.209 81.7467L110.702 96.7018L96.8383 93.5361L107.973 129.014C107.973 131.415 106.954 133.307 104.916 134.69L99.2398 129.014L92.4718 135.782C90.8708 135.418 89.5608 134.599 88.542 133.326C87.5231 132.052 87.0137 130.615 87.0137 129.014L79.9182 106.526L72.9318 129.014C72.9318 130.615 72.4224 132.052 71.4035 133.326C70.3847 134.599 69.0748 135.418 67.4737 135.782L60.7057 129.014L55.0293 134.69C52.9916 133.307 51.9727 131.415 51.9727 129.014L63.1072 93.5361L49.2437 96.7018L52.7369 81.7467L38 77.1619L48.4795 65.9182L38 54.6745L52.7369 50.1989L49.2437 35.2437L64.1989 38.7369L68.6745 24L79.9182 34.4795L91.1619 24L95.7467 38.7369L110.702 35.2437L107.209 50.1989L121.946 54.6745L111.466 65.9182ZM79.9728 44.9591C74.1872 44.9591 69.2385 47.015 65.1267 51.1267C61.015 55.2385 58.9591 60.1872 58.9591 65.9728C58.9591 71.7583 61.015 76.707 65.1267 80.8188C69.2385 84.9305 74.1872 86.9864 79.9728 86.9864C85.7583 86.9864 90.707 84.9305 94.8188 80.8188C98.9305 76.707 100.986 71.7583 100.986 65.9728C100.986 60.1872 98.9305 55.2385 94.8188 51.1267C90.707 47.015 85.7583 44.9591 79.9728 44.9591Z" fill="#205696"/>
</svg>
