<svg width="160" height="160" viewBox="0 0 160 160" fill="none" xmlns="http://www.w3.org/2000/svg">
<circle cx="80" cy="80" r="80" fill="#D9D9D9"/>
<path d="M122.077 115.923L115.923 122.077C115.112 122.884 114.013 123.337 112.868 123.337C111.724 123.337 110.625 122.884 109.813 122.077L58.3334 70.6833C56.9243 71.0915 55.467 71.3101 54.0001 71.3333C51.2411 71.3313 48.5224 70.6708 46.0701 69.4065C43.6177 68.1423 41.5026 66.3109 39.9006 64.0647C38.2985 61.8184 37.2558 59.2222 36.8592 56.4918C36.4626 53.7615 36.7234 50.9759 37.6201 48.3666L48.6268 59.3733L50.9234 57.0766L57.0768 50.9233L59.3734 48.6266L48.3668 37.62C50.976 36.7233 53.7616 36.4624 56.492 36.8591C59.2223 37.2557 61.8186 38.2984 64.0648 39.9004C66.3111 41.5025 68.1424 43.6176 69.4067 46.0699C70.6709 48.5222 71.3315 51.2409 71.3334 54C71.3103 55.4669 71.0917 56.9241 70.6834 58.3333L122.077 109.813C122.884 110.625 123.337 111.723 123.337 112.868C123.337 114.013 122.884 115.111 122.077 115.923M37.9234 109.813C37.1163 110.625 36.6633 111.723 36.6633 112.868C36.6633 114.013 37.1163 115.111 37.9234 115.923L44.0768 122.077C44.8887 122.884 45.987 123.337 47.1318 123.337C48.2766 123.337 49.3749 122.884 50.1868 122.077L73.8901 98.4166L61.6268 86.1533M114.667 36.6666L97.3334 45.3333V54L87.9301 63.4033L96.5968 72.07L106 62.6666H114.667L123.333 45.3333L114.667 36.6666Z" fill="#205696"/>
</svg>
