<svg width="249" height="35" viewBox="0 0 249 35" fill="none" xmlns="http://www.w3.org/2000/svg">
<path d="M239.162 30.0362C238.933 30.0371 238.708 29.9832 238.504 29.8789L231.21 26.06L223.915 29.8789C223.678 30.0034 223.411 30.059 223.144 30.0394C222.878 30.0197 222.622 29.9255 222.405 29.7676C222.189 29.6097 222.022 29.3943 221.922 29.1459C221.823 28.8976 221.795 28.6263 221.841 28.3628L223.272 20.3102L217.379 14.589C217.195 14.4056 217.065 14.1755 217.002 13.9235C216.939 13.6715 216.945 13.4071 217.021 13.1587C217.104 12.9045 217.257 12.6787 217.461 12.5068C217.666 12.3348 217.915 12.2238 218.18 12.1861L226.332 10.999L229.922 3.66158C230.04 3.41976 230.222 3.21582 230.45 3.07312C230.678 2.93042 230.941 2.85474 231.21 2.85474C231.478 2.85474 231.742 2.93042 231.969 3.07312C232.197 3.21582 232.38 3.41976 232.497 3.66158L236.13 10.9847L244.283 12.1718C244.547 12.2095 244.796 12.3205 245.001 12.4924C245.206 12.6644 245.358 12.8902 245.441 13.1444C245.517 13.3928 245.524 13.6572 245.461 13.9092C245.398 14.1612 245.267 14.3913 245.084 14.5747L239.191 20.2959L240.621 28.3485C240.672 28.6166 240.645 28.8938 240.544 29.1472C240.443 29.4007 240.271 29.6198 240.049 29.7788C239.79 29.9603 239.478 30.0508 239.162 30.0362Z" fill="#FFCE31"/>
<path d="M21.7796 30.993C21.5553 30.9939 21.3339 30.9404 21.1342 30.8368L13.979 27.0444L6.82366 30.8368C6.59132 30.9605 6.32936 31.0157 6.06756 30.9962C5.80576 30.9766 5.55462 30.8831 5.3427 30.7263C5.13078 30.5694 4.96657 30.3555 4.86875 30.1089C4.77092 29.8623 4.7434 29.5929 4.78932 29.3312L6.19231 21.3345L0.411962 15.6529C0.231617 15.4707 0.103683 15.2423 0.0418901 14.992C-0.0199034 14.7418 -0.0132236 14.4792 0.0612125 14.2326C0.14253 13.9801 0.292113 13.7558 0.492986 13.5851C0.693858 13.4144 0.937978 13.3041 1.19764 13.2667L9.19473 12.0878L12.7163 4.80125C12.8311 4.5611 13.0105 4.35858 13.2338 4.21687C13.4572 4.07516 13.7154 4 13.979 4C14.2425 4 14.5008 4.07516 14.7241 4.21687C14.9474 4.35858 15.1268 4.5611 15.2417 4.80125L18.8053 12.0736L26.8024 13.2525C27.062 13.2899 27.3061 13.4002 27.507 13.5709C27.7079 13.7416 27.8575 13.9659 27.9388 14.2184C28.0132 14.465 28.0199 14.7276 27.9581 14.9778C27.8963 15.2281 27.7684 15.4565 27.588 15.6387L21.8077 21.3203L23.2107 29.317C23.2608 29.5833 23.2345 29.8585 23.1351 30.1102C23.0357 30.3619 22.8672 30.5795 22.6495 30.7374C22.3954 30.9176 22.0895 31.0075 21.7796 30.993Z" fill="#FFCE31"/>
<path d="M76.7796 30.993C76.5553 30.9939 76.3339 30.9404 76.1342 30.8368L68.979 27.0444L61.8237 30.8368C61.5913 30.9605 61.3294 31.0157 61.0676 30.9962C60.8058 30.9766 60.5546 30.8831 60.3427 30.7263C60.1308 30.5694 59.9666 30.3555 59.8687 30.1089C59.7709 29.8623 59.7434 29.5929 59.7893 29.3312L61.1923 21.3345L55.412 15.6529C55.2316 15.4707 55.1037 15.2423 55.0419 14.992C54.9801 14.7418 54.9868 14.4792 55.0612 14.2326C55.1425 13.9801 55.2921 13.7558 55.493 13.5851C55.6939 13.4144 55.938 13.3041 56.1976 13.2667L64.1947 12.0878L67.7163 4.80125C67.8311 4.5611 68.0105 4.35858 68.2338 4.21687C68.4572 4.07516 68.7154 4 68.979 4C69.2425 4 69.5008 4.07516 69.7241 4.21687C69.9474 4.35858 70.1268 4.5611 70.2417 4.80125L73.8053 12.0736L81.8024 13.2525C82.062 13.2899 82.3061 13.4002 82.507 13.5709C82.7079 13.7416 82.8575 13.9659 82.9388 14.2184C83.0132 14.465 83.0199 14.7276 82.9581 14.9778C82.8963 15.2281 82.7684 15.4565 82.588 15.6387L76.8077 21.3203L78.2107 29.317C78.2608 29.5833 78.2345 29.8585 78.1351 30.1102C78.0357 30.3619 77.8672 30.5795 77.6495 30.7374C77.3954 30.9176 77.0895 31.0075 76.7796 30.993Z" fill="#FFCE31"/>
<path d="M130.557 30.993C130.325 30.9939 130.096 30.9404 129.889 30.8368L122.478 27.0444L115.067 30.8368C114.827 30.9605 114.555 31.0157 114.284 30.9962C114.013 30.9766 113.753 30.8831 113.534 30.7263C113.314 30.5694 113.144 30.3555 113.043 30.1089C112.941 29.8623 112.913 29.5929 112.96 29.3312L114.413 21.3345L108.427 15.6529C108.24 15.4707 108.107 15.2423 108.043 14.992C107.979 14.7418 107.986 14.4792 108.063 14.2326C108.148 13.9801 108.303 13.7558 108.511 13.5851C108.719 13.4144 108.971 13.3041 109.24 13.2667L117.523 12.0878L121.17 4.80125C121.289 4.5611 121.475 4.35858 121.706 4.21687C121.938 4.07516 122.205 4 122.478 4C122.751 4 123.019 4.07516 123.25 4.21687C123.481 4.35858 123.667 4.5611 123.786 4.80125L127.477 12.0736L135.76 13.2525C136.029 13.2899 136.281 13.4002 136.489 13.5709C136.697 13.7416 136.852 13.9659 136.937 14.2184C137.014 14.465 137.021 14.7276 136.957 14.9778C136.893 15.2281 136.76 15.4565 136.573 15.6387L130.587 21.3203L132.04 29.317C132.092 29.5833 132.064 29.8585 131.961 30.1102C131.858 30.3619 131.684 30.5795 131.458 30.7374C131.195 30.9176 130.878 31.0075 130.557 30.993Z" fill="#FFCE31"/>
<path d="M184.131 30.0362C183.902 30.0371 183.676 29.9832 183.473 29.8789L176.178 26.06L168.884 29.8789C168.647 30.0034 168.38 30.059 168.113 30.0394C167.846 30.0197 167.59 29.9255 167.374 29.7676C167.158 29.6097 166.991 29.3943 166.891 29.1459C166.791 28.8976 166.763 28.6263 166.81 28.3628L168.24 20.3102L162.347 14.589C162.163 14.4056 162.033 14.1755 161.97 13.9235C161.907 13.6715 161.914 13.4071 161.99 13.1587C162.073 12.9045 162.225 12.6787 162.43 12.5068C162.635 12.3348 162.884 12.2238 163.148 12.1861L171.301 10.999L174.891 3.66158C175.008 3.41976 175.191 3.21582 175.419 3.07312C175.646 2.93042 175.91 2.85474 176.178 2.85474C176.447 2.85474 176.71 2.93042 176.938 3.07312C177.166 3.21582 177.348 3.41976 177.466 3.66158L181.098 10.9847L189.251 12.1718C189.516 12.2095 189.765 12.3205 189.97 12.4924C190.174 12.6644 190.327 12.8902 190.41 13.1444C190.486 13.3928 190.492 13.6572 190.429 13.9092C190.366 14.1612 190.236 14.3913 190.052 14.5747L184.159 20.2959L185.59 28.3485C185.641 28.6166 185.614 28.8938 185.513 29.1472C185.411 29.4007 185.239 29.6198 185.018 29.7788C184.759 29.9603 184.447 30.0508 184.131 30.0362Z" fill="#FFCE31"/>
</svg>
