<svg width="101" height="128" viewBox="0 0 101 128" fill="none" xmlns="http://www.w3.org/2000/svg">
<path d="M11.68 121.14C11.3467 121.14 11.0867 121.047 10.9 120.86C10.7267 120.673 10.64 120.413 10.64 120.08V107.96C10.64 107.613 10.7333 107.353 10.92 107.18C11.1067 106.993 11.3667 106.9 11.7 106.9H16.48C18 106.9 19.1733 107.26 20 107.98C20.8267 108.7 21.24 109.72 21.24 111.04C21.24 111.893 21.0533 112.627 20.68 113.24C20.3067 113.853 19.76 114.32 19.04 114.64C18.3333 114.96 17.48 115.12 16.48 115.12L16.66 114.84H17.18C17.7133 114.84 18.1733 114.973 18.56 115.24C18.96 115.507 19.32 115.933 19.64 116.52L21.36 119.72C21.4933 119.96 21.5533 120.193 21.54 120.42C21.54 120.633 21.46 120.807 21.3 120.94C21.1533 121.073 20.94 121.14 20.66 121.14C20.3667 121.14 20.1267 121.08 19.94 120.96C19.7667 120.827 19.6067 120.633 19.46 120.38L17.36 116.5C17.08 115.98 16.76 115.633 16.4 115.46C16.04 115.273 15.5667 115.18 14.98 115.18H12.72V120.08C12.72 120.413 12.6333 120.673 12.46 120.86C12.2867 121.047 12.0267 121.14 11.68 121.14ZM12.72 113.62H16.14C17.1533 113.62 17.92 113.407 18.44 112.98C18.96 112.553 19.22 111.92 19.22 111.08C19.22 110.253 18.96 109.627 18.44 109.2C17.92 108.773 17.1533 108.56 16.14 108.56H12.72V113.62ZM28.3008 121.18C27.2341 121.18 26.3141 120.98 25.5408 120.58C24.7808 120.167 24.1874 119.587 23.7608 118.84C23.3474 118.08 23.1408 117.18 23.1408 116.14C23.1408 115.127 23.3474 114.24 23.7608 113.48C24.1741 112.72 24.7408 112.127 25.4608 111.7C26.1808 111.273 27.0008 111.06 27.9208 111.06C28.6008 111.06 29.2074 111.173 29.7408 111.4C30.2741 111.613 30.7274 111.933 31.1008 112.36C31.4874 112.773 31.7741 113.28 31.9608 113.88C32.1608 114.48 32.2608 115.153 32.2608 115.9C32.2608 116.127 32.1941 116.3 32.0608 116.42C31.9274 116.527 31.7274 116.58 31.4608 116.58H24.7408V115.34H30.9008L30.5608 115.62C30.5608 114.953 30.4608 114.387 30.2608 113.92C30.0741 113.453 29.7874 113.1 29.4008 112.86C29.0274 112.607 28.5608 112.48 28.0008 112.48C27.3741 112.48 26.8408 112.627 26.4008 112.92C25.9741 113.213 25.6474 113.62 25.4208 114.14C25.1941 114.66 25.0808 115.267 25.0808 115.96V116.08C25.0808 117.253 25.3541 118.14 25.9008 118.74C26.4608 119.327 27.2674 119.62 28.3208 119.62C28.7208 119.62 29.1408 119.567 29.5808 119.46C30.0341 119.353 30.4608 119.173 30.8608 118.92C31.0874 118.787 31.2874 118.727 31.4608 118.74C31.6474 118.753 31.7941 118.813 31.9008 118.92C32.0208 119.027 32.0941 119.16 32.1208 119.32C32.1474 119.48 32.1208 119.647 32.0408 119.82C31.9608 119.98 31.8208 120.127 31.6208 120.26C31.1674 120.567 30.6408 120.8 30.0408 120.96C29.4408 121.107 28.8608 121.18 28.3008 121.18ZM38.1063 121.14C37.8263 121.14 37.5796 121.067 37.3663 120.92C37.1663 120.773 36.9996 120.547 36.8663 120.24L33.5263 112.48C33.4196 112.24 33.3796 112.013 33.4063 111.8C33.4329 111.587 33.5329 111.42 33.7063 111.3C33.8796 111.167 34.1129 111.1 34.4063 111.1C34.6596 111.1 34.8596 111.16 35.0063 111.28C35.1529 111.4 35.2863 111.607 35.4062 111.9L38.4263 119.34H37.8663L40.9463 111.9C41.0663 111.607 41.1996 111.4 41.3463 111.28C41.5063 111.16 41.7263 111.1 42.0063 111.1C42.2463 111.1 42.4329 111.167 42.5663 111.3C42.7129 111.42 42.7996 111.587 42.8263 111.8C42.8663 112 42.8329 112.22 42.7263 112.46L39.3463 120.24C39.2263 120.547 39.0596 120.773 38.8463 120.92C38.6329 121.067 38.3863 121.14 38.1063 121.14ZM45.7169 121.12C45.3969 121.12 45.1502 121.027 44.9769 120.84C44.8035 120.64 44.7169 120.367 44.7169 120.02V112.22C44.7169 111.873 44.8035 111.607 44.9769 111.42C45.1502 111.233 45.3969 111.14 45.7169 111.14C46.0369 111.14 46.2835 111.233 46.4569 111.42C46.6435 111.607 46.7369 111.873 46.7369 112.22V120.02C46.7369 120.367 46.6502 120.64 46.4769 120.84C46.3035 121.027 46.0502 121.12 45.7169 121.12ZM45.7169 109.06C45.3169 109.06 45.0035 108.96 44.7769 108.76C44.5635 108.56 44.4569 108.28 44.4569 107.92C44.4569 107.547 44.5635 107.267 44.7769 107.08C45.0035 106.88 45.3169 106.78 45.7169 106.78C46.1169 106.78 46.4235 106.88 46.6369 107.08C46.8635 107.267 46.9769 107.547 46.9769 107.92C46.9769 108.28 46.8635 108.56 46.6369 108.76C46.4235 108.96 46.1169 109.06 45.7169 109.06ZM54.1602 121.18C53.0935 121.18 52.1735 120.98 51.4002 120.58C50.6402 120.167 50.0468 119.587 49.6202 118.84C49.2068 118.08 49.0002 117.18 49.0002 116.14C49.0002 115.127 49.2068 114.24 49.6202 113.48C50.0335 112.72 50.6002 112.127 51.3202 111.7C52.0402 111.273 52.8602 111.06 53.7802 111.06C54.4602 111.06 55.0668 111.173 55.6002 111.4C56.1335 111.613 56.5868 111.933 56.9602 112.36C57.3468 112.773 57.6335 113.28 57.8202 113.88C58.0202 114.48 58.1202 115.153 58.1202 115.9C58.1202 116.127 58.0535 116.3 57.9202 116.42C57.7868 116.527 57.5868 116.58 57.3202 116.58H50.6002V115.34H56.7602L56.4202 115.62C56.4202 114.953 56.3202 114.387 56.1202 113.92C55.9335 113.453 55.6468 113.1 55.2602 112.86C54.8868 112.607 54.4202 112.48 53.8602 112.48C53.2335 112.48 52.7002 112.627 52.2602 112.92C51.8335 113.213 51.5068 113.62 51.2802 114.14C51.0535 114.66 50.9402 115.267 50.9402 115.96V116.08C50.9402 117.253 51.2135 118.14 51.7602 118.74C52.3202 119.327 53.1268 119.62 54.1802 119.62C54.5802 119.62 55.0002 119.567 55.4402 119.46C55.8935 119.353 56.3202 119.173 56.7202 118.92C56.9468 118.787 57.1468 118.727 57.3202 118.74C57.5068 118.753 57.6535 118.813 57.7602 118.92C57.8802 119.027 57.9535 119.16 57.9802 119.32C58.0068 119.48 57.9802 119.647 57.9002 119.82C57.8202 119.98 57.6802 120.127 57.4802 120.26C57.0268 120.567 56.5002 120.8 55.9002 120.96C55.3002 121.107 54.7202 121.18 54.1602 121.18ZM63.7456 121.14C63.4656 121.14 63.219 121.073 63.0056 120.94C62.8056 120.793 62.6456 120.567 62.5256 120.26L59.5856 112.48C59.479 112.213 59.4456 111.98 59.4856 111.78C59.5256 111.567 59.6256 111.4 59.7856 111.28C59.959 111.16 60.179 111.1 60.4456 111.1C60.6856 111.1 60.879 111.16 61.0256 111.28C61.1856 111.387 61.319 111.6 61.4256 111.92L64.0456 119.3H63.5656L66.2856 111.84C66.379 111.587 66.5056 111.4 66.6656 111.28C66.8256 111.16 67.0323 111.1 67.2856 111.1C67.539 111.1 67.7456 111.16 67.9056 111.28C68.079 111.4 68.2056 111.587 68.2856 111.84L70.9456 119.3H70.5056L73.1656 111.88C73.2723 111.573 73.4056 111.367 73.5656 111.26C73.739 111.153 73.9323 111.1 74.1456 111.1C74.4123 111.1 74.6123 111.167 74.7456 111.3C74.8923 111.433 74.9723 111.607 74.9856 111.82C75.0123 112.02 74.979 112.24 74.8856 112.48L71.9456 120.26C71.8256 120.553 71.659 120.773 71.4456 120.92C71.2456 121.067 71.0123 121.14 70.7456 121.14C70.4656 121.14 70.219 121.067 70.0056 120.92C69.8056 120.773 69.6456 120.553 69.5256 120.26L66.7256 112.68H67.7256L64.9456 120.26C64.839 120.553 64.679 120.773 64.4656 120.92C64.2656 121.067 64.0256 121.14 63.7456 121.14Z" fill="#0A0A0B"/>
<g filter="url(#filter0_d_2_387)">
<path d="M27.6901 17.1837C32.258 14.4476 37.4825 13.0017 42.8072 13C47.2372 12.9974 51.6108 13.9947 55.6018 15.9177C59.5927 17.8407 63.0984 20.6396 65.857 24.106C68.6156 27.5724 70.5564 31.6167 71.5346 35.9374C72.5127 40.2582 72.5031 44.7441 71.506 49.0606C70.509 53.3771 68.5508 57.4131 65.7768 60.867C63.0032 64.3215 59.4855 67.1052 55.486 69.0108C51.4867 70.9163 47.1088 71.8945 42.6788 71.8723C38.9813 71.8544 35.3271 71.1396 31.9054 69.7729L15.8162 72.4517C14.0185 72.7514 12.5491 71.0285 13.1281 69.3007L17.244 57.0158C14.9513 52.9946 13.6345 48.4801 13.4132 43.8374C13.1598 38.5188 14.3538 33.2311 16.8679 28.5374C19.382 23.8437 23.1222 19.9198 27.6901 17.1837Z" fill="#F3F7FB" stroke="#286FB4" stroke-width="5" stroke-linecap="round" stroke-linejoin="round"/>
<path d="M57.7626 44.218C57.1208 44.218 56.6008 43.6979 56.6008 43.0563C56.6008 42.4147 57.1208 41.8945 57.7626 41.8945" fill="#F3F7FB"/>
<path d="M57.7626 44.218C57.1208 44.218 56.6008 43.6979 56.6008 43.0563C56.6008 42.4147 57.1208 41.8945 57.7626 41.8945" stroke="#286FB4" stroke-width="5" stroke-linecap="round" stroke-linejoin="round"/>
<path d="M57.7626 44.2181C58.4044 44.2181 58.9244 43.698 58.9244 43.0564C58.9244 42.4148 58.4044 41.8947 57.7626 41.8947" fill="#F3F7FB"/>
<path d="M57.7626 44.2181C58.4044 44.2181 58.9244 43.698 58.9244 43.0564C58.9244 42.4148 58.4044 41.8947 57.7626 41.8947" stroke="#286FB4" stroke-width="5" stroke-linecap="round" stroke-linejoin="round"/>
<path d="M43.2642 44.218C42.6226 44.218 42.1024 43.6979 42.1024 43.0563C42.1024 42.4147 42.6226 41.8945 43.2642 41.8945" fill="#F3F7FB"/>
<path d="M43.2642 44.218C42.6226 44.218 42.1024 43.6979 42.1024 43.0563C42.1024 42.4147 42.6226 41.8945 43.2642 41.8945" stroke="#286FB4" stroke-width="5" stroke-linecap="round" stroke-linejoin="round"/>
<path d="M43.2643 44.2181C43.9059 44.2181 44.4261 43.698 44.4261 43.0564C44.4261 42.4148 43.9059 41.8947 43.2643 41.8947" fill="#F3F7FB"/>
<path d="M43.2643 44.2181C43.9059 44.2181 44.4261 43.698 44.4261 43.0564C44.4261 42.4148 43.9059 41.8947 43.2643 41.8947" stroke="#286FB4" stroke-width="5" stroke-linecap="round" stroke-linejoin="round"/>
<path d="M28.7658 44.218C28.1242 44.218 27.6041 43.6979 27.6041 43.0563C27.6041 42.4147 28.1242 41.8945 28.7658 41.8945" fill="#F3F7FB"/>
<path d="M28.7658 44.218C28.1242 44.218 27.6041 43.6979 27.6041 43.0563C27.6041 42.4147 28.1242 41.8945 28.7658 41.8945" stroke="#286FB4" stroke-width="5" stroke-linecap="round" stroke-linejoin="round"/>
<path d="M28.766 44.2181C29.4076 44.2181 29.9277 43.698 29.9277 43.0564C29.9277 42.4148 29.4076 41.8947 28.766 41.8947" fill="#F3F7FB"/>
<path d="M28.766 44.2181C29.4076 44.2181 29.9277 43.698 29.9277 43.0564C29.9277 42.4148 29.4076 41.8947 28.766 41.8947" stroke="#286FB4" stroke-width="5" stroke-linecap="round" stroke-linejoin="round"/>
</g>
<defs>
<filter id="filter0_d_2_387" x="0.497009" y="0.5" width="100.264" height="100.487" filterUnits="userSpaceOnUse" color-interpolation-filters="sRGB">
<feFlood flood-opacity="0" result="BackgroundImageFix"/>
<feColorMatrix in="SourceAlpha" type="matrix" values="0 0 0 0 0 0 0 0 0 0 0 0 0 0 0 0 0 0 127 0" result="hardAlpha"/>
<feOffset dx="8" dy="8"/>
<feGaussianBlur stdDeviation="9"/>
<feComposite in2="hardAlpha" operator="out"/>
<feColorMatrix type="matrix" values="0 0 0 0 0.156863 0 0 0 0 0.435294 0 0 0 0 0.705882 0 0 0 0.2 0"/>
<feBlend mode="normal" in2="BackgroundImageFix" result="effect1_dropShadow_2_387"/>
<feBlend mode="normal" in="SourceGraphic" in2="effect1_dropShadow_2_387" result="shape"/>
</filter>
</defs>
</svg>
