<svg width="102" height="130" viewBox="0 0 102 130" fill="none" xmlns="http://www.w3.org/2000/svg">
<path d="M24.34 123.18C23.7267 123.18 23.1267 123.133 22.54 123.04C21.9533 122.947 21.4 122.807 20.88 122.62C20.36 122.42 19.8933 122.18 19.48 121.9C19.28 121.753 19.14 121.587 19.06 121.4C18.9933 121.213 18.9733 121.033 19 120.86C19.04 120.673 19.12 120.513 19.24 120.38C19.36 120.247 19.5067 120.167 19.68 120.14C19.8533 120.1 20.0467 120.153 20.26 120.3C20.86 120.687 21.4933 120.973 22.16 121.16C22.8267 121.333 23.5533 121.42 24.34 121.42C25.4733 121.42 26.3067 121.22 26.84 120.82C27.3867 120.407 27.66 119.873 27.66 119.22C27.66 118.687 27.4667 118.267 27.08 117.96C26.6933 117.64 26.0467 117.387 25.14 117.2L23 116.76C21.7333 116.493 20.7867 116.053 20.16 115.44C19.5467 114.827 19.24 114 19.24 112.96C19.24 112.333 19.3667 111.76 19.62 111.24C19.8867 110.72 20.2533 110.273 20.72 109.9C21.1867 109.513 21.7467 109.22 22.4 109.02C23.0533 108.82 23.7667 108.72 24.54 108.72C25.3667 108.72 26.14 108.827 26.86 109.04C27.5933 109.253 28.2467 109.58 28.82 110.02C28.9933 110.14 29.1067 110.293 29.16 110.48C29.2267 110.653 29.24 110.827 29.2 111C29.1733 111.173 29.1 111.32 28.98 111.44C28.86 111.56 28.7067 111.633 28.52 111.66C28.3333 111.673 28.1267 111.607 27.9 111.46C27.38 111.113 26.8467 110.867 26.3 110.72C25.7667 110.56 25.1733 110.48 24.52 110.48C23.8667 110.48 23.2933 110.58 22.8 110.78C22.32 110.98 21.9467 111.26 21.68 111.62C21.4267 111.98 21.3 112.407 21.3 112.9C21.3 113.46 21.48 113.907 21.84 114.24C22.2 114.573 22.8 114.827 23.64 115L25.76 115.44C27.0933 115.72 28.0867 116.153 28.74 116.74C29.3933 117.327 29.72 118.107 29.72 119.08C29.72 119.707 29.5933 120.273 29.34 120.78C29.0867 121.273 28.7267 121.7 28.26 122.06C27.7933 122.42 27.2267 122.7 26.56 122.9C25.9067 123.087 25.1667 123.18 24.34 123.18ZM34.9814 123.18C34.3014 123.18 33.6881 123.047 33.1414 122.78C32.6081 122.513 32.1881 122.153 31.8814 121.7C31.5747 121.247 31.4214 120.733 31.4214 120.16C31.4214 119.44 31.6014 118.873 31.9614 118.46C32.3347 118.033 32.9414 117.733 33.7814 117.56C34.6347 117.373 35.7814 117.28 37.2214 117.28H38.1614V118.52H37.2414C36.2814 118.52 35.5214 118.567 34.9614 118.66C34.4014 118.753 34.0014 118.913 33.7614 119.14C33.5347 119.353 33.4214 119.653 33.4214 120.04C33.4214 120.547 33.5947 120.96 33.9414 121.28C34.2881 121.587 34.7681 121.74 35.3814 121.74C35.8747 121.74 36.3081 121.627 36.6814 121.4C37.0547 121.16 37.3481 120.84 37.5614 120.44C37.7881 120.04 37.9014 119.58 37.9014 119.06V116.76C37.9014 116 37.7414 115.453 37.4214 115.12C37.1014 114.787 36.5747 114.62 35.8414 114.62C35.4147 114.62 34.9681 114.673 34.5014 114.78C34.0481 114.887 33.5747 115.067 33.0814 115.32C32.8547 115.427 32.6614 115.46 32.5014 115.42C32.3414 115.38 32.2147 115.293 32.1214 115.16C32.0281 115.013 31.9747 114.86 31.9614 114.7C31.9614 114.527 32.0014 114.36 32.0814 114.2C32.1747 114.04 32.3281 113.92 32.5414 113.84C33.1281 113.56 33.7081 113.36 34.2814 113.24C34.8547 113.12 35.3947 113.06 35.9014 113.06C36.7947 113.06 37.5281 113.2 38.1014 113.48C38.6881 113.76 39.1214 114.187 39.4014 114.76C39.6814 115.333 39.8214 116.073 39.8214 116.98V122.12C39.8214 122.44 39.7414 122.693 39.5814 122.88C39.4214 123.053 39.1881 123.14 38.8814 123.14C38.5881 123.14 38.3547 123.053 38.1814 122.88C38.0081 122.693 37.9214 122.44 37.9214 122.12V120.82H38.1014C37.9947 121.313 37.7947 121.74 37.5014 122.1C37.2214 122.447 36.8681 122.713 36.4414 122.9C36.0147 123.087 35.5281 123.18 34.9814 123.18ZM45.7436 123.18C44.7036 123.18 43.9169 122.88 43.3836 122.28C42.8636 121.667 42.6036 120.787 42.6036 119.64V109.78C42.6036 109.447 42.6903 109.193 42.8636 109.02C43.0369 108.847 43.2836 108.76 43.6036 108.76C43.9236 108.76 44.1703 108.847 44.3436 109.02C44.5303 109.193 44.6236 109.447 44.6236 109.78V119.52C44.6236 120.187 44.7569 120.687 45.0236 121.02C45.3036 121.34 45.7036 121.5 46.2236 121.5C46.3436 121.5 46.4503 121.5 46.5436 121.5C46.6369 121.487 46.7303 121.473 46.8236 121.46C46.9836 121.447 47.0969 121.493 47.1636 121.6C47.2303 121.693 47.2636 121.893 47.2636 122.2C47.2636 122.48 47.2036 122.7 47.0836 122.86C46.9636 123.007 46.7703 123.1 46.5036 123.14C46.3836 123.153 46.2569 123.16 46.1236 123.16C45.9903 123.173 45.8636 123.18 45.7436 123.18ZM53.1992 123.18C52.1326 123.18 51.2126 122.98 50.4392 122.58C49.6792 122.167 49.0859 121.587 48.6592 120.84C48.2459 120.08 48.0392 119.18 48.0392 118.14C48.0392 117.127 48.2459 116.24 48.6592 115.48C49.0726 114.72 49.6392 114.127 50.3592 113.7C51.0792 113.273 51.8992 113.06 52.8192 113.06C53.4992 113.06 54.1059 113.173 54.6392 113.4C55.1726 113.613 55.6259 113.933 55.9992 114.36C56.3859 114.773 56.6726 115.28 56.8592 115.88C57.0592 116.48 57.1592 117.153 57.1592 117.9C57.1592 118.127 57.0926 118.3 56.9592 118.42C56.8259 118.527 56.6259 118.58 56.3592 118.58H49.6392V117.34H55.7992L55.4592 117.62C55.4592 116.953 55.3592 116.387 55.1592 115.92C54.9726 115.453 54.6859 115.1 54.2992 114.86C53.9259 114.607 53.4592 114.48 52.8992 114.48C52.2726 114.48 51.7392 114.627 51.2992 114.92C50.8726 115.213 50.5459 115.62 50.3192 116.14C50.0926 116.66 49.9792 117.267 49.9792 117.96V118.08C49.9792 119.253 50.2526 120.14 50.7992 120.74C51.3592 121.327 52.1659 121.62 53.2192 121.62C53.6192 121.62 54.0392 121.567 54.4792 121.46C54.9326 121.353 55.3592 121.173 55.7592 120.92C55.9859 120.787 56.1859 120.727 56.3592 120.74C56.5459 120.753 56.6926 120.813 56.7992 120.92C56.9192 121.027 56.9926 121.16 57.0192 121.32C57.0459 121.48 57.0192 121.647 56.9392 121.82C56.8592 121.98 56.7192 122.127 56.5192 122.26C56.0659 122.567 55.5392 122.8 54.9392 122.96C54.3392 123.107 53.7592 123.18 53.1992 123.18ZM62.7814 123.18C62.1947 123.18 61.5881 123.113 60.9614 122.98C60.3481 122.847 59.7814 122.62 59.2614 122.3C59.0881 122.18 58.9681 122.047 58.9014 121.9C58.8347 121.753 58.8081 121.607 58.8214 121.46C58.8481 121.3 58.9081 121.167 59.0014 121.06C59.1081 120.94 59.2347 120.867 59.3814 120.84C59.5414 120.813 59.7081 120.847 59.8814 120.94C60.4014 121.233 60.9014 121.44 61.3814 121.56C61.8614 121.667 62.3347 121.72 62.8014 121.72C63.5081 121.72 64.0414 121.593 64.4014 121.34C64.7614 121.087 64.9414 120.747 64.9414 120.32C64.9414 119.973 64.8214 119.707 64.5814 119.52C64.3414 119.32 63.9814 119.167 63.5014 119.06L61.6014 118.68C60.7747 118.507 60.1481 118.2 59.7214 117.76C59.2947 117.32 59.0814 116.76 59.0814 116.08C59.0814 115.467 59.2481 114.933 59.5814 114.48C59.9147 114.027 60.3814 113.68 60.9814 113.44C61.5814 113.187 62.2747 113.06 63.0614 113.06C63.6481 113.06 64.2014 113.133 64.7214 113.28C65.2414 113.427 65.7214 113.647 66.1614 113.94C66.3347 114.033 66.4481 114.16 66.5014 114.32C66.5547 114.467 66.5614 114.613 66.5214 114.76C66.4947 114.907 66.4281 115.04 66.3214 115.16C66.2147 115.267 66.0814 115.333 65.9214 115.36C65.7747 115.373 65.6081 115.333 65.4214 115.24C65.0214 114.987 64.6214 114.807 64.2214 114.7C63.8347 114.593 63.4481 114.54 63.0614 114.54C62.3547 114.54 61.8214 114.673 61.4614 114.94C61.1147 115.193 60.9414 115.54 60.9414 115.98C60.9414 116.313 61.0481 116.587 61.2614 116.8C61.4747 117.013 61.8081 117.167 62.2614 117.26L64.1614 117.64C65.0281 117.813 65.6814 118.107 66.1214 118.52C66.5747 118.933 66.8014 119.493 66.8014 120.2C66.8014 121.12 66.4347 121.847 65.7014 122.38C64.9681 122.913 63.9947 123.18 62.7814 123.18Z" fill="#0A0A0B"/>
<g filter="url(#filter0_d_2_113)">
<path d="M43.1897 73.3793C59.863 73.3793 73.3793 59.863 73.3793 43.1897C73.3793 26.5164 59.863 13 43.1897 13C26.5164 13 13 26.5164 13 43.1897C13 59.863 26.5164 73.3793 43.1897 73.3793Z" fill="#F3F7FB" stroke="#286FB4" stroke-width="5" stroke-linejoin="round"/>
<path d="M49.7952 35.9876C49.7952 35.9876 47.3118 33.2193 43.284 33.5653C39.2562 33.9112 37.3147 36.3858 37.3147 38.8672C37.3147 46.1044 49.7952 41.0889 49.7952 48.5104C49.7952 52.3365 41.5164 55.037 36.5839 50.536" stroke="#286FB4" stroke-width="5" stroke-linecap="round" stroke-linejoin="round"/>
<path d="M43.7776 28.6986V33.5353" stroke="#286FB4" stroke-width="5" stroke-linecap="round" stroke-linejoin="round"/>
<path d="M43.7776 52.8439V57.6807" stroke="#286FB4" stroke-width="5" stroke-linecap="round" stroke-linejoin="round"/>
</g>
<defs>
<filter id="filter0_d_2_113" x="0.5" y="0.5" width="101.379" height="101.379" filterUnits="userSpaceOnUse" color-interpolation-filters="sRGB">
<feFlood flood-opacity="0" result="BackgroundImageFix"/>
<feColorMatrix in="SourceAlpha" type="matrix" values="0 0 0 0 0 0 0 0 0 0 0 0 0 0 0 0 0 0 127 0" result="hardAlpha"/>
<feOffset dx="8" dy="8"/>
<feGaussianBlur stdDeviation="9"/>
<feComposite in2="hardAlpha" operator="out"/>
<feColorMatrix type="matrix" values="0 0 0 0 0.156863 0 0 0 0 0.435294 0 0 0 0 0.705882 0 0 0 0.2 0"/>
<feBlend mode="normal" in2="BackgroundImageFix" result="effect1_dropShadow_2_113"/>
<feBlend mode="normal" in="SourceGraphic" in2="effect1_dropShadow_2_113" result="shape"/>
</filter>
</defs>
</svg>
