<svg width="132" height="120" viewBox="0 0 132 120" fill="none" xmlns="http://www.w3.org/2000/svg">
<path d="M131.125 107.5L105.5 81.875C108 75.625 106.75 67.5 101.125 62.5C95.5 56.875 87.375 55.625 80.5 58.75L92.375 70.625L83.625 79.375L71.125 66.875C68 73.75 69.25 81.875 74.875 88.125C80.5 93.75 88 95 94.25 92.5L119.875 118.125C121.125 119.375 123 119.375 123.625 118.125L129.875 111.875C131.75 110 131.75 108.125 131.125 107.5ZM69.25 100H0.5V87.5C0.5 73.75 23 62.5 50.5 62.5C53.625 62.5 56.75 62.5 59.25 63.125C57.375 66.875 56.75 70.625 56.75 75C56.75 85 61.75 94.375 69.25 100ZM50.5 0C36.75 0 25.5 11.25 25.5 25C25.5 38.75 36.75 50 50.5 50C64.25 50 75.5 38.75 75.5 25C75.5 11.25 64.25 0 50.5 0Z" fill="#205696"/>
</svg>
