<svg width="102" height="133" viewBox="0 0 102 133" fill="none" xmlns="http://www.w3.org/2000/svg">
<path d="M16.34 126.18C15.7267 126.18 15.1267 126.133 14.54 126.04C13.9533 125.947 13.4 125.807 12.88 125.62C12.36 125.42 11.8933 125.18 11.48 124.9C11.28 124.753 11.14 124.587 11.06 124.4C10.9933 124.213 10.9733 124.033 11 123.86C11.04 123.673 11.12 123.513 11.24 123.38C11.36 123.247 11.5067 123.167 11.68 123.14C11.8533 123.1 12.0467 123.153 12.26 123.3C12.86 123.687 13.4933 123.973 14.16 124.16C14.8267 124.333 15.5533 124.42 16.34 124.42C17.4733 124.42 18.3067 124.22 18.84 123.82C19.3867 123.407 19.66 122.873 19.66 122.22C19.66 121.687 19.4667 121.267 19.08 120.96C18.6933 120.64 18.0467 120.387 17.14 120.2L15 119.76C13.7333 119.493 12.7867 119.053 12.16 118.44C11.5467 117.827 11.24 117 11.24 115.96C11.24 115.333 11.3667 114.76 11.62 114.24C11.8867 113.72 12.2533 113.273 12.72 112.9C13.1867 112.513 13.7467 112.22 14.4 112.02C15.0533 111.82 15.7667 111.72 16.54 111.72C17.3667 111.72 18.14 111.827 18.86 112.04C19.5933 112.253 20.2467 112.58 20.82 113.02C20.9933 113.14 21.1067 113.293 21.16 113.48C21.2267 113.653 21.24 113.827 21.2 114C21.1733 114.173 21.1 114.32 20.98 114.44C20.86 114.56 20.7067 114.633 20.52 114.66C20.3333 114.673 20.1267 114.607 19.9 114.46C19.38 114.113 18.8467 113.867 18.3 113.72C17.7667 113.56 17.1733 113.48 16.52 113.48C15.8667 113.48 15.2933 113.58 14.8 113.78C14.32 113.98 13.9467 114.26 13.68 114.62C13.4267 114.98 13.3 115.407 13.3 115.9C13.3 116.46 13.48 116.907 13.84 117.24C14.2 117.573 14.8 117.827 15.64 118L17.76 118.44C19.0933 118.72 20.0867 119.153 20.74 119.74C21.3933 120.327 21.72 121.107 21.72 122.08C21.72 122.707 21.5933 123.273 21.34 123.78C21.0867 124.273 20.7267 124.7 20.26 125.06C19.7933 125.42 19.2267 125.7 18.56 125.9C17.9067 126.087 17.1667 126.18 16.34 126.18ZM28.4414 126.18C27.3747 126.18 26.4547 125.98 25.6814 125.58C24.9214 125.167 24.3281 124.587 23.9014 123.84C23.4881 123.08 23.2814 122.18 23.2814 121.14C23.2814 120.127 23.4881 119.24 23.9014 118.48C24.3147 117.72 24.8814 117.127 25.6014 116.7C26.3214 116.273 27.1414 116.06 28.0614 116.06C28.7414 116.06 29.3481 116.173 29.8814 116.4C30.4147 116.613 30.8681 116.933 31.2414 117.36C31.6281 117.773 31.9147 118.28 32.1014 118.88C32.3014 119.48 32.4014 120.153 32.4014 120.9C32.4014 121.127 32.3347 121.3 32.2014 121.42C32.0681 121.527 31.8681 121.58 31.6014 121.58H24.8814V120.34H31.0414L30.7014 120.62C30.7014 119.953 30.6014 119.387 30.4014 118.92C30.2147 118.453 29.9281 118.1 29.5414 117.86C29.1681 117.607 28.7014 117.48 28.1414 117.48C27.5147 117.48 26.9814 117.627 26.5414 117.92C26.1147 118.213 25.7881 118.62 25.5614 119.14C25.3347 119.66 25.2214 120.267 25.2214 120.96V121.08C25.2214 122.253 25.4947 123.14 26.0414 123.74C26.6014 124.327 27.4081 124.62 28.4614 124.62C28.8614 124.62 29.2814 124.567 29.7214 124.46C30.1747 124.353 30.6014 124.173 31.0014 123.92C31.2281 123.787 31.4281 123.727 31.6014 123.74C31.7881 123.753 31.9347 123.813 32.0414 123.92C32.1614 124.027 32.2347 124.16 32.2614 124.32C32.2881 124.48 32.2614 124.647 32.1814 124.82C32.1014 124.98 31.9614 125.127 31.7614 125.26C31.3081 125.567 30.7814 125.8 30.1814 125.96C29.5814 126.107 29.0014 126.18 28.4414 126.18ZM38.7441 126.18C37.9441 126.18 37.2707 126.04 36.7241 125.76C36.1774 125.48 35.7707 125.067 35.5041 124.52C35.2374 123.973 35.1041 123.307 35.1041 122.52V117.8H33.9041C33.6374 117.8 33.4307 117.733 33.2841 117.6C33.1374 117.453 33.0641 117.26 33.0641 117.02C33.0641 116.767 33.1374 116.573 33.2841 116.44C33.4307 116.307 33.6374 116.24 33.9041 116.24H35.1041V114.18C35.1041 113.847 35.1907 113.593 35.3641 113.42C35.5507 113.247 35.8041 113.16 36.1241 113.16C36.4441 113.16 36.6907 113.247 36.8641 113.42C37.0374 113.593 37.1241 113.847 37.1241 114.18V116.24H39.4641C39.7307 116.24 39.9374 116.307 40.0841 116.44C40.2307 116.573 40.3041 116.767 40.3041 117.02C40.3041 117.26 40.2307 117.453 40.0841 117.6C39.9374 117.733 39.7307 117.8 39.4641 117.8H37.1241V122.36C37.1241 123.067 37.2707 123.6 37.5641 123.96C37.8707 124.32 38.3641 124.5 39.0441 124.5C39.2841 124.5 39.4907 124.48 39.6641 124.44C39.8507 124.387 40.0041 124.353 40.1241 124.34C40.2707 124.34 40.3907 124.393 40.4841 124.5C40.5774 124.593 40.6241 124.78 40.6241 125.06C40.6241 125.26 40.5841 125.447 40.5041 125.62C40.4374 125.793 40.3107 125.907 40.1241 125.96C39.9641 126.013 39.7441 126.06 39.4641 126.1C39.1974 126.153 38.9574 126.18 38.7441 126.18ZM45.6581 126.18C44.8581 126.18 44.1848 126.04 43.6381 125.76C43.0915 125.48 42.6848 125.067 42.4181 124.52C42.1515 123.973 42.0181 123.307 42.0181 122.52V117.8H40.8181C40.5515 117.8 40.3448 117.733 40.1981 117.6C40.0515 117.453 39.9781 117.26 39.9781 117.02C39.9781 116.767 40.0515 116.573 40.1981 116.44C40.3448 116.307 40.5515 116.24 40.8181 116.24H42.0181V114.18C42.0181 113.847 42.1048 113.593 42.2781 113.42C42.4648 113.247 42.7181 113.16 43.0381 113.16C43.3581 113.16 43.6048 113.247 43.7781 113.42C43.9515 113.593 44.0381 113.847 44.0381 114.18V116.24H46.3781C46.6448 116.24 46.8515 116.307 46.9981 116.44C47.1448 116.573 47.2181 116.767 47.2181 117.02C47.2181 117.26 47.1448 117.453 46.9981 117.6C46.8515 117.733 46.6448 117.8 46.3781 117.8H44.0381V122.36C44.0381 123.067 44.1848 123.6 44.4781 123.96C44.7848 124.32 45.2781 124.5 45.9581 124.5C46.1981 124.5 46.4048 124.48 46.5781 124.44C46.7648 124.387 46.9181 124.353 47.0381 124.34C47.1848 124.34 47.3048 124.393 47.3981 124.5C47.4915 124.593 47.5381 124.78 47.5381 125.06C47.5381 125.26 47.4981 125.447 47.4181 125.62C47.3515 125.793 47.2248 125.907 47.0381 125.96C46.8781 126.013 46.6581 126.06 46.3781 126.1C46.1115 126.153 45.8715 126.18 45.6581 126.18ZM49.9786 126.12C49.6586 126.12 49.4119 126.027 49.2386 125.84C49.0653 125.64 48.9786 125.367 48.9786 125.02V117.22C48.9786 116.873 49.0653 116.607 49.2386 116.42C49.4119 116.233 49.6586 116.14 49.9786 116.14C50.2986 116.14 50.5453 116.233 50.7186 116.42C50.9053 116.607 50.9986 116.873 50.9986 117.22V125.02C50.9986 125.367 50.9119 125.64 50.7386 125.84C50.5653 126.027 50.3119 126.12 49.9786 126.12ZM49.9786 114.06C49.5786 114.06 49.2653 113.96 49.0386 113.76C48.8253 113.56 48.7186 113.28 48.7186 112.92C48.7186 112.547 48.8253 112.267 49.0386 112.08C49.2653 111.88 49.5786 111.78 49.9786 111.78C50.3786 111.78 50.6853 111.88 50.8986 112.08C51.1253 112.267 51.2386 112.547 51.2386 112.92C51.2386 113.28 51.1253 113.56 50.8986 113.76C50.6853 113.96 50.3786 114.06 49.9786 114.06ZM54.8419 126.14C54.5219 126.14 54.2752 126.053 54.1019 125.88C53.9285 125.693 53.8419 125.44 53.8419 125.12V117.12C53.8419 116.787 53.9285 116.533 54.1019 116.36C54.2752 116.187 54.5152 116.1 54.8219 116.1C55.1419 116.1 55.3819 116.187 55.5419 116.36C55.7152 116.533 55.8019 116.787 55.8019 117.12V118.68L55.5819 118.32C55.8752 117.573 56.3352 117.013 56.9619 116.64C57.5885 116.253 58.3085 116.06 59.1219 116.06C59.8952 116.06 60.5352 116.207 61.0419 116.5C61.5619 116.78 61.9485 117.213 62.2019 117.8C62.4552 118.373 62.5819 119.1 62.5819 119.98V125.12C62.5819 125.44 62.4952 125.693 62.3219 125.88C62.1485 126.053 61.9019 126.14 61.5819 126.14C61.2485 126.14 60.9952 126.053 60.8219 125.88C60.6485 125.693 60.5619 125.44 60.5619 125.12V120.1C60.5619 119.26 60.3952 118.647 60.0619 118.26C59.7419 117.873 59.2352 117.68 58.5419 117.68C57.7285 117.68 57.0752 117.933 56.5819 118.44C56.1019 118.947 55.8619 119.627 55.8619 120.48V125.12C55.8619 125.8 55.5219 126.14 54.8419 126.14ZM69.7853 129.78C69.0653 129.78 68.3653 129.707 67.6853 129.56C67.0186 129.413 66.412 129.173 65.8653 128.84C65.6653 128.733 65.532 128.6 65.4653 128.44C65.3986 128.293 65.3786 128.14 65.4053 127.98C65.4453 127.82 65.5186 127.68 65.6253 127.56C65.732 127.44 65.8586 127.36 66.0053 127.32C66.1653 127.28 66.332 127.307 66.5053 127.4C67.092 127.72 67.6453 127.933 68.1653 128.04C68.6986 128.16 69.192 128.22 69.6453 128.22C70.5786 128.22 71.2786 127.98 71.7453 127.5C72.212 127.033 72.4453 126.34 72.4453 125.42V123.38H72.6253C72.4253 124.113 72.0053 124.693 71.3653 125.12C70.7253 125.547 69.9853 125.76 69.1453 125.76C68.2653 125.76 67.4986 125.56 66.8453 125.16C66.192 124.747 65.6853 124.18 65.3253 123.46C64.9653 122.727 64.7853 121.873 64.7853 120.9C64.7853 120.167 64.8853 119.507 65.0853 118.92C65.2986 118.333 65.592 117.827 65.9653 117.4C66.352 116.973 66.812 116.647 67.3453 116.42C67.892 116.18 68.492 116.06 69.1453 116.06C69.9986 116.06 70.7386 116.273 71.3653 116.7C72.0053 117.127 72.4186 117.707 72.6053 118.44L72.4053 118.78V117.12C72.4053 116.787 72.492 116.533 72.6653 116.36C72.852 116.187 73.0986 116.1 73.4053 116.1C73.7253 116.1 73.972 116.187 74.1453 116.36C74.3186 116.533 74.4053 116.787 74.4053 117.12V125.18C74.4053 126.7 74.012 127.847 73.2253 128.62C72.4386 129.393 71.292 129.78 69.7853 129.78ZM69.6253 124.18C70.212 124.18 70.712 124.047 71.1253 123.78C71.5386 123.513 71.8586 123.133 72.0853 122.64C72.312 122.147 72.4253 121.567 72.4253 120.9C72.4253 119.9 72.172 119.107 71.6653 118.52C71.172 117.933 70.492 117.64 69.6253 117.64C69.052 117.64 68.5586 117.773 68.1453 118.04C67.732 118.307 67.4053 118.687 67.1653 119.18C66.9386 119.66 66.8253 120.233 66.8253 120.9C66.8253 121.913 67.0786 122.713 67.5853 123.3C68.092 123.887 68.772 124.18 69.6253 124.18Z" fill="#0A0A0B"/>
<g filter="url(#filter0_d_2_114)">
<path d="M68.7447 50.4472C68.58 50.2387 68.4906 49.9802 68.4911 49.7143V42.065C68.4906 41.7991 68.58 41.5406 68.7447 41.3321L72.2737 36.9108C72.9083 36.1161 73.2888 35.1485 73.3651 34.1342C73.4414 33.1199 73.2098 32.1063 72.701 31.2256L70.6434 27.6641C70.1356 26.7827 69.3741 26.0748 68.4579 25.6331C67.5418 25.1913 66.5135 25.0362 65.5079 25.188L59.9166 26.0384C59.6519 26.0755 59.383 26.0243 59.1504 25.8927L52.5257 22.0681C52.2922 21.9279 52.1134 21.7125 52.0182 21.4573L49.9556 16.2138C49.5862 15.2679 48.9403 14.4552 48.1022 13.882C47.264 13.3086 46.2725 13.0013 45.2571 13H41.1317C40.1163 13.0013 39.1248 13.3086 38.2866 13.882C37.4485 14.4552 36.8026 15.2679 36.4332 16.2138L34.3612 21.4573C34.2625 21.7056 34.0839 21.9138 33.8538 22.0493L27.2147 25.8927C26.9826 26.0246 26.7132 26.0759 26.4489 26.0384L20.8717 25.188C19.866 25.0362 18.8378 25.1913 17.9216 25.6331C17.0055 26.0748 16.2438 26.7827 15.7362 27.6641L13.6783 31.2256C13.1694 32.1063 12.9379 33.1199 13.0142 34.1342C13.0905 35.1485 13.471 36.1161 14.1059 36.9108L17.6344 41.3321C17.7996 41.5406 17.889 41.7991 17.8882 42.065V49.7143C17.889 49.9802 17.7996 50.2387 17.6344 50.4472L14.1059 54.8685C13.471 55.6632 13.0905 56.6308 13.0142 57.6451C12.9379 58.6594 13.1694 59.6733 13.6783 60.5537L15.7362 64.1153C16.2438 64.9967 17.0055 65.7045 17.9216 66.146C18.8378 66.588 19.866 66.7433 20.8717 66.5912L26.463 65.7408C26.7273 65.7034 26.9967 65.7545 27.2288 65.8866L33.8538 69.7112C34.0839 69.8465 34.2625 70.0549 34.3612 70.3033L36.4238 75.5656C36.7932 76.5113 37.4391 77.3243 38.2772 77.8974C39.1154 78.4704 40.1069 78.7783 41.1224 78.7793H45.2383C46.2537 78.7783 47.2452 78.4704 48.0834 77.8974C48.9215 77.3243 49.5674 76.5113 49.9368 75.5656L51.9994 70.3033C52.0982 70.0549 52.2767 69.8465 52.5069 69.7112L59.132 65.8866C59.3641 65.755 59.6335 65.704 59.8977 65.7408L65.4889 66.5912C66.4946 66.7433 67.5228 66.588 68.439 66.146C69.3552 65.7045 70.1166 64.9967 70.6245 64.1153L72.6826 60.5537C73.1914 59.6733 73.4224 58.6594 73.3461 57.6451C73.2704 56.6308 72.8899 55.6632 72.2547 54.8685L68.7447 50.4472ZM43.1897 56.4613C41.0988 56.4613 39.0549 55.8413 37.3164 54.6797C35.5779 53.5181 34.2229 51.867 33.4227 49.9352C32.6226 48.0035 32.4133 45.8779 32.8211 43.8272C33.2291 41.7765 34.2359 39.8929 35.7144 38.4143C37.1929 36.9359 39.0766 35.929 41.1273 35.5211C43.178 35.1132 45.3036 35.3226 47.2353 36.1227C49.167 36.9228 50.8181 38.2778 51.9798 40.0164C53.1414 41.7549 53.7614 43.7988 53.7614 45.8897C53.7614 48.6934 52.6476 51.3824 50.665 53.365C48.6824 55.3475 45.9935 56.4613 43.1897 56.4613V56.4613Z" fill="#F3F7FB" stroke="#286FB4" stroke-width="5" stroke-linejoin="round"/>
</g>
<defs>
<filter id="filter0_d_2_114" x="0.5" y="0.5" width="101.379" height="106.779" filterUnits="userSpaceOnUse" color-interpolation-filters="sRGB">
<feFlood flood-opacity="0" result="BackgroundImageFix"/>
<feColorMatrix in="SourceAlpha" type="matrix" values="0 0 0 0 0 0 0 0 0 0 0 0 0 0 0 0 0 0 127 0" result="hardAlpha"/>
<feOffset dx="8" dy="8"/>
<feGaussianBlur stdDeviation="9"/>
<feComposite in2="hardAlpha" operator="out"/>
<feColorMatrix type="matrix" values="0 0 0 0 0.156863 0 0 0 0 0.435294 0 0 0 0 0.705882 0 0 0 0.2 0"/>
<feBlend mode="normal" in2="BackgroundImageFix" result="effect1_dropShadow_2_114"/>
<feBlend mode="normal" in="SourceGraphic" in2="effect1_dropShadow_2_114" result="shape"/>
</filter>
</defs>
</svg>
