<svg width="249" height="35" viewBox="0 0 249 35" fill="none" xmlns="http://www.w3.org/2000/svg">
<path d="M239.162 30.036C238.933 30.0369 238.708 29.9829 238.504 29.8786L231.21 26.0598L223.915 29.8786C223.678 30.0032 223.411 30.0588 223.144 30.0391C222.877 30.0195 222.621 29.9253 222.405 29.7674C222.189 29.6094 222.022 29.394 221.922 29.1457C221.822 28.8974 221.794 28.626 221.841 28.3625L223.272 20.31L217.379 14.5888C217.195 14.4053 217.064 14.1752 217.001 13.9233C216.938 13.6713 216.945 13.4069 217.021 13.1585C217.104 12.9043 217.257 12.6784 217.461 12.5065C217.666 12.3346 217.915 12.2235 218.18 12.1859L226.332 10.9987L229.922 3.66134C230.04 3.41951 230.222 3.21557 230.45 3.07287C230.678 2.93018 230.941 2.85449 231.21 2.85449C231.478 2.85449 231.742 2.93018 231.969 3.07287C232.197 3.21557 232.38 3.41951 232.497 3.66134L236.13 10.9844L244.283 12.1716C244.547 12.2092 244.796 12.3203 245.001 12.4922C245.206 12.6641 245.358 12.89 245.441 13.1442C245.517 13.3926 245.524 13.657 245.461 13.909C245.398 14.1609 245.267 14.391 245.084 14.5745L239.191 20.2957L240.621 28.3482C240.672 28.6164 240.645 28.8935 240.544 29.147C240.443 29.4004 240.271 29.6196 240.049 29.7785C239.79 29.96 239.478 30.0506 239.162 30.036Z" fill="#FFCE31"/>
<path d="M239.185 29.5365L239.173 29.5359L239.16 29.536C239.012 29.5366 238.866 29.5018 238.734 29.4345C238.733 29.4342 238.733 29.4339 238.732 29.4336L231.442 25.6168L231.21 25.4954L230.978 25.6168L223.683 29.4357L223.682 29.4361C223.528 29.5171 223.355 29.5533 223.181 29.5405C223.008 29.5277 222.841 29.4664 222.7 29.3637C222.56 29.261 222.451 29.1209 222.386 28.9594C222.321 28.7979 222.303 28.6214 222.334 28.45L221.841 28.3625L222.334 28.45L223.764 20.3974L223.81 20.1361L223.62 19.9512L217.73 14.2327C217.611 14.1137 217.527 13.9649 217.487 13.802C217.446 13.6396 217.45 13.4693 217.498 13.3091C217.552 13.1455 217.651 13.0003 217.783 12.8895C217.916 12.7776 218.078 12.7054 218.25 12.6809L218.252 12.6807L226.404 11.4935L226.666 11.4555L226.781 11.2185L230.372 3.88108L230.372 3.87928C230.449 3.72199 230.568 3.58935 230.716 3.49653L230.45 3.07287L230.716 3.49653C230.864 3.40372 231.035 3.35449 231.21 3.35449C231.384 3.35449 231.556 3.40372 231.704 3.49653C231.852 3.58935 231.971 3.72199 232.047 3.87928L232.047 3.87929L232.049 3.88354L235.682 11.2067L235.798 11.4415L236.058 11.4792L244.211 12.6664L244.212 12.6666C244.384 12.6911 244.546 12.7633 244.679 12.8752C244.811 12.986 244.91 13.1312 244.964 13.2948C245.012 13.455 245.016 13.6253 244.976 13.7877C244.935 13.9506 244.851 14.0994 244.733 14.2184L238.842 19.9369L238.652 20.1218L238.698 20.3831L240.129 28.4357L240.129 28.4357L240.13 28.4418C240.163 28.6162 240.146 28.7964 240.08 28.9613C240.014 29.1254 239.903 29.2673 239.76 29.3706C239.592 29.4876 239.39 29.546 239.185 29.5365Z" stroke="black" stroke-opacity="0.4"/>
<path d="M21.7796 30.993C21.5553 30.9939 21.3339 30.9404 21.1342 30.8368L13.979 27.0444L6.82366 30.8368C6.59132 30.9605 6.32936 31.0157 6.06756 30.9962C5.80576 30.9766 5.55462 30.8831 5.3427 30.7263C5.13078 30.5694 4.96657 30.3555 4.86875 30.1089C4.77092 29.8623 4.7434 29.5929 4.78932 29.3312L6.19231 21.3345L0.411962 15.6529C0.231617 15.4707 0.103683 15.2423 0.0418901 14.992C-0.0199034 14.7418 -0.0132236 14.4792 0.0612125 14.2326C0.14253 13.9801 0.292113 13.7558 0.492986 13.5851C0.693858 13.4144 0.937978 13.3041 1.19764 13.2667L9.19473 12.0878L12.7163 4.80125C12.8311 4.5611 13.0105 4.35858 13.2338 4.21687C13.4572 4.07516 13.7154 4 13.979 4C14.2425 4 14.5008 4.07516 14.7241 4.21687C14.9474 4.35858 15.1268 4.5611 15.2417 4.80125L18.8053 12.0736L26.8024 13.2525C27.062 13.2899 27.3061 13.4002 27.507 13.5709C27.7079 13.7416 27.8575 13.9659 27.9388 14.2184C28.0132 14.465 28.0199 14.7276 27.9581 14.9778C27.8963 15.2281 27.7684 15.4565 27.588 15.6387L21.8077 21.3203L23.2107 29.317C23.2608 29.5833 23.2345 29.8585 23.1351 30.1102C23.0357 30.3619 22.8672 30.5795 22.6495 30.7374C22.3954 30.9176 22.0895 31.0075 21.7796 30.993Z" fill="#FFCE31"/>
<path d="M21.803 30.4936L21.7903 30.493L21.7776 30.493C21.6349 30.4936 21.494 30.4597 21.3663 30.3939C21.3657 30.3936 21.3651 30.3933 21.3645 30.3929L14.2131 26.6026L13.979 26.4785L13.7448 26.6026L6.58951 30.395L6.58871 30.3954C6.43961 30.4748 6.27199 30.51 6.10476 30.4975C5.93753 30.4851 5.77653 30.4253 5.64014 30.3244C5.5037 30.2234 5.39718 30.0851 5.33352 29.9246C5.26984 29.764 5.25184 29.5883 5.28179 29.4176L4.78932 29.3312L5.28179 29.4176L6.68479 21.4209L6.7302 21.1621L6.54281 20.9779L0.765154 15.299C0.64979 15.1817 0.567341 15.0343 0.527309 14.8722C0.487391 14.7105 0.491312 14.5409 0.538565 14.3815C0.591844 14.2188 0.688432 14.0752 0.816789 13.9661C0.94625 13.8561 1.10292 13.7855 1.26886 13.7616L1.27056 13.7614L9.26765 12.5824L9.52967 12.5438L9.64491 12.3054L13.1664 5.01882L13.1673 5.01703C13.242 4.86091 13.3582 4.73015 13.5017 4.63905C13.6452 4.54798 13.8106 4.5 13.979 4.5C14.1473 4.5 14.3127 4.54798 14.4562 4.63905C14.5998 4.73015 14.7159 4.86091 14.7906 5.01703L14.7906 5.01704L14.7927 5.02127L18.3563 12.2936L18.4721 12.5299L18.7323 12.5682L26.7294 13.7472L26.7311 13.7474C26.8971 13.7713 27.0538 13.8418 27.1832 13.9519C27.3116 14.061 27.4082 14.2046 27.4614 14.3672C27.5087 14.5267 27.5126 14.6963 27.4727 14.858C27.4327 15.0201 27.3502 15.1675 27.2348 15.2848L21.4572 20.9637L21.2698 21.1479L21.3152 21.4067L22.7182 29.4034L22.7182 29.4034L22.7193 29.4094C22.752 29.5831 22.7348 29.7626 22.6701 29.9265C22.6057 30.0894 22.4972 30.2296 22.358 30.3311C22.1951 30.446 22 30.5028 21.803 30.4936Z" stroke="black" stroke-opacity="0.4"/>
<path d="M76.7796 30.993C76.5553 30.9939 76.3339 30.9404 76.1342 30.8368L68.979 27.0444L61.8237 30.8368C61.5913 30.9605 61.3294 31.0157 61.0676 30.9962C60.8058 30.9766 60.5546 30.8831 60.3427 30.7263C60.1308 30.5694 59.9666 30.3555 59.8687 30.1089C59.7709 29.8623 59.7434 29.5929 59.7893 29.3312L61.1923 21.3345L55.412 15.6529C55.2316 15.4707 55.1037 15.2423 55.0419 14.992C54.9801 14.7418 54.9868 14.4792 55.0612 14.2326C55.1425 13.9801 55.2921 13.7558 55.493 13.5851C55.6939 13.4144 55.938 13.3041 56.1976 13.2667L64.1947 12.0878L67.7163 4.80125C67.8311 4.5611 68.0105 4.35858 68.2338 4.21687C68.4572 4.07516 68.7154 4 68.979 4C69.2425 4 69.5008 4.07516 69.7241 4.21687C69.9474 4.35858 70.1268 4.5611 70.2417 4.80125L73.8053 12.0736L81.8024 13.2525C82.062 13.2899 82.3061 13.4002 82.507 13.5709C82.7079 13.7416 82.8575 13.9659 82.9388 14.2184C83.0132 14.465 83.0199 14.7276 82.9581 14.9778C82.8963 15.2281 82.7684 15.4565 82.588 15.6387L76.8077 21.3203L78.2107 29.317C78.2608 29.5833 78.2345 29.8585 78.1351 30.1102C78.0357 30.3619 77.8672 30.5795 77.6495 30.7374C77.3954 30.9176 77.0895 31.0075 76.7796 30.993Z" fill="#FFCE31"/>
<path d="M76.803 30.4936L76.7903 30.493L76.7776 30.493C76.6349 30.4936 76.494 30.4597 76.3663 30.3939C76.3657 30.3936 76.3651 30.3933 76.3645 30.3929L69.2131 26.6026L68.979 26.4785L68.7448 26.6026L61.5895 30.395L61.5887 30.3954C61.4396 30.4748 61.272 30.51 61.1048 30.4975C60.9375 30.4851 60.7765 30.4253 60.6401 30.3244C60.5037 30.2234 60.3972 30.0851 60.3335 29.9246C60.2698 29.764 60.2518 29.5883 60.2818 29.4176L59.7893 29.3312L60.2818 29.4176L61.6848 21.4209L61.7302 21.1621L61.5428 20.9779L55.7652 15.299C55.6498 15.1817 55.5673 15.0343 55.5273 14.8722C55.4874 14.7105 55.4913 14.5409 55.5386 14.3815C55.5918 14.2188 55.6884 14.0752 55.8168 13.9661C55.9462 13.8561 56.1029 13.7855 56.2689 13.7616L56.2706 13.7614L64.2677 12.5824L64.5297 12.5438L64.6449 12.3054L68.1664 5.01882L68.1673 5.01703C68.242 4.86091 68.3582 4.73015 68.5017 4.63905C68.6452 4.54798 68.8106 4.5 68.979 4.5C69.1473 4.5 69.3127 4.54798 69.4562 4.63905C69.5998 4.73015 69.7159 4.86091 69.7906 5.01703L69.7906 5.01704L69.7927 5.02127L73.3563 12.2936L73.4721 12.5299L73.7323 12.5682L81.7294 13.7472L81.7311 13.7474C81.8971 13.7713 82.0538 13.8418 82.1832 13.9519C82.3116 14.061 82.4082 14.2046 82.4614 14.3672C82.5087 14.5267 82.5126 14.6963 82.4727 14.858C82.4327 15.0201 82.3502 15.1675 82.2348 15.2848L76.4572 20.9637L76.2698 21.1479L76.3152 21.4067L77.7182 29.4034L77.7182 29.4034L77.7193 29.4094C77.752 29.5831 77.7348 29.7626 77.6701 29.9265C77.6057 30.0894 77.4972 30.2296 77.358 30.3311C77.1951 30.446 77 30.5028 76.803 30.4936Z" stroke="black" stroke-opacity="0.4"/>
<path d="M130.557 30.993C130.325 30.9939 130.096 30.9404 129.889 30.8368L122.478 27.0444L115.067 30.8368C114.827 30.9605 114.555 31.0157 114.284 30.9962C114.013 30.9766 113.753 30.8831 113.534 30.7263C113.314 30.5694 113.144 30.3555 113.043 30.1089C112.941 29.8623 112.913 29.5929 112.96 29.3312L114.413 21.3345L108.427 15.6529C108.24 15.4707 108.107 15.2423 108.043 14.992C107.979 14.7418 107.986 14.4792 108.063 14.2326C108.148 13.9801 108.303 13.7558 108.511 13.5851C108.719 13.4144 108.971 13.3041 109.24 13.2667L117.523 12.0878L121.17 4.80125C121.289 4.5611 121.475 4.35858 121.706 4.21687C121.938 4.07516 122.205 4 122.478 4C122.751 4 123.019 4.07516 123.25 4.21687C123.481 4.35858 123.667 4.5611 123.786 4.80125L127.477 12.0736L135.76 13.2525C136.029 13.2899 136.281 13.4002 136.489 13.5709C136.697 13.7416 136.852 13.9659 136.937 14.2184C137.014 14.465 137.021 14.7276 136.957 14.9778C136.893 15.2281 136.76 15.4565 136.573 15.6387L130.587 21.3203L132.04 29.317C132.092 29.5833 132.064 29.8585 131.961 30.1102C131.858 30.3619 131.684 30.5795 131.458 30.7374C131.195 30.9176 130.878 31.0075 130.557 30.993Z" fill="#FFCE31"/>
<path d="M130.58 30.4935L130.568 30.493L130.556 30.493C130.402 30.4936 130.251 30.4583 130.115 30.3906C130.114 30.3903 130.114 30.39 130.113 30.3897L122.706 26.5993L122.478 26.4827L122.25 26.5993L114.84 30.3917L114.839 30.3921C114.68 30.4737 114.5 30.5104 114.32 30.4975C114.14 30.4845 113.968 30.4224 113.824 30.3195C113.68 30.2166 113.57 30.0775 113.505 29.9189C113.44 29.7605 113.422 29.588 113.452 29.4206L112.96 29.3312L113.452 29.4206L114.905 21.4238L114.954 21.1579L114.758 20.9718L108.774 15.2929C108.653 15.1745 108.569 15.0275 108.528 14.8681C108.487 14.7094 108.491 14.5431 108.539 14.3863C108.594 14.2261 108.693 14.0822 108.828 13.9716C108.964 13.8599 109.131 13.7868 109.309 13.762L109.311 13.7617L117.594 12.5828L117.853 12.5459L117.97 12.3116L121.618 5.02506L121.618 5.02324C121.695 4.86851 121.816 4.73638 121.968 4.64321C122.12 4.54999 122.297 4.5 122.478 4.5C122.66 4.5 122.837 4.54999 122.989 4.64321C123.141 4.73638 123.261 4.86851 123.338 5.02324L123.338 5.02325L123.34 5.02754L127.031 12.2999L127.149 12.5319L127.406 12.5686L135.689 13.7475L135.691 13.7477C135.869 13.7726 136.036 13.8457 136.172 13.9574C136.307 14.068 136.406 14.2119 136.461 14.3721C136.509 14.5289 136.513 14.6952 136.472 14.8539C136.431 15.0133 136.347 15.1603 136.226 15.2787L130.242 20.9576L130.046 21.1437L130.095 21.4096L131.548 29.4064L131.548 29.4064L131.549 29.4126C131.582 29.5829 131.565 29.7591 131.499 29.9208C131.433 30.0818 131.321 30.2229 131.174 30.3263C131.001 30.4437 130.793 30.5031 130.58 30.4935Z" stroke="black" stroke-opacity="0.4"/>
<path d="M184.131 30.036C183.902 30.0369 183.676 29.9829 183.473 29.8786L176.178 26.0598L168.884 29.8786C168.647 30.0032 168.38 30.0588 168.113 30.0391C167.846 30.0195 167.59 29.9253 167.374 29.7674C167.158 29.6094 166.99 29.394 166.891 29.1457C166.791 28.8974 166.763 28.626 166.81 28.3625L168.24 20.31L162.347 14.5888C162.163 14.4053 162.033 14.1752 161.97 13.9233C161.907 13.6713 161.914 13.4069 161.99 13.1585C162.073 12.9043 162.225 12.6784 162.43 12.5065C162.635 12.3346 162.883 12.2235 163.148 12.1859L171.301 10.9987L174.891 3.66134C175.008 3.41951 175.191 3.21557 175.419 3.07287C175.646 2.93018 175.909 2.85449 176.178 2.85449C176.447 2.85449 176.71 2.93018 176.938 3.07287C177.165 3.21557 177.348 3.41951 177.465 3.66134L181.098 10.9844L189.251 12.1716C189.516 12.2092 189.765 12.3203 189.969 12.4922C190.174 12.6641 190.327 12.89 190.41 13.1442C190.486 13.3926 190.492 13.657 190.429 13.909C190.366 14.1609 190.236 14.391 190.052 14.5745L184.159 20.2957L185.59 28.3482C185.641 28.6164 185.614 28.8935 185.512 29.147C185.411 29.4004 185.239 29.6196 185.017 29.7785C184.758 29.96 184.447 30.0506 184.131 30.036Z" fill="#FFCE31"/>
<path d="M184.154 29.5365L184.141 29.5359L184.129 29.536C183.98 29.5366 183.834 29.5018 183.702 29.4345C183.702 29.4342 183.701 29.4339 183.701 29.4336L176.41 25.6168L176.178 25.4954L175.946 25.6168L168.652 29.4357L168.651 29.4361C168.497 29.5171 168.323 29.5533 168.15 29.5405C167.976 29.5277 167.809 29.4664 167.669 29.3637C167.528 29.261 167.42 29.1209 167.355 28.9594C167.29 28.7979 167.272 28.6214 167.302 28.45L166.81 28.3625L167.302 28.45L168.732 20.3974L168.779 20.1361L168.588 19.9512L162.698 14.2327C162.58 14.1137 162.496 13.9649 162.455 13.802C162.414 13.6396 162.418 13.4693 162.466 13.3091C162.521 13.1455 162.619 13.0003 162.751 12.8895C162.885 12.7776 163.046 12.7054 163.219 12.6809L163.22 12.6807L171.373 11.4935L171.634 11.4555L171.75 11.2185L175.34 3.88108L175.341 3.87928C175.417 3.72199 175.536 3.58935 175.684 3.49653L175.419 3.07287L175.684 3.49653C175.832 3.40372 176.003 3.35449 176.178 3.35449C176.353 3.35449 176.524 3.40372 176.672 3.49653C176.82 3.58935 176.939 3.72199 177.015 3.87928L177.015 3.87929L177.018 3.88354L180.65 11.2067L180.767 11.4415L181.026 11.4792L189.179 12.6664L189.181 12.6666C189.353 12.6911 189.515 12.7633 189.648 12.8752C189.78 12.986 189.879 13.1312 189.933 13.2948C189.981 13.455 189.985 13.6253 189.944 13.7877C189.904 13.9506 189.819 14.0994 189.701 14.2184L183.811 19.9369L183.621 20.1218L183.667 20.3831L185.097 28.4357L185.097 28.4357L185.098 28.4418C185.132 28.6162 185.114 28.7964 185.048 28.9613C184.983 29.1254 184.872 29.2673 184.728 29.3706C184.56 29.4876 184.358 29.546 184.154 29.5365Z" stroke="black" stroke-opacity="0.4"/>
</svg>
