<svg width="102" height="129" viewBox="0 0 102 129" fill="none" xmlns="http://www.w3.org/2000/svg">
<path d="M25.34 122.18C24.7267 122.18 24.1267 122.133 23.54 122.04C22.9533 121.947 22.4 121.807 21.88 121.62C21.36 121.42 20.8933 121.18 20.48 120.9C20.28 120.753 20.14 120.587 20.06 120.4C19.9933 120.213 19.9733 120.033 20 119.86C20.04 119.673 20.12 119.513 20.24 119.38C20.36 119.247 20.5067 119.167 20.68 119.14C20.8533 119.1 21.0467 119.153 21.26 119.3C21.86 119.687 22.4933 119.973 23.16 120.16C23.8267 120.333 24.5533 120.42 25.34 120.42C26.4733 120.42 27.3067 120.22 27.84 119.82C28.3867 119.407 28.66 118.873 28.66 118.22C28.66 117.687 28.4667 117.267 28.08 116.96C27.6933 116.64 27.0467 116.387 26.14 116.2L24 115.76C22.7333 115.493 21.7867 115.053 21.16 114.44C20.5467 113.827 20.24 113 20.24 111.96C20.24 111.333 20.3667 110.76 20.62 110.24C20.8867 109.72 21.2533 109.273 21.72 108.9C22.1867 108.513 22.7467 108.22 23.4 108.02C24.0533 107.82 24.7667 107.72 25.54 107.72C26.3667 107.72 27.14 107.827 27.86 108.04C28.5933 108.253 29.2467 108.58 29.82 109.02C29.9933 109.14 30.1067 109.293 30.16 109.48C30.2267 109.653 30.24 109.827 30.2 110C30.1733 110.173 30.1 110.32 29.98 110.44C29.86 110.56 29.7067 110.633 29.52 110.66C29.3333 110.673 29.1267 110.607 28.9 110.46C28.38 110.113 27.8467 109.867 27.3 109.72C26.7667 109.56 26.1733 109.48 25.52 109.48C24.8667 109.48 24.2933 109.58 23.8 109.78C23.32 109.98 22.9467 110.26 22.68 110.62C22.4267 110.98 22.3 111.407 22.3 111.9C22.3 112.46 22.48 112.907 22.84 113.24C23.2 113.573 23.8 113.827 24.64 114L26.76 114.44C28.0933 114.72 29.0867 115.153 29.74 115.74C30.3933 116.327 30.72 117.107 30.72 118.08C30.72 118.707 30.5933 119.273 30.34 119.78C30.0867 120.273 29.7267 120.7 29.26 121.06C28.7933 121.42 28.2267 121.7 27.56 121.9C26.9067 122.087 26.1667 122.18 25.34 122.18ZM36.9628 122.18C36.1628 122.18 35.4895 122.04 34.9428 121.76C34.3961 121.48 33.9895 121.067 33.7228 120.52C33.4561 119.973 33.3228 119.307 33.3228 118.52V113.8H32.1228C31.8561 113.8 31.6495 113.733 31.5028 113.6C31.3561 113.453 31.2828 113.26 31.2828 113.02C31.2828 112.767 31.3561 112.573 31.5028 112.44C31.6495 112.307 31.8561 112.24 32.1228 112.24H33.3228V110.18C33.3228 109.847 33.4095 109.593 33.5828 109.42C33.7695 109.247 34.0228 109.16 34.3428 109.16C34.6628 109.16 34.9095 109.247 35.0828 109.42C35.2561 109.593 35.3428 109.847 35.3428 110.18V112.24H37.6828C37.9495 112.24 38.1561 112.307 38.3028 112.44C38.4495 112.573 38.5228 112.767 38.5228 113.02C38.5228 113.26 38.4495 113.453 38.3028 113.6C38.1561 113.733 37.9495 113.8 37.6828 113.8H35.3428V118.36C35.3428 119.067 35.4895 119.6 35.7828 119.96C36.0895 120.32 36.5828 120.5 37.2628 120.5C37.5028 120.5 37.7095 120.48 37.8828 120.44C38.0695 120.387 38.2228 120.353 38.3428 120.34C38.4895 120.34 38.6095 120.393 38.7028 120.5C38.7961 120.593 38.8428 120.78 38.8428 121.06C38.8428 121.26 38.8028 121.447 38.7228 121.62C38.6561 121.793 38.5295 121.907 38.3428 121.96C38.1828 122.013 37.9628 122.06 37.6828 122.1C37.4161 122.153 37.1761 122.18 36.9628 122.18ZM43.2275 122.18C42.5475 122.18 41.9342 122.047 41.3875 121.78C40.8542 121.513 40.4342 121.153 40.1275 120.7C39.8208 120.247 39.6675 119.733 39.6675 119.16C39.6675 118.44 39.8475 117.873 40.2075 117.46C40.5808 117.033 41.1875 116.733 42.0275 116.56C42.8808 116.373 44.0275 116.28 45.4675 116.28H46.4075V117.52H45.4875C44.5275 117.52 43.7675 117.567 43.2075 117.66C42.6475 117.753 42.2475 117.913 42.0075 118.14C41.7808 118.353 41.6675 118.653 41.6675 119.04C41.6675 119.547 41.8408 119.96 42.1875 120.28C42.5342 120.587 43.0142 120.74 43.6275 120.74C44.1208 120.74 44.5542 120.627 44.9275 120.4C45.3008 120.16 45.5942 119.84 45.8075 119.44C46.0342 119.04 46.1475 118.58 46.1475 118.06V115.76C46.1475 115 45.9875 114.453 45.6675 114.12C45.3475 113.787 44.8208 113.62 44.0875 113.62C43.6608 113.62 43.2142 113.673 42.7475 113.78C42.2942 113.887 41.8208 114.067 41.3275 114.32C41.1008 114.427 40.9075 114.46 40.7475 114.42C40.5875 114.38 40.4608 114.293 40.3675 114.16C40.2742 114.013 40.2208 113.86 40.2075 113.7C40.2075 113.527 40.2475 113.36 40.3275 113.2C40.4208 113.04 40.5742 112.92 40.7875 112.84C41.3742 112.56 41.9542 112.36 42.5275 112.24C43.1008 112.12 43.6408 112.06 44.1475 112.06C45.0408 112.06 45.7742 112.2 46.3475 112.48C46.9342 112.76 47.3675 113.187 47.6475 113.76C47.9275 114.333 48.0675 115.073 48.0675 115.98V121.12C48.0675 121.44 47.9875 121.693 47.8275 121.88C47.6675 122.053 47.4342 122.14 47.1275 122.14C46.8342 122.14 46.6008 122.053 46.4275 121.88C46.2542 121.693 46.1675 121.44 46.1675 121.12V119.82H46.3475C46.2408 120.313 46.0408 120.74 45.7475 121.1C45.4675 121.447 45.1142 121.713 44.6875 121.9C44.2608 122.087 43.7742 122.18 43.2275 122.18ZM55.0097 122.18C54.2097 122.18 53.5364 122.04 52.9897 121.76C52.443 121.48 52.0364 121.067 51.7697 120.52C51.503 119.973 51.3697 119.307 51.3697 118.52V113.8H50.1697C49.903 113.8 49.6964 113.733 49.5497 113.6C49.403 113.453 49.3297 113.26 49.3297 113.02C49.3297 112.767 49.403 112.573 49.5497 112.44C49.6964 112.307 49.903 112.24 50.1697 112.24H51.3697V110.18C51.3697 109.847 51.4564 109.593 51.6297 109.42C51.8164 109.247 52.0697 109.16 52.3897 109.16C52.7097 109.16 52.9564 109.247 53.1297 109.42C53.303 109.593 53.3897 109.847 53.3897 110.18V112.24H55.7297C55.9964 112.24 56.203 112.307 56.3497 112.44C56.4964 112.573 56.5697 112.767 56.5697 113.02C56.5697 113.26 56.4964 113.453 56.3497 113.6C56.203 113.733 55.9964 113.8 55.7297 113.8H53.3897V118.36C53.3897 119.067 53.5364 119.6 53.8297 119.96C54.1364 120.32 54.6297 120.5 55.3097 120.5C55.5497 120.5 55.7564 120.48 55.9297 120.44C56.1164 120.387 56.2697 120.353 56.3897 120.34C56.5364 120.34 56.6564 120.393 56.7497 120.5C56.843 120.593 56.8897 120.78 56.8897 121.06C56.8897 121.26 56.8497 121.447 56.7697 121.62C56.703 121.793 56.5764 121.907 56.3897 121.96C56.2297 122.013 56.0097 122.06 55.7297 122.1C55.463 122.153 55.223 122.18 55.0097 122.18ZM61.5744 122.18C60.9877 122.18 60.381 122.113 59.7544 121.98C59.141 121.847 58.5744 121.62 58.0544 121.3C57.881 121.18 57.761 121.047 57.6944 120.9C57.6277 120.753 57.601 120.607 57.6144 120.46C57.641 120.3 57.701 120.167 57.7944 120.06C57.901 119.94 58.0277 119.867 58.1744 119.84C58.3344 119.813 58.501 119.847 58.6744 119.94C59.1944 120.233 59.6944 120.44 60.1744 120.56C60.6544 120.667 61.1277 120.72 61.5944 120.72C62.301 120.72 62.8344 120.593 63.1944 120.34C63.5544 120.087 63.7344 119.747 63.7344 119.32C63.7344 118.973 63.6144 118.707 63.3744 118.52C63.1344 118.32 62.7744 118.167 62.2944 118.06L60.3944 117.68C59.5677 117.507 58.941 117.2 58.5144 116.76C58.0877 116.32 57.8744 115.76 57.8744 115.08C57.8744 114.467 58.041 113.933 58.3744 113.48C58.7077 113.027 59.1744 112.68 59.7744 112.44C60.3744 112.187 61.0677 112.06 61.8544 112.06C62.441 112.06 62.9944 112.133 63.5144 112.28C64.0344 112.427 64.5144 112.647 64.9544 112.94C65.1277 113.033 65.241 113.16 65.2944 113.32C65.3477 113.467 65.3544 113.613 65.3144 113.76C65.2877 113.907 65.221 114.04 65.1144 114.16C65.0077 114.267 64.8744 114.333 64.7144 114.36C64.5677 114.373 64.401 114.333 64.2144 114.24C63.8144 113.987 63.4144 113.807 63.0144 113.7C62.6277 113.593 62.241 113.54 61.8544 113.54C61.1477 113.54 60.6144 113.673 60.2544 113.94C59.9077 114.193 59.7344 114.54 59.7344 114.98C59.7344 115.313 59.841 115.587 60.0544 115.8C60.2677 116.013 60.601 116.167 61.0544 116.26L62.9544 116.64C63.821 116.813 64.4744 117.107 64.9144 117.52C65.3677 117.933 65.5944 118.493 65.5944 119.2C65.5944 120.12 65.2277 120.847 64.4944 121.38C63.761 121.913 62.7877 122.18 61.5744 122.18Z" fill="#0A0A0B"/>
<g filter="url(#filter0_d_2_112)">
<path d="M14.0137 58.9777C14.7582 65.9367 20.3552 71.5337 27.3107 72.3089C32.477 72.8847 37.7815 73.3793 43.1897 73.3793C48.5979 73.3793 53.9024 72.8847 59.0685 72.3089C66.0242 71.5337 71.6211 65.9367 72.3654 58.9777C72.9151 53.8407 73.3793 48.5666 73.3793 43.1897C73.3793 37.8127 72.9151 32.5387 72.3654 27.4015C71.6211 20.4427 66.0242 14.8457 59.0685 14.0704C53.9024 13.4946 48.5979 13 43.1897 13C37.7815 13 32.477 13.4946 27.3107 14.0704C20.3552 14.8457 14.7582 20.4427 14.0137 27.4015C13.4641 32.5387 13 37.8127 13 43.1897C13 48.5666 13.4641 53.8407 14.0137 58.9777Z" fill="#F3F7FB" stroke="#286FB4" stroke-width="5" stroke-linejoin="round"/>
<path d="M26.5063 42.2998H32.7136L38.2747 30.579L46.251 55.8002L53.6659 42.2998H59.8732" stroke="#286FB4" stroke-width="5" stroke-linecap="round" stroke-linejoin="round"/>
</g>
<defs>
<filter id="filter0_d_2_112" x="0.5" y="0.5" width="101.379" height="101.379" filterUnits="userSpaceOnUse" color-interpolation-filters="sRGB">
<feFlood flood-opacity="0" result="BackgroundImageFix"/>
<feColorMatrix in="SourceAlpha" type="matrix" values="0 0 0 0 0 0 0 0 0 0 0 0 0 0 0 0 0 0 127 0" result="hardAlpha"/>
<feOffset dx="8" dy="8"/>
<feGaussianBlur stdDeviation="9"/>
<feComposite in2="hardAlpha" operator="out"/>
<feColorMatrix type="matrix" values="0 0 0 0 0.156863 0 0 0 0 0.435294 0 0 0 0 0.705882 0 0 0 0.2 0"/>
<feBlend mode="normal" in2="BackgroundImageFix" result="effect1_dropShadow_2_112"/>
<feBlend mode="normal" in="SourceGraphic" in2="effect1_dropShadow_2_112" result="shape"/>
</filter>
</defs>
</svg>
