<svg width="22" height="25" viewBox="0 0 22 25" fill="none" xmlns="http://www.w3.org/2000/svg">
<path d="M18.7667 5.28947C18.5998 5.2032 18.4373 5.10862 18.2798 5.00609C17.8219 4.70336 17.402 4.34666 17.0293 3.94366C16.0967 2.8766 15.7484 1.79407 15.6201 1.03615H15.6253C15.5181 0.407041 15.5624 0 15.5691 0H11.3215V16.4249C11.3215 16.6454 11.3215 16.8633 11.3122 17.0787C11.3122 17.1055 11.3096 17.1302 11.3081 17.1591C11.3081 17.1709 11.3081 17.1833 11.3055 17.1957V17.205C11.2607 17.7943 11.0718 18.3636 10.7554 18.8627C10.4389 19.3619 10.0047 19.7757 9.49081 20.0676C8.95524 20.3723 8.3495 20.5322 7.73332 20.5314C5.75428 20.5314 4.15033 18.9176 4.15033 16.9247C4.15033 14.9317 5.75428 13.318 7.73332 13.318C8.10794 13.3176 8.48026 13.3766 8.83645 13.4926L8.84161 9.1677C7.7603 9.02802 6.66178 9.11396 5.61535 9.42008C4.56892 9.72621 3.59729 10.2459 2.76175 10.9463C2.02963 11.5824 1.41413 12.3414 0.94295 13.1892C0.763646 13.4983 0.0871335 14.7406 0.00521006 16.7567C-0.0463141 17.901 0.297352 19.0866 0.461199 19.5766V19.5869C0.564247 19.8755 0.96356 20.8601 1.61431 21.6901C2.13905 22.356 2.75902 22.9409 3.45424 23.426V23.4157L3.46454 23.426C5.52087 24.8233 7.80082 24.7316 7.80082 24.7316C8.19549 24.7156 9.5176 24.7316 11.019 24.0201C12.6843 23.2312 13.6323 22.056 13.6323 22.056C14.238 21.3537 14.7196 20.5534 15.0565 19.6894C15.4408 18.6791 15.5691 17.4672 15.5691 16.9829V8.26912C15.6206 8.30003 16.3069 8.75396 16.3069 8.75396C16.3069 8.75396 17.2957 9.38771 18.8383 9.80041C19.9451 10.0941 21.4362 10.1559 21.4362 10.1559V5.93919C20.9137 5.99587 19.8528 5.83099 18.7667 5.28947Z" fill="white"/>
</svg>
