<svg width="160" height="160" viewBox="0 0 160 160" fill="none" xmlns="http://www.w3.org/2000/svg">
<circle cx="80" cy="80" r="80" fill="#D9D9D9"/>
<path d="M94 84.3334H100.5V96.5534L111.073 102.663L107.823 108.297L94 100.323V84.3334ZM111.333 62.6667H50.6667V110.333H70.9033C69.04 106.39 68 101.97 68 97.3334C68 89.2885 71.1958 81.5731 76.8844 75.8845C82.573 70.1959 90.2884 67 98.3333 67C102.97 67 107.39 68.04 111.333 69.9034V62.6667ZM50.6667 119C48.3681 119 46.1637 118.087 44.5384 116.462C42.9131 114.836 42 112.632 42 110.333V49.6667C42 44.8567 45.8567 41 50.6667 41H55V32.3334H63.6667V41H98.3333V32.3334H107V41H111.333C113.632 41 115.836 41.9131 117.462 43.5384C119.087 45.1638 120 47.3682 120 49.6667V76.1C125.373 81.56 128.667 89.0567 128.667 97.3334C128.667 105.378 125.471 113.094 119.782 118.782C114.094 124.471 106.378 127.667 98.3333 127.667C90.0567 127.667 82.56 124.373 77.1 119H50.6667ZM98.3333 76.3167C92.7594 76.3167 87.4137 78.531 83.4723 82.4723C79.5309 86.4137 77.3167 91.7594 77.3167 97.3334C77.3167 108.947 86.72 118.35 98.3333 118.35C101.093 118.35 103.826 117.806 106.376 116.75C108.926 115.694 111.243 114.146 113.194 112.194C115.146 110.243 116.694 107.926 117.75 105.376C118.806 102.826 119.35 100.093 119.35 97.3334C119.35 85.72 109.947 76.3167 98.3333 76.3167Z" fill="#205696"/>
</svg>
