<svg width="256" height="155" viewBox="0 0 256 155" fill="none" xmlns="http://www.w3.org/2000/svg">
<path d="M56.1818 109.883C56.1818 112.595 55.6207 115.117 54.5046 117.449C53.3854 119.784 51.7956 121.838 49.7383 123.615C51.7956 125.298 53.3854 127.307 54.5046 129.648C55.6207 131.983 56.1818 134.499 56.1818 137.202C56.1818 139.633 55.7143 141.944 54.7821 144.14C53.847 146.336 52.5649 148.231 50.9329 149.823C49.2979 151.41 47.4034 152.668 45.2495 153.6C43.1017 154.535 40.8121 155 38.3837 155H4.19916C3.07999 155 2.09958 154.608 1.25492 153.817C0.416296 153.021 0 152.062 0 150.934C0 149.817 0.416296 148.84 1.25492 148.001C2.09958 147.157 3.07999 146.734 4.19916 146.734H38.3837C41.0926 146.734 43.3581 145.826 45.1771 144.007C47.0022 142.182 47.9162 139.914 47.9162 137.202C47.9162 134.589 47.0022 132.348 45.1771 130.481C43.3581 128.616 41.0926 127.681 38.3837 127.681H17.9309C16.7152 127.681 15.7106 127.283 14.9142 126.487C14.1239 125.69 13.7317 124.734 13.7317 123.615C13.7317 122.402 14.1239 121.401 14.9142 120.61C15.7106 119.814 16.7152 119.416 17.9309 119.416H38.3837C41.0926 119.416 43.3581 118.508 45.1771 116.689C47.0022 114.864 47.9162 112.595 47.9162 109.883C47.9162 107.174 47.0022 104.909 45.1771 103.09C43.3581 101.265 41.0926 100.351 38.3837 100.351H4.19916C3.07999 100.351 2.09958 99.9342 1.25492 99.0956C0.416296 98.251 0 97.2706 0 96.1514C0 95.0352 0.416296 94.0759 1.25492 93.2795C2.09958 92.4832 3.07999 92.085 4.19916 92.085H38.3837C40.8121 92.085 43.1017 92.5525 45.2495 93.4847C47.4034 94.4198 49.2979 95.7049 50.9329 97.346C52.5649 98.981 53.847 100.869 54.7821 103.017C55.7143 105.165 56.1818 107.455 56.1818 109.883Z" fill="#286FB4"/>
<path d="M96.6753 91.9523C101.903 91.9523 106.853 93.2132 111.529 95.7291C114.793 97.5089 117.599 99.705 119.94 102.317V61.8221C119.94 60.7059 120.332 59.7467 121.122 58.9503C121.919 58.1539 122.923 57.7557 124.139 57.7557C125.255 57.7557 126.214 58.1539 127.011 58.9503C127.807 59.7467 128.205 60.7059 128.205 61.8221V123.47C128.205 127.862 127.385 131.953 125.744 135.742C124.109 139.525 121.846 142.861 118.95 145.757C116.054 148.653 112.691 150.918 108.863 152.55C105.031 154.185 100.971 155 96.6753 155C92.2831 155 88.1956 154.185 84.4157 152.55C80.6329 150.918 77.2965 148.653 74.4005 145.757C71.5045 142.861 69.236 139.525 67.595 135.742C65.9599 131.953 65.1454 127.862 65.1454 123.47C65.1454 119.174 65.9599 115.114 67.595 111.283C69.236 107.455 71.5045 104.091 74.4005 101.195C77.2965 98.2993 80.6329 96.0368 84.4157 94.4018C88.1956 92.7698 92.2831 91.9523 96.6753 91.9523ZM119.94 123.47C119.94 120.294 119.33 117.28 118.118 114.432C116.902 111.585 115.24 109.111 113.134 107.011C111.035 104.912 108.561 103.256 105.713 102.04C102.865 100.827 99.8518 100.218 96.6753 100.218C93.4958 100.218 90.4852 100.827 87.6375 102.04C84.7898 103.256 82.3101 104.912 80.2045 107.011C78.1049 109.111 76.4458 111.585 75.2331 114.432C74.0174 117.28 73.411 120.294 73.411 123.47C73.411 126.746 74.0174 129.781 75.2331 132.58C76.4458 135.38 78.1049 137.835 80.2045 139.941C82.3101 142.04 84.7898 143.7 87.6375 144.912C90.4852 146.128 93.4958 146.734 96.6753 146.734C99.8518 146.734 102.865 146.128 105.713 144.912C108.561 143.7 111.035 142.04 113.134 139.941C115.24 137.835 116.902 135.38 118.118 132.58C119.33 129.781 119.94 126.746 119.94 123.47Z" fill="#286FB4"/>
<path d="M181.16 151.211C178.922 152.427 176.566 153.365 174.089 154.023C171.609 154.674 169.063 155 166.451 155C162.059 155 157.971 154.186 154.191 152.551C150.409 150.919 147.072 148.653 144.176 145.757C141.28 142.861 139.012 139.525 137.371 135.742C135.736 131.953 134.921 127.862 134.921 123.47C134.921 119.174 135.736 115.114 137.371 111.283C139.012 107.455 141.28 104.091 144.176 101.195C147.072 98.2993 150.409 96.0369 154.191 94.4018C157.971 92.7698 162.059 91.9523 166.451 91.9523C170.747 91.9523 174.807 92.7698 178.638 94.4018C182.466 96.0369 185.83 98.2993 188.726 101.195C191.622 104.091 193.884 107.455 195.519 111.283C197.16 115.114 197.981 119.174 197.981 123.47V150.801C197.981 151.92 197.583 152.9 196.786 153.745C195.99 154.584 194.982 155 193.77 155C192.65 155 191.694 154.584 190.898 153.745C190.107 152.9 189.715 151.92 189.715 150.801V144.635C187.374 147.25 184.521 149.443 181.16 151.211ZM143.187 123.47C143.187 126.65 143.793 129.66 145.009 132.508C146.221 135.356 147.881 137.835 149.98 139.941C152.086 142.041 154.565 143.7 157.413 144.912C160.261 146.128 163.271 146.734 166.451 146.734C169.628 146.734 172.641 146.128 175.489 144.912C178.337 143.7 180.81 142.041 182.91 139.941C185.015 137.835 186.678 135.356 187.893 132.508C189.106 129.66 189.715 126.65 189.715 123.47C189.715 120.294 189.106 117.28 187.893 114.432C186.678 111.585 185.015 109.111 182.91 107.011C180.81 104.912 178.337 103.256 175.489 102.04C172.641 100.827 169.628 100.218 166.451 100.218C163.271 100.218 160.261 100.827 157.413 102.04C154.565 103.256 152.086 104.912 149.98 107.011C147.881 109.111 146.221 111.585 145.009 114.432C143.793 117.28 143.187 120.294 143.187 123.47Z" fill="#286FB4"/>
<path d="M123.941 52.8101C122.822 52.8101 121.865 52.4119 121.069 51.6155C120.272 50.8191 119.874 49.8628 119.874 48.7437V47.1992C119.874 46.083 120.272 45.1056 121.069 44.267C121.865 43.4223 122.822 43 123.941 43C125.057 43 126.034 43.4223 126.873 44.267C127.718 45.1056 128.14 46.083 128.14 47.1992V48.7437C128.14 49.8628 127.718 50.8191 126.873 51.6155C126.034 52.4119 125.057 52.8101 123.941 52.8101ZM123.941 121.324C122.822 121.324 121.865 120.932 121.069 120.141C120.272 119.345 119.874 118.34 119.874 117.125V62.4754C119.874 61.2627 120.272 60.2612 121.069 59.4708C121.865 58.6744 122.822 58.2762 123.941 58.2762C125.057 58.2762 126.034 58.6744 126.873 59.4708C127.718 60.2612 128.14 61.2627 128.14 62.4754V117.125C128.14 118.34 127.718 119.345 126.873 120.141C126.034 120.932 125.057 121.324 123.941 121.324Z" fill="#286FB4"/>
<g filter="url(#filter0_d_2_395)">
<path d="M177.427 59.4493C173.191 59.0553 169.631 55.9567 169.044 51.7428C168.373 46.921 168 41.9639 168 36.8611C168 31.5782 168.373 26.3799 169.092 21.4029C169.66 17.4667 172.873 14.4956 176.828 14.0802C183.51 13.3784 190.491 13 197.631 13C204.747 13 211.605 13.4011 218.293 14.0927C222.316 14.5086 225.583 17.5414 226.154 21.545C226.859 26.4835 227.261 31.6239 227.261 36.8611C227.261 42.0569 226.821 47.1083 226.128 52.0127C225.552 56.0927 222.233 59.2066 218.134 59.6233C211.51 60.296 204.683 60.7222 197.631 60.7222C197.462 60.7222 197.293 60.7217 197.124 60.7213C192.152 66.4412 188.339 69.2681 181.676 72.2611V59.8428C180.595 59.7451 179.521 59.6446 178.453 59.5451C178.111 59.5133 177.769 59.4811 177.427 59.4493Z" fill="#F3F7FB" stroke="#286FB4" stroke-width="5" stroke-linecap="round" stroke-linejoin="round"/>
<path d="M197.616 39.8267C197.616 38.1149 199.008 37.065 201.464 35.4238C203.742 33.9016 204.944 31.9269 204.409 29.2395C203.875 26.5522 201.654 24.3317 198.967 23.7972C194.749 22.9581 190.689 26.2897 190.689 30.5907" fill="#F3F7FB"/>
<path d="M197.616 39.8267C197.616 38.1149 199.008 37.065 201.464 35.4238C203.742 33.9016 204.944 31.9269 204.409 29.2395C203.875 26.5522 201.654 24.3317 198.967 23.7972C194.749 22.9581 190.689 26.2897 190.689 30.5907" stroke="#286FB4" stroke-width="5" stroke-linecap="round" stroke-linejoin="round"/>
<path d="M197.612 49.684C197.285 49.684 197.019 49.4187 197.019 49.0914C197.019 48.7641 197.285 48.4988 197.612 48.4988" fill="#F3F7FB"/>
<path d="M197.612 49.684C197.285 49.684 197.019 49.4187 197.019 49.0914C197.019 48.7641 197.285 48.4988 197.612 48.4988" stroke="#286FB4" stroke-width="5" stroke-linejoin="round"/>
<path d="M197.612 49.684C197.939 49.684 198.205 49.4187 198.205 49.0914C198.205 48.7641 197.939 48.4988 197.612 48.4988" fill="#F3F7FB"/>
<path d="M197.612 49.684C197.939 49.684 198.205 49.4187 198.205 49.0914C198.205 48.7641 197.939 48.4988 197.612 48.4988" stroke="#286FB4" stroke-width="5" stroke-linejoin="round"/>
</g>
<defs>
<filter id="filter0_d_2_395" x="155.5" y="0.5" width="100.261" height="100.261" filterUnits="userSpaceOnUse" color-interpolation-filters="sRGB">
<feFlood flood-opacity="0" result="BackgroundImageFix"/>
<feColorMatrix in="SourceAlpha" type="matrix" values="0 0 0 0 0 0 0 0 0 0 0 0 0 0 0 0 0 0 127 0" result="hardAlpha"/>
<feOffset dx="8" dy="8"/>
<feGaussianBlur stdDeviation="9"/>
<feComposite in2="hardAlpha" operator="out"/>
<feColorMatrix type="matrix" values="0 0 0 0 0.156863 0 0 0 0 0.435294 0 0 0 0 0.705882 0 0 0 0.2 0"/>
<feBlend mode="normal" in2="BackgroundImageFix" result="effect1_dropShadow_2_395"/>
<feBlend mode="normal" in="SourceGraphic" in2="effect1_dropShadow_2_395" result="shape"/>
</filter>
</defs>
</svg>
