<svg width="19" height="19" viewBox="0 0 19 19" fill="none" xmlns="http://www.w3.org/2000/svg">
<path d="M0.534621 18.6499L1.74219 14.2126C0.946497 12.8486 0.528455 11.2972 0.531048 9.71812C0.531048 4.78512 4.52979 0.786377 9.46279 0.786377C14.3958 0.786377 18.3945 4.78512 18.3945 9.71812C18.3945 14.6511 14.3958 18.6499 9.46279 18.6499C7.88435 18.6524 6.33369 18.2347 4.97012 17.4396L0.534621 18.6499ZM6.23932 5.52734C6.12398 5.53451 6.01127 5.56489 5.90796 5.61666C5.81107 5.67153 5.72262 5.74012 5.64536 5.82031C5.53818 5.92123 5.47745 6.00876 5.41224 6.09362C5.08214 6.52323 4.90457 7.05058 4.9076 7.59236C4.90939 8.03002 5.02371 8.45606 5.20235 8.85442C5.56766 9.66006 6.16876 10.513 6.96279 11.3035C7.15393 11.4937 7.34061 11.6849 7.54157 11.8626C8.52709 12.7303 9.70149 13.356 10.9714 13.6901L11.4796 13.7678C11.6448 13.7767 11.81 13.7642 11.9762 13.7562C12.2363 13.7427 12.4903 13.6723 12.7202 13.5498C12.8685 13.4712 12.9381 13.4319 13.0623 13.3533C13.0623 13.3533 13.1007 13.3283 13.1739 13.2729C13.2945 13.1836 13.3686 13.1202 13.4687 13.0157C13.5428 12.9389 13.6071 12.8487 13.6562 12.746C13.7259 12.6004 13.7956 12.3226 13.8242 12.0913C13.8456 11.9144 13.8393 11.818 13.8367 11.7581C13.8331 11.6626 13.7536 11.5634 13.667 11.5214L13.1471 11.2883C13.1471 11.2883 12.3701 10.9498 11.8958 10.7337C11.8458 10.7119 11.7922 10.6994 11.7377 10.697C11.6766 10.6908 11.6148 10.6976 11.5566 10.7172C11.4984 10.7368 11.445 10.7686 11.4001 10.8105V10.8087C11.3956 10.8087 11.3358 10.8596 10.69 11.642C10.6529 11.6918 10.6019 11.7295 10.5434 11.7501C10.4848 11.7708 10.4214 11.7736 10.3613 11.7581C10.3031 11.7426 10.2461 11.7229 10.1907 11.6992C10.08 11.6527 10.0416 11.6349 9.96564 11.6018L9.96118 11.6C9.4502 11.3769 8.9771 11.0756 8.5589 10.7069C8.44636 10.6086 8.34185 10.5014 8.23467 10.3978C7.88328 10.0613 7.57704 9.68061 7.32364 9.26528L7.27094 9.18043C7.23309 9.12341 7.20249 9.0619 7.17984 8.99732C7.14589 8.86603 7.23432 8.76063 7.23432 8.76063C7.23432 8.76063 7.45136 8.52305 7.55229 8.39443C7.63633 8.28754 7.71473 8.17634 7.78719 8.06128C7.89259 7.89158 7.92564 7.71741 7.87026 7.58254C7.62017 6.97161 7.36115 6.36335 7.09498 5.75957C7.04229 5.63988 6.88598 5.55414 6.74397 5.53717C6.69573 5.53181 6.6475 5.52645 6.59927 5.52288C6.47932 5.51692 6.35913 5.51811 6.23932 5.52645V5.52734Z" fill="white"/>
</svg>
