<svg width="22" height="15" viewBox="0 0 22 15" fill="none" xmlns="http://www.w3.org/2000/svg">
<path d="M21.4252 2.81164C21.3072 2.38368 21.0715 1.9924 20.7418 1.67703C20.412 1.36166 19.9999 1.13328 19.5466 1.01479C17.8693 0.573458 11.1488 0.573458 11.1488 0.573458C8.34657 0.541813 5.54506 0.682211 2.76224 0.993777C2.30883 1.12092 1.89737 1.35456 1.56671 1.67263C1.23607 1.9907 0.997129 2.38271 0.872464 2.81164C0.571817 4.43191 0.425869 6.07421 0.43636 7.71881C0.425149 9.36351 0.571103 11.0059 0.872464 12.6261C0.994563 13.0538 1.23298 13.4444 1.56431 13.7595C1.89563 14.0746 2.30846 14.3031 2.76224 14.4229C4.46194 14.8642 11.1488 14.8642 11.1488 14.8642C13.9548 14.8959 16.7601 14.7555 19.5466 14.4439C19.9999 14.3254 20.412 14.0971 20.7418 13.7817C21.0715 13.4663 21.3072 13.075 21.4252 12.6471C21.7336 11.0276 21.8833 9.38503 21.8725 7.73989C21.8957 6.08734 21.7458 4.43664 21.4252 2.81164ZM9.01307 10.7767V4.66104L14.6042 7.71881L9.01307 10.7767Z" fill="white"/>
</svg>
